<?xml version="1.0" encoding="utf-8"?>
<!-- Generator: Adobe Illustrator 16.0.0, SVG Export Plug-In . SVG Version: 6.00 Build 0)  -->
<!DOCTYPE svg PUBLIC "-//W3C//DTD SVG 1.1//EN" "http://www.w3.org/Graphics/SVG/1.1/DTD/svg11.dtd">
<svg version="1.1" id="Layer_1" xmlns="http://www.w3.org/2000/svg" xmlns:xlink="http://www.w3.org/1999/xlink" x="0px" y="0px"
	 width="225.5px" height="131px" viewBox="0 0 225.5 131" enable-background="new 0 0 225.5 131" xml:space="preserve">
<g>
	<path fill="#E72984" d="M181.158,108.94H52.85c-0.341,0-0.653-0.191-0.808-0.495L23.656,52.808
		c-0.146-0.288-0.129-0.631,0.045-0.903l10.222-15.896c0.167-0.259,0.454-0.417,0.763-0.417h164.641
		c0.309,0,0.596,0.157,0.763,0.417l10.217,15.896c0.174,0.271,0.191,0.615,0.045,0.902l-28.386,55.638
		C181.811,108.749,181.499,108.94,181.158,108.94z M53.405,107.126h127.197l27.897-54.678l-9.667-15.041H35.181l-9.672,15.041
		L53.405,107.126z"/>
</g>
<path fill="#E72984" d="M198.944,54.44c-0.306,0-0.605-0.155-0.776-0.436l-5.032-8.27h-153.4L34.7,54.005
	c-0.261,0.429-0.818,0.562-1.247,0.303c-0.428-0.261-0.563-0.819-0.303-1.247l5.301-8.706c0.165-0.271,0.458-0.436,0.775-0.436
	h154.42c0.316,0,0.61,0.166,0.775,0.436l5.297,8.706c0.26,0.428,0.125,0.986-0.304,1.247
	C199.267,54.397,199.104,54.44,198.944,54.44z"/>
<g>
	<path d="M42.643,108.592c-0.49-0.104-0.961-0.267-1.445-0.38c-0.558-0.13-1.139-0.044-1.695-0.162
		c-0.23-0.051-0.453-0.155-0.688-0.177c-0.244-0.025-0.449,0.123-0.689,0.11c-0.327-0.011-0.634-0.162-0.967-0.143
		c-0.303-0.3-0.589-0.672-0.954-0.926c-0.354-0.241-0.468-0.699-0.884-0.852c-0.148-0.363-0.479-0.546-0.771-0.762
		c-0.266-0.192-0.427-0.443-0.434-0.798c-0.009-0.418-0.052-0.837-0.111-1.249c-0.052-0.362-0.076-0.752-0.237-1.069
		c-0.464-0.889-0.601-1.866-0.677-2.826c-0.117-1.463-0.114-2.94-0.122-4.417c-0.001-1.133,0.06-2.271,0.106-3.405
		c0.006-0.153,0.053-0.311,0.102-0.459c0.148-0.452,0.233-0.913,0.208-1.393c-0.011-0.26-0.032-0.535,0.031-0.786
		c0.29-1.119,0.328-2.27,0.48-3.409c0.123-0.881,0.168-1.77,0.22-2.658c0.054-1.013,0.079-2.026,0.111-3.039
		c0.01-0.408,0.021-0.815-0.004-1.219c-0.054-0.81,0.155-1.593,0.256-2.387c0.09-0.707,0.185-1.415,0.281-2.128
		c0.007-0.047,0.031-0.09,0.047-0.148c0.141-0.025,0.275-0.052,0.305-0.057c0.229-0.209,0.374-0.363,0.54-0.484
		c0.658-0.469,1.277-0.979,1.844-1.554c0.338-0.339,0.536-0.71,0.641-1.169c0.13-0.561,0.212-1.141,0.497-1.65
		c0.151-0.28,0.143-0.562,0.022-0.863c-0.075-0.19-0.075-0.409-0.113-0.614c-0.024-0.118-0.049-0.235-0.087-0.353
		c-0.076-0.266-0.161-0.526-0.248-0.805c0.429-0.178,0.342-0.511,0.311-0.821c-0.023-0.266-0.069-0.524-0.068-0.781
		c0-0.211,0.104-0.416,0.086-0.62c-0.051-0.695,0.092-1.381,0.034-2.085c-0.114-1.306,0.015-2.624-0.115-3.939
		c-0.107-1.129-0.016-2.27-0.095-3.415c-0.107-1.533,0.013-3.083-0.125-4.622c-0.069-0.798-0.074-1.605-0.119-2.407
		c-0.025-0.453-0.071-0.907-0.107-1.354c-0.066-0.748-0.138-1.495-0.2-2.24c-0.046-0.573-0.06-1.15-0.119-1.73
		c-0.085-0.81-0.202-1.619-0.3-2.433c-0.078-0.672-0.134-1.352-0.226-2.024c-0.16-1.14-0.341-2.272-0.511-3.404
		c-0.037-0.26-0.092-0.52-0.104-0.778c-0.046-0.91-0.158-1.809-0.342-2.697c-0.135-0.669-0.415-1.243-1.162-1.481
		c-0.423-0.14-0.814-0.394-1.218-0.609c-0.882-0.461-1.743-0.977-2.644-1.401c-0.46-0.22-0.924-0.408-1.396-0.592
		c-0.333-0.125-0.68-0.209-1.006-0.352c-0.176-0.075-0.307-0.172-0.371-0.301c-0.053-0.101-0.064-0.225-0.033-0.38
		c0.047-0.222,0.169-0.455,0.131-0.659c-0.094-0.544,0.159-1.024,0.181-1.544c0.017-0.407,0.392-0.613,0.512-0.964
		c0.04-0.126,0.115-0.254,0.212-0.346c0.249-0.247,0.331-0.531,0.231-0.856c-0.066-0.228-0.087-0.438-0.008-0.648
		c0.595-0.285,0.827-0.573,0.891-1.186c0.027-0.297,0.002-0.596,0.014-0.895c0.008-0.171,0.026-0.35,0.079-0.509
		c0.173-0.511,0.127-1.079,0.387-1.566c0.033-0.061-0.009-0.17-0.037-0.248c-0.159-0.438-0.003-0.948-0.299-1.351
		c-0.008-0.015-0.003-0.034-0.003-0.062c0.042-0.06,0.09-0.128,0.135-0.197c-0.091-0.116-0.173-0.226-0.325-0.424
		c0.17,0.087,0.229,0.117,0.291,0.149c0.111-0.448,0.088-0.866-0.164-1.279c-0.189-0.307-0.333-0.658-0.446-1
		c-0.151-0.475-0.306-0.939-0.569-1.383c-0.321-0.523-0.725-0.836-1.317-0.926c-0.379-0.056-0.759-0.117-1.133-0.175
		c-0.123,0.059-0.247,0.122-0.366,0.181c-0.081-0.038-0.155-0.054-0.205-0.098c-0.672-0.515-1.415-0.523-2.198-0.342
		c-0.231,0.056-0.487,0.092-0.716,0.047c-0.278-0.057-0.509,0.014-0.793,0.146C23.03,9.79,23.152,9.81,23.27,9.828
		c0,0.034,0,0.064-0.005,0.1c-0.303,0.019-0.606,0.039-0.954,0.059c-0.184,0.169-0.424,0.379-0.647,0.6
		c-0.11,0.104-0.211,0.228-0.303,0.346c-0.4,0.535-0.498,1.192-0.732,1.79c-0.14,0.352-0.106,0.781-0.268,1.111
		c-0.179,0.355-0.123,0.732-0.231,1.091c-0.085,0.273-0.185,0.604-0.057,0.94c0.057,0.15-0.022,0.397-0.119,0.552
		c-0.205,0.326-0.287,0.623-0.011,0.947c0.036,0.046,0.024,0.132,0.031,0.201c0.065,0.411,0.145,0.825,0.186,1.237
		s0.094,0.831,0.051,1.242c-0.026,0.215-0.051,0.409,0.036,0.603c0.111,0.241,0.242,0.475,0.376,0.734
		c-0.379-0.123-0.642-0.386-0.917-0.647c0.091,0.637,0.525,0.906,1.099,1.034c-0.044,0.261-0.345,0.428-0.243,0.746
		c0.125-0.074,0.225-0.134,0.289-0.165c0.119,0.219,0.193,0.438,0.333,0.592c0.143,0.158,0.313,0.347,0.301,0.57
		c-0.016,0.224-0.184,0.41-0.334,0.561c-0.022,0.024-0.048,0.056-0.071,0.077c-0.122,0.124-0.242,0.254-0.35,0.392
		c-0.129,0.164-0.219,0.363-0.361,0.519c-0.216,0.237-0.461,0.435-0.686,0.663c-0.184,0.184-0.393,0.342-0.599,0.506
		c-0.194,0.152-0.384,0.305-0.592,0.424c-0.687,0.389-1.377,0.769-2.071,1.141c-0.54,0.287-1.09,0.556-1.636,0.832
		c-0.343,0.177-0.693,0.336-1.031,0.521c-0.669,0.374-1.317,0.792-2.014,1.13c-0.418,0.204-0.704,0.49-0.918,0.883
		c-0.45,0.826-0.665,1.727-0.848,2.635c-0.133,0.661-0.167,1.331,0.016,1.973c0.129,0.447,0.003,0.78-0.186,1.142
		c-0.136,0.266-0.275,0.53-0.356,0.815c-0.171,0.618-0.173,1.245-0.029,1.871c0.11,0.474,0.203,0.953,0.305,1.435
		c-0.567,0.587-0.636,1.318-0.5,2.082c0.086,0.473,0.073,0.922-0.088,1.377c-0.05,0.131-0.095,0.27-0.108,0.405
		c-0.062,0.628-0.212,1.234-0.344,1.845c-0.105,0.476-0.166,0.967-0.182,1.448c-0.014,0.485,0.059,0.975,0.082,1.464
		c0.006,0.103-0.032,0.203-0.032,0.312c-0.003,0.623-0.034,1.253,0.014,1.876c0.042,0.614,0.238,1.195,0.522,1.748
		c0.124,0.249,0.159,0.538,0.251,0.798c0.277,0.813,0.54,1.628,0.853,2.424c0.362,0.923,0.856,1.802,1.077,2.786
		c0.109,0.491,0.328,0.969,0.361,1.465c0.034,0.503,0.213,0.912,0.479,1.309c0.122,0.189,0.258,0.368,0.339,0.475
		c0.051,0.382,0.018,0.719,0.156,0.959c0.232,0.39,0.323,0.793,0.312,1.229c-0.032,1.366-0.067,2.731-0.105,4.096
		c-0.011,0.331-0.064,0.662-0.085,0.988c-0.01,0.155-0.003,0.307-0.003,0.501c0.724-0.148,1.377-0.285,2.045-0.429
		c0.052,1.123,0.123,2.188,0.145,3.25c0.028,1.437-0.024,2.872,0.114,4.308c0.004,0.051-0.003,0.107,0.006,0.153
		c0.128,0.618,0.195,1.234,0.098,1.856c-0.033,0.224-0.081,0.446-0.103,0.672c-0.047,0.469-0.08,0.938-0.115,1.407
		c-0.07,0.872-0.171,1.737-0.197,2.609c-0.031,1.21-0.012,2.422-0.003,3.634c0.005,0.364,0.067,0.729,0.087,1.092
		c0.012,0.177,0.006,0.354-0.005,0.528c-0.022,0.275-0.079,0.557-0.077,0.828c0.003,0.278,0.081,0.556,0.09,0.833
		c0.033,0.771,0.033,1.536,0.092,2.308c0.101,1.41,0.091,2.834,0.124,4.257c0.011,0.522-0.012,1.049,0.019,1.578
		c0.046,0.749,0.164,1.491,0.185,2.237c0.021,0.901,0.12,1.778,0.4,2.633c0.22,0.674,0.312,1.358,0.207,2.094
		c-0.26,0.18-0.56,0.381-0.583,0.742c-0.055,0.826-0.032,1.636,0.44,2.38c0.291,0.47,0.594,0.954,0.727,1.496
		c0.123,0.502,0.2,0.996-0.133,1.512c-0.188,0.286-0.207,0.74,0.173,1.041c0.271,0.217,0.424,0.543,0.455,0.86
		c0.065,0.683,0.447,1.098,1.035,1.336c1.021,0.412,2.056,0.789,3.087,1.179c0.606,0.231,1.331,0.359,1.983,0.308
		c0.77-0.06,1.492-0.774,1.715-1.501c0.192-0.607-0.346-1.158-0.311-1.781c0.017-0.325-0.095-0.604-0.255-0.893
		c-0.486-0.866-0.946-1.747-1.409-2.609c0.076-0.243,0.123-0.446,0.198-0.638c0.146-0.357,0.324-0.695,0.465-1.054
		c0.221-0.587,0.39-1.196,0.648-1.772c0.162-0.357,0.196-0.721,0.132-1.077c-0.168-0.958-0.349-1.918-0.673-2.847
		c-0.112-0.323-0.286-0.583-0.514-0.836c-0.508-0.578-0.999-1.174-1.222-1.939c0.299-1.048,0.451-2.108,0.433-3.205
		c-0.012-0.837-0.056-1.677,0.078-2.519c0.093-0.565,0.03-1.146,0.107-1.722c0.058-0.48,0.16-0.924,0.379-1.353
		c0.589-1.159,0.904-2.414,1.228-3.667c0.077-0.301,0.163-0.606,0.245-0.908c0.033,0.006,0.069,0.014,0.102,0.018
		c0.046,0.39,0.063,0.783-0.005,1.184c-0.031,0.186-0.024,0.379-0.031,0.566c-0.004,0.118-0.001,0.237-0.008,0.351
		c-0.045,0.54-0.109,1.078-0.12,1.618c-0.009,0.38,0.095,0.768,0.084,1.148c-0.017,0.62,0.163,1.263-0.188,1.848
		c0,0.735-0.036,1.476,0.015,2.208c0.056,0.884,0.22,1.763,0.281,2.65c0.068,1.017,0.357,1.968,0.826,2.847
		c0.271,0.512,0.376,1.001,0.341,1.552c-0.008,0.137-0.04,0.279-0.054,0.412c-0.016,0.259-0.05,0.529-0.034,0.789
		c0.055,0.691,0.151,1.38,0.187,2.075c0.032,0.562,0.008,1.127,0.004,1.69c0,0.396,0.049,0.799-0.166,1.177
		c-0.062,0.11-0.029,0.274-0.039,0.415c-0.011,0.175,0.02,0.366-0.043,0.52c-0.212,0.522,0.141,0.78,0.575,0.898
		c0.767,0.218,1.558,0.265,2.338,0.29c1.062,0.029,2.128,0.045,3.199-0.061c0.828-0.078,1.673,0.066,2.513,0.111
		c0.033,0.001,0.065,0.026,0.101,0.032c1.081,0.203,2.161,0.402,3.273,0.372c1.016-0.026,2.033,0,3.053-0.018
		c0.473-0.009,0.939-0.065,1.411-0.121c0.29-0.031,0.617-0.18,0.907-0.402c0.615-0.465,1.055-1.239,0.587-1.904
		C43.211,109.04,42.928,108.648,42.643,108.592"/>
</g>
</svg>
