<?xml version="1.0" encoding="utf-8"?>
<!-- Generator: Adobe Illustrator 16.0.0, SVG Export Plug-In . SVG Version: 6.00 Build 0)  -->
<!DOCTYPE svg PUBLIC "-//W3C//DTD SVG 1.1//EN" "http://www.w3.org/Graphics/SVG/1.1/DTD/svg11.dtd">
<svg version="1.1" id="Layer_1" xmlns="http://www.w3.org/2000/svg" xmlns:xlink="http://www.w3.org/1999/xlink" x="0px" y="0px"
	 width="225.5px" height="144px" viewBox="0 0 225.5 144" enable-background="new 0 0 225.5 144" xml:space="preserve">
<path fill="#FFFFFF" d="M160.065,133.559H36.671c-0.302,0-0.584-0.15-0.753-0.401L7.15,90.353c-0.101-0.149-0.154-0.326-0.154-0.506
	V10.771c0-0.501,0.406-0.907,0.907-0.907h139.292c0.177,0,0.35,0.052,0.498,0.149l70.403,46.178c0.21,0.138,0.354,0.357,0.396,0.604
	c0.042,0.248-0.02,0.502-0.172,0.703L160.787,133.2C160.616,133.426,160.349,133.559,160.065,133.559z M37.154,131.744h122.461
	l56.672-74.57l-69.364-45.496H8.81V89.57L37.154,131.744z M190.392,77.577H16.673c-0.501,0-0.907-0.406-0.907-0.907
	s0.406-0.907,0.907-0.907h173.719c0.501,0,0.907,0.406,0.907,0.907S190.893,77.577,190.392,77.577z M144.04,67.905
	c-0.501,0-0.907-0.406-0.907-0.907v-42.22c0-0.501,0.406-0.907,0.907-0.907s0.907,0.406,0.907,0.907v42.22
	C144.947,67.499,144.541,67.905,144.04,67.905z M16.27,65.607c-0.501,0-0.907-0.406-0.907-0.907V19.543
	c0-0.501,0.406-0.907,0.907-0.907h119.709c0.501,0,0.907,0.406,0.907,0.907s-0.406,0.907-0.907,0.907H17.177V64.7
	C17.177,65.201,16.771,65.607,16.27,65.607z"/>
<path d="M40.858,130.313c-0.485-0.103-0.954-0.266-1.434-0.378c-0.551-0.127-1.129-0.041-1.68-0.159
	c-0.226-0.051-0.45-0.154-0.684-0.177c-0.241-0.023-0.442,0.123-0.682,0.11c-0.324-0.011-0.628-0.16-0.959-0.141
	c-0.3-0.296-0.582-0.667-0.946-0.917c-0.351-0.24-0.464-0.695-0.877-0.847c-0.145-0.358-0.475-0.54-0.764-0.756
	c-0.264-0.19-0.424-0.438-0.431-0.791c-0.01-0.415-0.05-0.83-0.111-1.239c-0.051-0.357-0.073-0.744-0.234-1.06
	c-0.459-0.882-0.598-1.851-0.673-2.802c-0.116-1.451-0.111-2.919-0.119-4.382c0-1.122,0.06-2.252,0.105-3.376
	c0.006-0.154,0.052-0.309,0.101-0.457c0.147-0.448,0.231-0.905,0.206-1.382c-0.011-0.256-0.031-0.53,0.032-0.779
	c0.288-1.108,0.323-2.251,0.473-3.38c0.123-0.873,0.17-1.757,0.22-2.637c0.054-1.005,0.08-2.013,0.11-3.018
	c0.01-0.403,0.022-0.806-0.004-1.206c-0.054-0.803,0.154-1.58,0.254-2.366c0.091-0.703,0.183-1.403,0.28-2.111
	c0.006-0.045,0.03-0.09,0.045-0.148c0.14-0.022,0.271-0.05,0.302-0.055c0.229-0.208,0.371-0.359,0.536-0.482
	c0.653-0.463,1.266-0.968,1.83-1.539c0.333-0.336,0.531-0.705,0.636-1.159c0.13-0.558,0.21-1.131,0.491-1.638
	c0.151-0.275,0.144-0.559,0.023-0.855c-0.074-0.189-0.074-0.405-0.113-0.608c-0.024-0.118-0.047-0.234-0.085-0.351
	c-0.075-0.263-0.159-0.522-0.246-0.8c0.426-0.175,0.339-0.506,0.307-0.813c-0.021-0.262-0.07-0.519-0.066-0.775
	c0-0.21,0.102-0.411,0.085-0.613c-0.049-0.688,0.091-1.369,0.033-2.068c-0.113-1.296,0.016-2.603-0.113-3.907
	c-0.106-1.119-0.015-2.25-0.092-3.387c-0.11-1.521,0.009-3.06-0.128-4.585c-0.066-0.791-0.073-1.594-0.117-2.387
	c-0.024-0.45-0.071-0.9-0.105-1.345c-0.066-0.743-0.137-1.48-0.198-2.222c-0.045-0.567-0.061-1.14-0.118-1.717
	c-0.085-0.804-0.202-1.606-0.298-2.413c-0.077-0.665-0.134-1.339-0.226-2.007c-0.156-1.13-0.337-2.252-0.506-3.376
	c-0.035-0.256-0.091-0.515-0.101-0.774c-0.049-0.898-0.159-1.791-0.343-2.674c-0.132-0.664-0.411-1.231-1.15-1.468
	c-0.419-0.142-0.808-0.392-1.209-0.604c-0.874-0.459-1.729-0.97-2.622-1.391c-0.456-0.219-0.916-0.404-1.383-0.587
	c-0.331-0.124-0.676-0.207-1.001-0.35c-0.173-0.075-0.301-0.171-0.364-0.297c-0.055-0.102-0.065-0.225-0.035-0.377
	c0.044-0.223,0.167-0.453,0.129-0.654c-0.09-0.54,0.159-1.018,0.179-1.532c0.019-0.404,0.39-0.608,0.508-0.953
	c0.04-0.127,0.116-0.254,0.212-0.345c0.248-0.245,0.327-0.527,0.227-0.851c-0.063-0.224-0.086-0.433-0.007-0.641
	c0.591-0.286,0.822-0.572,0.884-1.179c0.026-0.293,0.004-0.59,0.016-0.887c0.006-0.169,0.026-0.346,0.075-0.504
	c0.173-0.506,0.128-1.072,0.386-1.553c0.033-0.063-0.01-0.169-0.036-0.248c-0.16-0.436-0.004-0.94-0.297-1.341
	c-0.008-0.013-0.003-0.033-0.003-0.062c0.04-0.058,0.089-0.124,0.133-0.191c-0.09-0.118-0.173-0.226-0.324-0.423
	c0.17,0.088,0.229,0.115,0.288,0.146c0.112-0.442,0.09-0.856-0.16-1.269c-0.187-0.304-0.329-0.649-0.444-0.991
	c-0.149-0.471-0.301-0.932-0.564-1.371c-0.32-0.519-0.718-0.829-1.307-0.917c-0.373-0.056-0.751-0.116-1.122-0.174
	c-0.121,0.058-0.245,0.122-0.362,0.177c-0.082-0.035-0.156-0.053-0.204-0.094c-0.666-0.511-1.402-0.522-2.178-0.34
	c-0.231,0.055-0.484,0.091-0.713,0.047c-0.274-0.056-0.503,0.013-0.784,0.145c0.163,0.03,0.286,0.05,0.404,0.068
	c0,0.035,0,0.064-0.007,0.1c-0.3,0.02-0.6,0.039-0.945,0.058c-0.182,0.169-0.423,0.378-0.644,0.595
	c-0.108,0.104-0.209,0.225-0.3,0.344c-0.396,0.53-0.494,1.182-0.727,1.775c-0.137,0.349-0.104,0.774-0.263,1.101
	c-0.177,0.353-0.123,0.728-0.232,1.082c-0.084,0.274-0.182,0.598-0.054,0.935c0.054,0.147-0.022,0.394-0.121,0.546
	c-0.2,0.324-0.283,0.617-0.008,0.938c0.036,0.047,0.024,0.131,0.031,0.201c0.065,0.407,0.143,0.818,0.183,1.226
	c0.04,0.409,0.094,0.825,0.05,1.232c-0.024,0.214-0.05,0.407,0.037,0.598c0.109,0.238,0.24,0.473,0.373,0.729
	c-0.375-0.122-0.637-0.384-0.909-0.644c0.088,0.634,0.52,0.9,1.089,1.026c-0.045,0.26-0.343,0.424-0.24,0.741
	c0.122-0.074,0.221-0.133,0.287-0.163c0.116,0.217,0.19,0.432,0.327,0.588c0.146,0.154,0.313,0.341,0.299,0.562
	c-0.014,0.223-0.181,0.407-0.329,0.557c-0.023,0.024-0.049,0.056-0.07,0.078c-0.121,0.122-0.241,0.25-0.35,0.385
	c-0.127,0.165-0.215,0.363-0.356,0.517c-0.213,0.233-0.457,0.431-0.68,0.657c-0.183,0.182-0.39,0.34-0.593,0.503
	c-0.194,0.15-0.383,0.301-0.586,0.419c-0.684,0.384-1.368,0.762-2.059,1.13c-0.534,0.286-1.08,0.553-1.62,0.827
	c-0.34,0.174-0.688,0.333-1.023,0.518c-0.664,0.37-1.304,0.783-1.998,1.12c-0.416,0.2-0.697,0.484-0.909,0.875
	c-0.447,0.82-0.661,1.713-0.841,2.612c-0.133,0.657-0.167,1.321,0.015,1.956c0.129,0.443,0.002,0.774-0.184,1.134
	c-0.136,0.263-0.273,0.525-0.355,0.809c-0.168,0.613-0.17,1.236-0.026,1.856c0.108,0.47,0.201,0.943,0.302,1.422
	c-0.564,0.582-0.63,1.307-0.498,2.065c0.087,0.468,0.073,0.914-0.085,1.364C7.577,66.863,7.532,67,7.52,67.135
	c-0.062,0.622-0.211,1.225-0.344,1.83c-0.102,0.473-0.162,0.959-0.177,1.436c-0.016,0.483,0.057,0.97,0.08,1.452
	c0.006,0.1-0.031,0.202-0.031,0.309c-0.006,0.619-0.034,1.244,0.012,1.86c0.04,0.61,0.237,1.187,0.52,1.734
	c0.122,0.245,0.158,0.535,0.247,0.789c0.277,0.81,0.535,1.617,0.846,2.407c0.359,0.916,0.85,1.787,1.069,2.763
	c0.106,0.486,0.326,0.961,0.357,1.453c0.033,0.499,0.211,0.903,0.476,1.298c0.121,0.189,0.255,0.366,0.333,0.471
	c0.053,0.379,0.02,0.714,0.155,0.95c0.231,0.388,0.322,0.785,0.312,1.22c-0.032,1.356-0.068,2.709-0.104,4.062
	c-0.012,0.33-0.063,0.657-0.083,0.98c-0.012,0.154-0.005,0.306-0.005,0.5c0.717-0.149,1.367-0.286,2.029-0.427
	c0.052,1.112,0.123,2.17,0.142,3.223c0.029,1.423-0.024,2.848,0.113,4.271c0.005,0.052-0.001,0.106,0.007,0.154
	c0.127,0.614,0.194,1.224,0.098,1.841c-0.034,0.223-0.081,0.444-0.102,0.667c-0.047,0.464-0.081,0.931-0.116,1.395
	c-0.069,0.865-0.168,1.724-0.194,2.591c-0.028,1.199-0.012,2.4-0.002,3.602c0.005,0.362,0.066,0.724,0.085,1.082
	c0.012,0.175,0.007,0.353-0.004,0.526c-0.022,0.272-0.079,0.553-0.076,0.821c0.004,0.274,0.08,0.55,0.087,0.825
	c0.033,0.765,0.033,1.522,0.092,2.288c0.102,1.399,0.09,2.811,0.124,4.224c0.011,0.516-0.014,1.039,0.018,1.564
	c0.046,0.74,0.164,1.48,0.184,2.218c0.021,0.894,0.119,1.767,0.399,2.613c0.217,0.667,0.308,1.346,0.203,2.076
	c-0.257,0.179-0.556,0.378-0.578,0.735c-0.052,0.819-0.034,1.623,0.436,2.36c0.289,0.465,0.589,0.945,0.721,1.483
	c0.122,0.497,0.2,0.99-0.132,1.498c-0.187,0.286-0.205,0.734,0.172,1.033c0.269,0.217,0.42,0.54,0.453,0.855
	c0.064,0.674,0.442,1.086,1.024,1.323c1.014,0.409,2.039,0.784,3.063,1.169c0.599,0.232,1.32,0.357,1.965,0.306
	c0.764-0.059,1.48-0.77,1.704-1.489c0.189-0.603-0.346-1.146-0.31-1.766c0.017-0.324-0.094-0.601-0.254-0.887
	c-0.482-0.857-0.938-1.731-1.396-2.586c0.076-0.243,0.12-0.444,0.194-0.633c0.146-0.357,0.323-0.689,0.464-1.045
	c0.219-0.585,0.386-1.188,0.641-1.761c0.162-0.354,0.195-0.712,0.132-1.066c-0.168-0.948-0.345-1.903-0.667-2.822
	c-0.112-0.32-0.284-0.578-0.511-0.83c-0.505-0.572-0.992-1.165-1.212-1.924c0.298-1.039,0.449-2.09,0.43-3.18
	c-0.013-0.829-0.056-1.66,0.076-2.496c0.093-0.562,0.03-1.14,0.106-1.707c0.058-0.478,0.16-0.917,0.378-1.342
	c0.583-1.15,0.895-2.396,1.217-3.638c0.077-0.299,0.162-0.602,0.244-0.901c0.031,0.007,0.069,0.014,0.1,0.02
	c0.046,0.383,0.061,0.775-0.005,1.173c-0.031,0.182-0.024,0.376-0.031,0.562c-0.004,0.116,0,0.234-0.009,0.349
	c-0.043,0.535-0.106,1.068-0.117,1.604c-0.008,0.377,0.093,0.762,0.081,1.14c-0.015,0.614,0.166,1.254-0.186,1.832
	c0,0.729-0.036,1.461,0.016,2.188c0.055,0.879,0.22,1.75,0.277,2.629c0.068,1.012,0.355,1.954,0.821,2.826
	c0.267,0.508,0.373,0.994,0.339,1.538c-0.008,0.135-0.041,0.278-0.055,0.409c-0.017,0.257-0.05,0.525-0.033,0.783
	c0.054,0.685,0.151,1.368,0.186,2.057c0.034,0.561,0.009,1.118,0.002,1.677c0,0.394,0.05,0.793-0.162,1.168
	c-0.061,0.109-0.031,0.272-0.04,0.412c-0.011,0.172,0.02,0.362-0.043,0.516c-0.21,0.518,0.141,0.772,0.571,0.889
	c0.761,0.217,1.545,0.263,2.318,0.289c1.055,0.029,2.111,0.045,3.174-0.061c0.822-0.075,1.658,0.066,2.491,0.11
	c0.034,0.002,0.066,0.027,0.102,0.033c1.072,0.2,2.144,0.398,3.246,0.368c1.007-0.026,2.016,0,3.026-0.019
	c0.471-0.008,0.933-0.064,1.401-0.12c0.288-0.029,0.612-0.177,0.9-0.397c0.608-0.461,1.047-1.229,0.581-1.887
	C41.421,130.757,41.139,130.368,40.858,130.313"/>
</svg>
