<?xml version="1.0" encoding="utf-8"?>
<!-- Generator: Adobe Illustrator 16.0.0, SVG Export Plug-In . SVG Version: 6.00 Build 0)  -->
<!DOCTYPE svg PUBLIC "-//W3C//DTD SVG 1.1//EN" "http://www.w3.org/Graphics/SVG/1.1/DTD/svg11.dtd">
<svg version="1.1" id="Layer_1" xmlns="http://www.w3.org/2000/svg" xmlns:xlink="http://www.w3.org/1999/xlink" x="0px" y="0px"
	 width="177.5px" height="131px" viewBox="0 0 177.5 131" enable-background="new 0 0 177.5 131" xml:space="preserve">
<g>
	<path fill="#E72984" d="M145.875,110.913H54.489c-0.341,0-0.653-0.191-0.808-0.495L33.462,70.789
		c-0.146-0.288-0.129-0.631,0.045-0.903l7.282-11.322c0.167-0.259,0.454-0.417,0.763-0.417h117.264c0.309,0,0.596,0.157,0.763,0.417
		l7.278,11.322c0.174,0.271,0.191,0.615,0.045,0.902l-20.219,39.629C146.528,110.722,146.216,110.913,145.875,110.913z
		 M55.044,109.099h90.275l19.729-38.669l-6.728-10.467H42.047l-6.732,10.467L55.044,109.099z"/>
</g>
<path fill="#E72984" d="M158.543,72.094c-0.306,0-0.605-0.155-0.776-0.436l-3.507-5.764H45.294l-3.512,5.765
	c-0.261,0.429-0.818,0.563-1.246,0.303c-0.428-0.26-0.563-0.818-0.303-1.246l3.777-6.2c0.165-0.271,0.458-0.436,0.774-0.436H154.77
	c0.316,0,0.61,0.166,0.775,0.436l3.772,6.2c0.26,0.428,0.125,0.986-0.304,1.246C158.866,72.051,158.704,72.094,158.543,72.094z"/>
<g>
	<path d="M42.394,110.571c-0.49-0.106-0.96-0.268-1.442-0.381c-0.556-0.13-1.136-0.044-1.691-0.161
		c-0.229-0.052-0.451-0.153-0.685-0.179c-0.243-0.023-0.448,0.122-0.687,0.112c-0.326-0.012-0.633-0.161-0.963-0.144
		c-0.303-0.299-0.589-0.671-0.953-0.922c-0.352-0.241-0.467-0.697-0.882-0.849c-0.147-0.363-0.475-0.545-0.768-0.761
		c-0.265-0.191-0.425-0.441-0.433-0.793c-0.009-0.417-0.051-0.836-0.11-1.249c-0.052-0.36-0.076-0.749-0.236-1.063
		c-0.463-0.89-0.6-1.86-0.676-2.818c-0.117-1.461-0.113-2.934-0.12-4.403c-0.001-1.132,0.059-2.264,0.104-3.398
		c0.007-0.152,0.054-0.309,0.101-0.457c0.149-0.451,0.234-0.909,0.209-1.387c-0.012-0.261-0.033-0.535,0.031-0.785
		c0.289-1.114,0.327-2.264,0.478-3.399c0.123-0.877,0.168-1.764,0.219-2.651c0.055-1.011,0.08-2.021,0.112-3.032
		c0.009-0.402,0.021-0.809-0.005-1.212c-0.054-0.808,0.156-1.588,0.255-2.382c0.09-0.705,0.184-1.408,0.28-2.118
		c0.008-0.047,0.032-0.092,0.048-0.15c0.14-0.025,0.274-0.05,0.303-0.057c0.229-0.206,0.373-0.361,0.538-0.483
		c0.657-0.465,1.274-0.975,1.84-1.549c0.335-0.339,0.534-0.708,0.64-1.167c0.127-0.558,0.21-1.134,0.495-1.646
		c0.151-0.274,0.143-0.561,0.022-0.859c-0.076-0.188-0.076-0.407-0.113-0.61c-0.024-0.119-0.05-0.237-0.088-0.354
		c-0.075-0.265-0.16-0.525-0.245-0.802c0.427-0.178,0.34-0.51,0.309-0.822c-0.023-0.261-0.07-0.519-0.068-0.777
		c0-0.206,0.104-0.414,0.086-0.615c-0.051-0.697,0.093-1.378,0.034-2.082c-0.113-1.302,0.014-2.614-0.116-3.925
		c-0.106-1.127-0.016-2.266-0.094-3.404c-0.106-1.532,0.013-3.075-0.125-4.613c-0.068-0.794-0.072-1.599-0.118-2.399
		c-0.025-0.451-0.071-0.903-0.107-1.351c-0.066-0.745-0.138-1.49-0.198-2.233c-0.047-0.573-0.06-1.148-0.119-1.724
		c-0.085-0.809-0.202-1.617-0.299-2.428c-0.079-0.669-0.135-1.347-0.227-2.018c-0.159-1.137-0.34-2.266-0.51-3.396
		c-0.036-0.258-0.091-0.517-0.103-0.776c-0.046-0.904-0.157-1.802-0.34-2.689c-0.135-0.666-0.414-1.238-1.158-1.478
		c-0.423-0.139-0.813-0.393-1.215-0.605c-0.88-0.461-1.74-0.973-2.637-1.399c-0.458-0.217-0.921-0.404-1.391-0.588
		c-0.333-0.124-0.68-0.211-1.004-0.351c-0.176-0.076-0.307-0.172-0.371-0.302c-0.052-0.1-0.063-0.224-0.031-0.377
		c0.046-0.221,0.167-0.453,0.131-0.659c-0.095-0.539,0.158-1.021,0.179-1.536c0.017-0.407,0.391-0.615,0.51-0.962
		c0.041-0.128,0.116-0.254,0.212-0.346c0.248-0.247,0.329-0.53,0.231-0.854c-0.067-0.226-0.087-0.438-0.008-0.65
		c0.593-0.28,0.824-0.569,0.888-1.179c0.028-0.297,0.002-0.596,0.014-0.891c0.007-0.172,0.026-0.352,0.078-0.511
		c0.172-0.509,0.127-1.074,0.387-1.562c0.032-0.059-0.009-0.167-0.038-0.246c-0.158-0.436-0.002-0.944-0.297-1.348
		c-0.01-0.012-0.004-0.033-0.004-0.062c0.043-0.058,0.089-0.128,0.135-0.194c-0.091-0.117-0.172-0.228-0.324-0.425
		c0.169,0.088,0.228,0.117,0.29,0.149c0.111-0.447,0.087-0.862-0.163-1.276c-0.189-0.305-0.332-0.652-0.444-0.994
		c-0.153-0.476-0.307-0.938-0.569-1.38c-0.319-0.524-0.722-0.836-1.314-0.925c-0.377-0.057-0.755-0.118-1.128-0.173
		c-0.123,0.061-0.246,0.121-0.366,0.179c-0.081-0.036-0.153-0.053-0.204-0.097c-0.67-0.514-1.409-0.521-2.191-0.341
		c-0.23,0.054-0.487,0.093-0.713,0.046c-0.279-0.056-0.509,0.017-0.792,0.149c0.166,0.028,0.289,0.048,0.405,0.066
		c0,0.036,0,0.064-0.004,0.1c-0.303,0.019-0.605,0.038-0.951,0.059c-0.184,0.169-0.423,0.379-0.646,0.595
		c-0.108,0.108-0.21,0.228-0.302,0.351c-0.399,0.529-0.497,1.187-0.73,1.782c-0.139,0.352-0.106,0.779-0.268,1.109
		c-0.178,0.354-0.123,0.73-0.229,1.086c-0.085,0.277-0.184,0.603-0.057,0.938c0.057,0.15-0.022,0.396-0.119,0.55
		c-0.204,0.326-0.286,0.62-0.012,0.946c0.037,0.042,0.025,0.13,0.033,0.199c0.064,0.411,0.143,0.821,0.183,1.236
		c0.043,0.41,0.095,0.829,0.052,1.234c-0.024,0.216-0.052,0.41,0.036,0.601c0.111,0.241,0.242,0.475,0.376,0.733
		c-0.377-0.121-0.641-0.387-0.915-0.644c0.091,0.631,0.522,0.899,1.096,1.03c-0.045,0.259-0.345,0.426-0.243,0.744
		c0.125-0.074,0.225-0.132,0.288-0.166c0.119,0.22,0.194,0.437,0.333,0.589c0.143,0.16,0.312,0.346,0.3,0.571
		c-0.017,0.223-0.184,0.408-0.333,0.56c-0.023,0.024-0.047,0.051-0.071,0.076c-0.123,0.124-0.241,0.253-0.349,0.39
		c-0.128,0.165-0.219,0.362-0.359,0.519c-0.215,0.234-0.461,0.435-0.685,0.661c-0.183,0.182-0.392,0.34-0.598,0.503
		c-0.191,0.149-0.382,0.305-0.59,0.425c-0.684,0.387-1.372,0.764-2.064,1.135c-0.539,0.287-1.087,0.555-1.632,0.83
		c-0.343,0.174-0.69,0.335-1.028,0.519c-0.668,0.373-1.314,0.792-2.007,1.126c-0.418,0.203-0.701,0.489-0.916,0.885
		c-0.449,0.82-0.663,1.718-0.846,2.626c-0.132,0.655-0.166,1.326,0.017,1.967c0.127,0.443,0.002,0.777-0.187,1.136
		c-0.135,0.266-0.274,0.533-0.354,0.815c-0.171,0.613-0.173,1.24-0.028,1.863c0.108,0.472,0.201,0.95,0.302,1.433
		c-0.565,0.584-0.633,1.312-0.499,2.073c0.088,0.472,0.074,0.921-0.087,1.375c-0.048,0.131-0.094,0.268-0.107,0.402
		c-0.063,0.625-0.212,1.231-0.344,1.841c-0.105,0.475-0.165,0.964-0.181,1.444c-0.013,0.483,0.058,0.972,0.082,1.459
		c0.006,0.1-0.032,0.204-0.032,0.31c-0.004,0.624-0.034,1.252,0.013,1.872c0.042,0.612,0.24,1.189,0.522,1.742
		c0.123,0.247,0.158,0.537,0.25,0.797c0.277,0.81,0.538,1.625,0.849,2.417c0.363,0.921,0.856,1.794,1.075,2.776
		c0.11,0.49,0.328,0.968,0.36,1.462c0.034,0.502,0.213,0.909,0.477,1.304c0.123,0.188,0.259,0.367,0.338,0.475
		c0.052,0.381,0.018,0.717,0.156,0.954c0.231,0.391,0.323,0.79,0.311,1.227c-0.033,1.362-0.066,2.724-0.105,4.085
		c-0.011,0.329-0.062,0.658-0.084,0.987c-0.009,0.151-0.002,0.302-0.002,0.498c0.72-0.148,1.372-0.287,2.038-0.427
		c0.052,1.117,0.123,2.18,0.144,3.237c0.029,1.433-0.023,2.866,0.114,4.295c0.004,0.052-0.003,0.107,0.007,0.155
		c0.127,0.614,0.193,1.228,0.098,1.853c-0.034,0.221-0.081,0.442-0.103,0.667c-0.047,0.469-0.08,0.935-0.116,1.404
		c-0.068,0.868-0.17,1.733-0.196,2.602c-0.031,1.208-0.011,2.415-0.002,3.625c0.005,0.361,0.066,0.725,0.087,1.088
		c0.012,0.175,0.005,0.351-0.007,0.525c-0.021,0.275-0.078,0.555-0.075,0.825c0.002,0.279,0.08,0.555,0.089,0.832
		c0.032,0.768,0.032,1.53,0.091,2.299c0.102,1.408,0.092,2.828,0.124,4.245c0.012,0.523-0.012,1.048,0.019,1.574
		c0.046,0.747,0.164,1.487,0.184,2.234c0.022,0.896,0.121,1.77,0.4,2.623c0.219,0.671,0.311,1.354,0.206,2.087
		c-0.258,0.179-0.558,0.381-0.582,0.74c-0.054,0.823-0.031,1.63,0.439,2.373c0.291,0.468,0.593,0.951,0.725,1.491
		c0.123,0.501,0.2,0.994-0.132,1.505c-0.186,0.291-0.207,0.739,0.172,1.043c0.27,0.216,0.423,0.537,0.454,0.857
		c0.066,0.68,0.446,1.095,1.032,1.331c1.017,0.41,2.05,0.787,3.078,1.174c0.605,0.235,1.328,0.358,1.976,0.307
		c0.77-0.06,1.489-0.772,1.712-1.494c0.192-0.607-0.345-1.155-0.31-1.776c0.016-0.326-0.096-0.604-0.254-0.891
		c-0.486-0.864-0.944-1.742-1.405-2.603c0.075-0.245,0.122-0.447,0.198-0.637c0.144-0.354,0.322-0.693,0.462-1.051
		c0.22-0.583,0.389-1.192,0.645-1.766c0.163-0.358,0.196-0.721,0.133-1.075c-0.168-0.953-0.347-1.912-0.67-2.837
		c-0.112-0.321-0.287-0.582-0.513-0.836c-0.507-0.575-0.997-1.168-1.219-1.932c0.298-1.045,0.449-2.104,0.432-3.197
		c-0.012-0.836-0.057-1.673,0.078-2.511c0.092-0.562,0.03-1.145,0.105-1.717c0.06-0.479,0.16-0.921,0.379-1.348
		c0.587-1.158,0.901-2.406,1.224-3.657c0.077-0.303,0.162-0.604,0.245-0.906c0.033,0.008,0.069,0.011,0.102,0.017
		c0.045,0.393,0.062,0.782-0.005,1.182c-0.031,0.187-0.024,0.378-0.031,0.565c-0.004,0.118-0.002,0.235-0.009,0.35
		c-0.044,0.538-0.108,1.073-0.119,1.612c-0.009,0.379,0.095,0.765,0.083,1.146c-0.016,0.616,0.163,1.258-0.186,1.844
		c0,0.732-0.037,1.47,0.014,2.202c0.057,0.881,0.22,1.756,0.281,2.641c0.067,1.014,0.357,1.963,0.823,2.837
		c0.271,0.514,0.374,0.999,0.34,1.551c-0.008,0.135-0.041,0.274-0.053,0.412c-0.016,0.257-0.051,0.523-0.034,0.781
		c0.054,0.691,0.15,1.379,0.185,2.071c0.032,0.559,0.01,1.123,0.005,1.686c0,0.396,0.048,0.798-0.165,1.173
		c-0.063,0.113-0.03,0.276-0.038,0.413c-0.013,0.179,0.019,0.367-0.045,0.521c-0.211,0.521,0.142,0.777,0.574,0.896
		c0.765,0.217,1.554,0.264,2.331,0.288c1.059,0.028,2.123,0.043,3.19-0.059c0.825-0.081,1.669,0.065,2.505,0.11
		c0.033,0.003,0.065,0.026,0.1,0.03c1.08,0.205,2.155,0.4,3.264,0.371c1.013-0.026,2.029,0.001,3.046-0.016
		c0.47-0.011,0.936-0.068,1.406-0.121c0.288-0.034,0.614-0.182,0.904-0.401c0.615-0.464,1.053-1.237,0.586-1.898
		C42.959,111.014,42.675,110.628,42.394,110.571"/>
</g>
</svg>
