<?xml version="1.0" encoding="utf-8"?>
<!-- Generator: Adobe Illustrator 16.0.0, SVG Export Plug-In . SVG Version: 6.00 Build 0)  -->
<!DOCTYPE svg PUBLIC "-//W3C//DTD SVG 1.1//EN" "http://www.w3.org/Graphics/SVG/1.1/DTD/svg11.dtd">
<svg version="1.1" id="Layer_1" xmlns="http://www.w3.org/2000/svg" xmlns:xlink="http://www.w3.org/1999/xlink" x="0px" y="0px"
	 width="164px" height="131px" viewBox="0 0 164 131" enable-background="new 0 0 164 131" xml:space="preserve">
<g>
	<path fill="#FFFFFF" d="M128.463,108.996h-68.32c-0.341,0-0.653-0.191-0.808-0.495L44.22,78.876
		c-0.146-0.288-0.129-0.631,0.045-0.902l5.441-8.464c0.167-0.26,0.455-0.417,0.763-0.417h87.666c0.309,0,0.596,0.157,0.763,0.417
		l5.441,8.464c0.175,0.271,0.192,0.615,0.045,0.903l-15.113,29.625C129.116,108.805,128.804,108.996,128.463,108.996z
		 M60.699,107.182h67.208l14.624-28.666l-4.892-7.609H50.964l-4.891,7.609L60.699,107.182z"/>
</g>
<path fill="#FFFFFF" d="M137.934,79.976c-0.306,0-0.605-0.155-0.776-0.436l-2.556-4.199H53.397l-2.556,4.199
	c-0.26,0.427-0.817,0.563-1.247,0.303c-0.428-0.261-0.563-0.819-0.303-1.247l2.821-4.635c0.165-0.271,0.458-0.436,0.775-0.436
	h82.224c0.316,0,0.61,0.165,0.775,0.436l2.821,4.635c0.26,0.428,0.125,0.986-0.303,1.247
	C138.257,79.933,138.094,79.976,137.934,79.976z"/>
<g>
	<path d="M45.046,108.653c-0.488-0.104-0.958-0.267-1.441-0.379c-0.556-0.13-1.136-0.044-1.692-0.162
		c-0.23-0.049-0.448-0.153-0.683-0.178c-0.245-0.023-0.449,0.122-0.688,0.111c-0.327-0.012-0.633-0.161-0.964-0.143
		c-0.303-0.301-0.587-0.673-0.952-0.922c-0.352-0.241-0.466-0.698-0.883-0.849c-0.148-0.365-0.473-0.544-0.768-0.76
		c-0.263-0.194-0.426-0.443-0.433-0.796c-0.007-0.417-0.051-0.835-0.11-1.246c-0.051-0.361-0.075-0.751-0.237-1.065
		c-0.462-0.889-0.597-1.861-0.675-2.819c-0.116-1.461-0.114-2.934-0.118-4.401c-0.004-1.132,0.059-2.266,0.101-3.4
		c0.007-0.151,0.054-0.309,0.103-0.456c0.15-0.451,0.234-0.908,0.209-1.388c-0.013-0.26-0.034-0.535,0.03-0.784
		c0.288-1.114,0.326-2.266,0.481-3.399c0.122-0.877,0.167-1.766,0.216-2.651c0.054-1.012,0.08-2.023,0.111-3.035
		c0.011-0.4,0.023-0.807-0.003-1.209c-0.055-0.809,0.154-1.589,0.255-2.383c0.091-0.703,0.186-1.41,0.28-2.117
		c0.007-0.048,0.031-0.093,0.05-0.151c0.137-0.026,0.271-0.051,0.301-0.057c0.228-0.206,0.371-0.362,0.54-0.483
		c0.657-0.465,1.271-0.976,1.839-1.549c0.334-0.34,0.534-0.709,0.639-1.17c0.128-0.558,0.209-1.131,0.495-1.644
		c0.152-0.274,0.144-0.56,0.024-0.86c-0.076-0.187-0.076-0.405-0.115-0.609c-0.024-0.121-0.052-0.236-0.086-0.352
		c-0.077-0.265-0.161-0.525-0.246-0.804c0.426-0.178,0.339-0.51,0.309-0.823c-0.024-0.26-0.072-0.518-0.07-0.776
		c0.001-0.205,0.103-0.413,0.087-0.615c-0.053-0.697,0.093-1.378,0.034-2.082C40.875,60.944,41,59.63,40.873,58.32
		c-0.11-1.127-0.017-2.265-0.096-3.405c-0.107-1.531,0.011-3.075-0.123-4.61c-0.069-0.798-0.073-1.601-0.12-2.402
		c-0.024-0.451-0.07-0.902-0.109-1.352c-0.064-0.745-0.136-1.489-0.196-2.232c-0.046-0.573-0.06-1.147-0.12-1.722
		c-0.085-0.81-0.202-1.619-0.298-2.429c-0.08-0.672-0.135-1.349-0.229-2.019c-0.157-1.135-0.337-2.266-0.506-3.397
		c-0.039-0.258-0.093-0.514-0.106-0.775c-0.043-0.904-0.157-1.802-0.339-2.688c-0.138-0.667-0.413-1.24-1.157-1.48
		c-0.425-0.139-0.815-0.391-1.216-0.603c-0.88-0.464-1.739-0.974-2.637-1.4c-0.456-0.218-0.924-0.404-1.394-0.587
		c-0.329-0.127-0.678-0.213-1.001-0.351c-0.179-0.078-0.308-0.174-0.372-0.302c-0.051-0.102-0.063-0.226-0.031-0.378
		c0.046-0.221,0.167-0.453,0.13-0.659c-0.095-0.541,0.16-1.023,0.181-1.537c0.016-0.407,0.391-0.613,0.509-0.962
		c0.043-0.126,0.117-0.255,0.212-0.348c0.248-0.243,0.328-0.529,0.231-0.851c-0.068-0.227-0.086-0.439-0.008-0.652
		c0.595-0.279,0.825-0.569,0.887-1.177c0.03-0.298,0.002-0.597,0.016-0.894c0.009-0.17,0.024-0.351,0.078-0.51
		c0.173-0.509,0.126-1.073,0.387-1.561c0.032-0.058-0.01-0.168-0.038-0.246c-0.159-0.437-0.002-0.945-0.299-1.347
		c-0.008-0.013-0.001-0.034-0.001-0.063c0.041-0.059,0.088-0.128,0.134-0.196c-0.09-0.115-0.174-0.225-0.324-0.423
		c0.168,0.087,0.229,0.116,0.29,0.147c0.11-0.445,0.087-0.861-0.165-1.273c-0.188-0.308-0.33-0.652-0.441-0.997
		c-0.155-0.476-0.307-0.938-0.573-1.378c-0.317-0.523-0.719-0.837-1.311-0.927c-0.378-0.056-0.755-0.115-1.129-0.172
		c-0.125,0.06-0.247,0.122-0.366,0.181c-0.081-0.037-0.152-0.055-0.204-0.097c-0.67-0.515-1.409-0.523-2.189-0.343
		c-0.232,0.055-0.487,0.092-0.713,0.047c-0.282-0.056-0.51,0.017-0.794,0.147c0.167,0.028,0.287,0.05,0.406,0.067
		c-0.002,0.035-0.003,0.065-0.004,0.1c-0.302,0.02-0.605,0.037-0.952,0.06c-0.186,0.17-0.421,0.378-0.645,0.595
		c-0.111,0.107-0.211,0.228-0.304,0.348c-0.399,0.532-0.496,1.188-0.73,1.783c-0.139,0.352-0.104,0.78-0.268,1.11
		c-0.177,0.355-0.122,0.73-0.229,1.087c-0.084,0.277-0.181,0.602-0.056,0.938c0.056,0.151-0.022,0.396-0.119,0.55
		c-0.205,0.325-0.286,0.62-0.013,0.944c0.037,0.046,0.025,0.134,0.036,0.201c0.062,0.412,0.14,0.823,0.181,1.237
		c0.042,0.41,0.095,0.828,0.051,1.233c-0.023,0.216-0.051,0.411,0.037,0.602c0.111,0.241,0.241,0.474,0.375,0.732
		c-0.378-0.12-0.64-0.388-0.913-0.644c0.091,0.633,0.522,0.901,1.095,1.032c-0.046,0.259-0.346,0.423-0.244,0.743
		c0.125-0.072,0.227-0.133,0.289-0.166c0.12,0.22,0.192,0.437,0.332,0.591c0.142,0.157,0.313,0.345,0.3,0.568
		c-0.015,0.225-0.183,0.409-0.331,0.562c-0.024,0.024-0.048,0.05-0.071,0.074c-0.122,0.124-0.243,0.253-0.349,0.39
		c-0.129,0.165-0.219,0.363-0.36,0.519c-0.215,0.233-0.461,0.435-0.685,0.661c-0.184,0.183-0.393,0.342-0.598,0.505
		c-0.192,0.148-0.381,0.305-0.591,0.423c-0.684,0.388-1.371,0.767-2.064,1.137c-0.54,0.288-1.087,0.555-1.632,0.83
		c-0.342,0.172-0.691,0.333-1.024,0.519c-0.671,0.374-1.319,0.792-2.008,1.125c-0.419,0.206-0.705,0.49-0.92,0.885
		c-0.448,0.821-0.662,1.718-0.844,2.626c-0.133,0.656-0.168,1.325,0.017,1.966c0.128,0.443,0.002,0.778-0.186,1.14
		c-0.137,0.263-0.277,0.531-0.356,0.812c-0.171,0.614-0.172,1.239-0.028,1.864c0.108,0.474,0.2,0.95,0.301,1.433
		c-0.564,0.586-0.632,1.312-0.496,2.072c0.086,0.474,0.072,0.923-0.09,1.375c-0.047,0.131-0.093,0.268-0.107,0.404
		c-0.062,0.624-0.21,1.229-0.344,1.842c-0.103,0.474-0.165,0.961-0.18,1.442c-0.014,0.485,0.056,0.973,0.082,1.458
		c0.006,0.102-0.033,0.207-0.033,0.311c-0.003,0.625-0.034,1.254,0.013,1.874c0.045,0.61,0.242,1.189,0.523,1.742
		c0.124,0.244,0.16,0.535,0.251,0.797c0.277,0.808,0.535,1.623,0.848,2.416c0.364,0.922,0.854,1.796,1.073,2.776
		c0.111,0.491,0.331,0.969,0.363,1.463c0.033,0.503,0.212,0.909,0.476,1.304c0.124,0.187,0.259,0.368,0.335,0.475
		c0.056,0.382,0.021,0.716,0.159,0.952c0.231,0.392,0.323,0.792,0.312,1.229c-0.032,1.363-0.066,2.723-0.106,4.086
		c-0.012,0.329-0.059,0.658-0.082,0.986c-0.011,0.15-0.002,0.302-0.002,0.501c0.719-0.152,1.371-0.288,2.036-0.429
		c0.052,1.116,0.125,2.179,0.146,3.237c0.026,1.432-0.025,2.866,0.111,4.295c0.005,0.051-0.002,0.106,0.008,0.155
		c0.127,0.613,0.192,1.228,0.096,1.853c-0.033,0.222-0.079,0.442-0.101,0.668c-0.046,0.467-0.079,0.936-0.117,1.405
		c-0.067,0.865-0.168,1.731-0.194,2.6c-0.033,1.208-0.013,2.417-0.002,3.624c0.003,0.363,0.064,0.727,0.087,1.091
		c0.012,0.174,0.006,0.349-0.008,0.523c-0.02,0.276-0.078,0.554-0.075,0.828c0.002,0.277,0.08,0.553,0.091,0.829
		c0.031,0.768,0.031,1.53,0.089,2.3c0.104,1.409,0.093,2.828,0.124,4.244c0.011,0.523-0.01,1.051,0.021,1.574
		c0.045,0.747,0.162,1.489,0.181,2.235c0.023,0.896,0.122,1.77,0.402,2.623c0.22,0.672,0.31,1.355,0.206,2.089
		c-0.259,0.177-0.558,0.379-0.583,0.738c-0.054,0.824-0.028,1.632,0.438,2.374c0.292,0.469,0.594,0.949,0.727,1.492
		c0.121,0.501,0.197,0.992-0.131,1.503c-0.189,0.292-0.206,0.741,0.172,1.044c0.267,0.216,0.423,0.536,0.454,0.857
		c0.064,0.68,0.445,1.094,1.029,1.33c1.019,0.411,2.052,0.788,3.08,1.176c0.606,0.233,1.328,0.357,1.976,0.306
		c0.769-0.059,1.488-0.771,1.713-1.495c0.189-0.607-0.347-1.155-0.313-1.776c0.019-0.326-0.095-0.603-0.253-0.888
		c-0.483-0.866-0.943-1.745-1.404-2.605c0.075-0.243,0.121-0.445,0.198-0.637c0.145-0.354,0.322-0.691,0.459-1.049
		c0.224-0.586,0.393-1.194,0.649-1.767c0.161-0.359,0.194-0.721,0.133-1.074c-0.169-0.957-0.349-1.913-0.671-2.839
		c-0.112-0.321-0.287-0.582-0.513-0.837c-0.508-0.574-0.997-1.167-1.217-1.932c0.296-1.045,0.447-2.104,0.43-3.196
		c-0.013-0.835-0.057-1.673,0.079-2.511c0.091-0.562,0.026-1.145,0.102-1.718c0.063-0.478,0.163-0.92,0.38-1.347
		c0.589-1.158,0.903-2.408,1.225-3.658c0.078-0.303,0.163-0.604,0.245-0.904c0.035,0.006,0.069,0.011,0.104,0.017
		c0.043,0.393,0.06,0.781-0.006,1.18c-0.032,0.186-0.025,0.378-0.033,0.565c-0.004,0.117-0.002,0.235-0.009,0.35
		c-0.042,0.538-0.107,1.074-0.117,1.612c-0.007,0.381,0.095,0.767,0.084,1.146c-0.019,0.617,0.161,1.26-0.189,1.843
		c0.001,0.734-0.036,1.472,0.014,2.203c0.058,0.884,0.221,1.757,0.281,2.642c0.068,1.012,0.358,1.964,0.824,2.839
		c0.271,0.512,0.375,0.999,0.34,1.548c-0.009,0.139-0.043,0.275-0.052,0.412c-0.017,0.261-0.052,0.523-0.033,0.782
		c0.052,0.691,0.147,1.38,0.186,2.072c0.03,0.56,0.008,1.122,0.004,1.684c-0.001,0.398,0.046,0.8-0.167,1.177
		c-0.062,0.111-0.029,0.273-0.039,0.411c-0.012,0.177,0.02,0.366-0.043,0.521c-0.212,0.521,0.141,0.776,0.575,0.896
		c0.764,0.217,1.551,0.264,2.327,0.287c1.061,0.031,2.124,0.044,3.193-0.059c0.823-0.08,1.668,0.065,2.504,0.111
		c0.034,0.002,0.066,0.025,0.099,0.031c1.079,0.204,2.156,0.399,3.264,0.369c1.016-0.025,2.032,0.003,3.047-0.017
		c0.47-0.009,0.938-0.064,1.405-0.118c0.29-0.035,0.618-0.186,0.908-0.403c0.613-0.462,1.053-1.237,0.583-1.898
		C45.612,109.098,45.33,108.711,45.046,108.653"/>
</g>
</svg>
