<?xml version="1.0" encoding="utf-8"?>
<!-- Generator: Adobe Illustrator 16.0.0, SVG Export Plug-In . SVG Version: 6.00 Build 0)  -->
<!DOCTYPE svg PUBLIC "-//W3C//DTD SVG 1.1//EN" "http://www.w3.org/Graphics/SVG/1.1/DTD/svg11.dtd">
<svg version="1.1" id="Layer_1" xmlns="http://www.w3.org/2000/svg" xmlns:xlink="http://www.w3.org/1999/xlink" x="0px" y="0px"
	 width="312px" height="73px" viewBox="0 0 312 73" enable-background="new 0 0 312 73" xml:space="preserve">
<g>
	<path fill="#E72A84" d="M20.163,32.979c0.093-0.24,0.163-0.43,0.209-0.567c0.046-0.136,0.083-0.273,0.113-0.409
		c-0.003-0.068,0.003-0.136,0.018-0.205c0.015-0.068,0.038-0.137,0.069-0.205l-6.603,0.23c-1.287,0.045-2.19-0.085-2.709-0.389
		s-0.819-0.641-0.9-1.012c-0.001-0.033-0.002-0.06-0.002-0.076c-0.001-0.018-0.002-0.042-0.003-0.076
		c-0.001-0.033-0.002-0.058-0.003-0.075c0-0.017-0.001-0.043-0.002-0.077c0.072-0.85,0.188-1.65,0.348-2.402
		c0.16-0.75,0.329-1.485,0.508-2.204c0.06-0.206,0.113-0.402,0.157-0.59c0.044-0.188,0.096-0.387,0.158-0.59
		c0.145-0.685,0.482-1.213,1.012-1.589c0.529-0.374,1.132-0.572,1.81-0.596l19-0.562c1.592-0.057,2.833,0.046,3.724,0.302
		c0.89,0.258,1.367,0.825,1.432,1.704c0.002,0.067,0.005,0.152,0.009,0.255c0.003,0.101-0.011,0.203-0.04,0.306
		c0.003,0.102-0.011,0.204-0.04,0.307c-0.031,0.103-0.043,0.223-0.039,0.357c-0.083,0.545-0.199,1.101-0.348,1.665
		c-0.151,0.565-0.302,1.087-0.454,1.566c-0.152,0.515-0.306,0.97-0.461,1.363c-0.157,0.396-0.28,0.715-0.374,0.955
		c-0.12,0.445-0.39,0.734-0.809,0.866c-0.419,0.134-0.866,0.209-1.34,0.227c-0.135,0.004-0.271,0.009-0.406,0.014
		c-0.135,0.005-0.254-0.008-0.357-0.039c-0.136,0.005-0.272,0.01-0.406,0.015c-0.136,0.004-0.272,0.01-0.407,0.015l-8.388,0.089
		c0.688,0.282,1.222,0.535,1.603,0.758c0.172,0.062,0.336,0.141,0.491,0.237c0.157,0.097,0.286,0.177,0.39,0.24
		c0.035,0.033,0.07,0.058,0.105,0.072c0.033,0.018,0.068,0.041,0.104,0.073c0.069,0.032,0.129,0.063,0.181,0.096
		c0.052,0.032,0.095,0.065,0.131,0.097c0.069,0.065,0.148,0.114,0.234,0.145c0.085,0.031,0.163,0.08,0.233,0.144
		c0.311,0.159,0.588,0.337,0.833,0.531c0.243,0.194,0.406,0.478,0.487,0.848c0.001,0.033,0.01,0.067,0.029,0.101
		c0.018,0.033,0.028,0.067,0.029,0.101c0.001,0.034,0.002,0.068,0.003,0.102c0.002,0.035,0.003,0.068,0.004,0.102
		c0.007,0.203-0.02,0.408-0.08,0.613c-0.061,0.205-0.123,0.394-0.184,0.566l0.002,0.051c-0.031,0.103-0.061,0.205-0.091,0.308
		c-0.031,0.104-0.061,0.206-0.091,0.309l-5.709,22.932c-0.03,0.103-0.052,0.197-0.066,0.282c-0.015,0.085-0.02,0.161-0.018,0.229
		c-0.085,0.479-0.248,0.892-0.49,1.238c-0.243,0.347-0.838,0.554-1.784,0.621c-0.034,0.002-0.085,0.003-0.153,0.006
		c-0.034,0.001-0.068,0.002-0.101,0.003c-0.034,0.001-0.068,0.003-0.102,0.004c-1.287,0.045-2.517-0.013-3.693-0.176
		c-1.175-0.163-2.158-0.399-2.949-0.711c-0.379-0.156-0.64-0.351-0.783-0.583c-0.144-0.231-0.219-0.466-0.228-0.704
		c-0.007-0.203,0.011-0.415,0.054-0.637s0.095-0.437,0.156-0.642c0.029-0.103,0.051-0.196,0.066-0.281
		c0.014-0.086,0.036-0.162,0.068-0.232c-0.041-0.202,0.274-1.611,0.946-4.229c0.671-2.616,1.428-5.466,2.27-8.547
		c0.028-0.136,0.058-0.272,0.087-0.408c0.029-0.138,0.059-0.258,0.089-0.36c0.781-2.875,1.512-5.502,2.191-7.883
		c0.68-2.38,1.098-3.742,1.256-4.086L20.163,32.979z"/>
	<path fill="#E72A84" d="M41.543,24.858c0.029-0.135,0.066-0.28,0.112-0.436c0.045-0.154,0.099-0.316,0.161-0.489
		c0.031-0.068,0.063-0.137,0.094-0.206c0.032-0.069,0.062-0.155,0.093-0.258c0.094-0.24,0.187-0.473,0.281-0.697
		c0.094-0.223,0.173-0.369,0.239-0.439c0.254-0.483,0.573-0.816,0.956-0.999c0.383-0.184,0.812-0.283,1.287-0.301
		c0.067-0.002,0.135-0.004,0.203-0.007c0.068-0.002,0.135-0.004,0.203-0.007c0.069,0.032,0.137,0.046,0.205,0.044
		s0.135-0.005,0.203-0.007c0.272,0.025,0.656,0.078,1.15,0.163c0.494,0.084,1.033,0.218,1.616,0.401
		c0.754,0.245,1.453,0.603,2.097,1.07c0.644,0.47,0.979,1.077,1.005,1.821c0.002,0.068,0.004,0.127,0.006,0.178
		s-0.014,0.096-0.046,0.129c-0.025,0.272-0.099,0.58-0.222,0.923c-0.125,0.345-0.275,0.892-0.452,1.645l-2.514,9.546l6.349-0.222
		l2.972-12.462c0.089-0.375,0.171-0.692,0.247-0.948c0.075-0.258,0.143-0.488,0.204-0.694c0.062-0.172,0.116-0.343,0.16-0.514
		c0.045-0.171,0.098-0.36,0.158-0.565c0.059-0.273,0.297-0.476,0.717-0.609c0.419-0.133,0.899-0.21,1.441-0.229
		c0.204-0.007,0.407-0.005,0.611,0.005c0.204,0.011,0.407,0.012,0.61,0.004c0.306,0.023,0.613,0.063,0.92,0.12
		c0.307,0.059,0.596,0.115,0.87,0.173c0.069,0.032,0.146,0.055,0.231,0.068c0.085,0.015,0.162,0.021,0.23,0.019
		c0.821,0.209,1.593,0.47,2.316,0.783s1.167,0.892,1.331,1.733c0.002,0.034,0.003,0.085,0.006,0.153
		c0.002,0.067,0.004,0.134,0.007,0.201c0.008,0.238-0.001,0.483-0.025,0.739c-0.025,0.255-0.067,0.52-0.125,0.793l-0.628,2.411
		l-6.355,26.26c-0.06,0.24-0.11,0.48-0.153,0.719c-0.042,0.238-0.077,0.46-0.104,0.665c-0.025,0.271-0.066,0.544-0.124,0.817
		c-0.059,0.273-0.133,0.547-0.226,0.821c-0.062,0.172-0.139,0.353-0.235,0.543c-0.095,0.188-0.208,0.371-0.337,0.545
		c-0.064,0.104-0.128,0.208-0.192,0.312c-0.065,0.104-0.129,0.208-0.192,0.312c-0.356,0.521-0.738,0.975-1.148,1.362
		c-0.411,0.387-0.954,0.593-1.631,0.616c-0.543,0.02-1.034,0.027-1.475,0.026c-0.441-0.002-0.865-0.03-1.274-0.083
		c-0.373,0.013-0.763-0.025-1.173-0.112c-0.41-0.087-0.871-0.188-1.384-0.308c-0.377-0.088-0.647-0.308-0.811-0.658
		c-0.165-0.35-0.255-0.745-0.271-1.185c-0.008-0.237,0.001-0.466,0.027-0.688c0.026-0.221,0.053-0.434,0.08-0.638l2.873-10.933
		l0.555-3.021l-1.607,2.04c-0.033,0.036-0.073,0.097-0.121,0.182c-0.048,0.086-0.087,0.164-0.118,0.233l-0.049,0.053
		c-0.032,0.069-0.072,0.139-0.12,0.207c-0.049,0.07-0.09,0.122-0.122,0.157c0.001,0.034-0.007,0.06-0.023,0.077
		c-0.017,0.018-0.041,0.044-0.073,0.079c-0.195,0.244-0.501,0.482-0.916,0.718c-0.416,0.236-1.098,0.369-2.046,0.402
		c-0.339,0.012-0.72,0.008-1.144-0.012c-0.425-0.018-0.892-0.052-1.403-0.103l-2.316,10.862c-0.023,0.306-0.089,0.605-0.197,0.896
		c-0.109,0.292-0.243,0.561-0.404,0.802c-0.065,0.104-0.129,0.2-0.194,0.287s-0.113,0.165-0.144,0.233
		c-0.095,0.208-0.259,0.366-0.492,0.476c-0.234,0.109-0.773,0.197-1.618,0.26c-0.034,0.001-0.068,0.003-0.102,0.004
		c-0.034,0.001-0.068,0.003-0.102,0.004c-0.271,0.009-0.551,0.011-0.839,0.004c-0.288-0.007-0.568-0.023-0.84-0.048
		c-1.089-0.097-2.112-0.273-3.07-0.528c-0.958-0.254-1.529-0.564-1.711-0.932c-0.074-0.167-0.13-0.326-0.169-0.478
		s-0.061-0.295-0.066-0.43c-0.005-0.135-0.001-0.263,0.012-0.382c0.013-0.119,0.034-0.247,0.063-0.384l2.24-10.148l-0.673-0.332
		c-0.034,0.001-0.086-0.013-0.155-0.045c-0.069-0.031-0.12-0.047-0.154-0.046c-0.138-0.062-0.277-0.144-0.415-0.239
		c-0.139-0.097-0.228-0.213-0.266-0.347c-0.073-0.133-0.13-0.302-0.17-0.503c-0.042-0.202-0.066-0.422-0.074-0.658
		c-0.048-0.371-0.045-0.778,0.008-1.222c0.052-0.441,0.122-0.886,0.208-1.329c0.028-0.137,0.058-0.273,0.087-0.409
		c0.029-0.137,0.058-0.273,0.088-0.41c0.059-0.239,0.118-0.479,0.178-0.719c0.059-0.238,0.102-0.461,0.129-0.666
		c0.239-0.924,0.525-1.704,0.859-2.344c0.334-0.639,0.939-1.007,1.818-1.105l1.366-0.2L41.543,24.858z"/>
	<path fill="#E72A84" d="M75.387,21.236c0.056-0.34,0.444-0.634,1.164-0.88c0.721-0.245,1.521-0.384,2.402-0.414
		c0.033-0.001,0.059-0.002,0.076-0.003c0.016,0,0.042-0.001,0.076-0.002c0.305-0.012,0.61-0.014,0.915-0.008
		c0.306,0.007,0.577,0.039,0.817,0.1c0.103,0.029,0.214,0.052,0.333,0.063c0.119,0.015,0.23,0.035,0.333,0.065
		c0.921,0.171,1.769,0.422,2.544,0.75c0.774,0.329,1.227,0.933,1.36,1.809c0.001,0.034,0.002,0.068,0.003,0.102
		c0.001,0.034,0.003,0.067,0.004,0.102c0.009,0.272-0.025,0.519-0.102,0.741c-0.077,0.224-0.146,0.438-0.206,0.643l-0.049,0.054
		c-0.029,0.136-0.067,0.256-0.115,0.358c-0.047,0.104-0.086,0.226-0.114,0.36c-0.443,1.881-0.958,4.12-1.546,6.716
		c-0.588,2.598-1.188,5.28-1.804,8.048c-0.031,0.07-0.054,0.146-0.068,0.231s-0.037,0.163-0.068,0.231
		c-1.027,4.579-1.991,8.766-2.893,12.56c-0.902,3.796-1.446,5.899-1.635,6.312c-0.254,0.518-0.631,0.878-1.132,1.083
		c-0.501,0.202-1.057,0.316-1.666,0.337c-0.272,0.01-0.543,0.002-0.815-0.022c-0.273-0.024-0.561-0.048-0.867-0.071
		c-0.171-0.028-0.358-0.062-0.563-0.106c-0.205-0.045-0.393-0.08-0.564-0.108c-0.034,0.002-0.068-0.006-0.102-0.021
		c-0.035-0.017-0.069-0.023-0.102-0.021c-0.887-0.139-1.726-0.363-2.516-0.675c-0.791-0.312-1.321-0.938-1.591-1.878
		c-0.04-0.167-0.071-0.335-0.094-0.505c-0.023-0.169-0.037-0.338-0.043-0.507c-0.018-0.508,0.022-1.06,0.12-1.657
		c0.098-0.597,0.238-1.203,0.419-1.82c0.028-0.169,0.072-0.358,0.134-0.564c0.06-0.206,0.12-0.409,0.181-0.615
		c0.049-0.544,0.469-2.34,1.262-5.386c0.791-3.044,1.667-6.363,2.627-9.957c0.031-0.068,0.047-0.12,0.045-0.153
		c0.03-0.104,0.052-0.196,0.067-0.282c0.014-0.085,0.036-0.162,0.068-0.232c0.928-3.522,1.781-6.765,2.559-9.726
		c0.778-2.959,1.193-4.677,1.244-5.154L75.387,21.236z"/>
	<path fill="#E72A84" d="M112.867,57.611c-0.057,0.341-0.344,0.596-0.863,0.767c-0.52,0.172-1.169,0.271-1.948,0.298
		c-0.406,0.014-0.822,0.012-1.246-0.008c-0.425-0.018-0.858-0.054-1.3-0.106c-0.989-0.135-1.938-0.349-2.846-0.638
		c-0.908-0.291-1.607-0.648-2.096-1.071c-0.209-0.162-0.414-0.68-0.614-1.557c-0.201-0.873-0.403-1.833-0.609-2.877
		c-0.08-0.336-0.151-0.681-0.214-1.034c-0.063-0.354-0.118-0.684-0.162-0.986L98.44,37.67l-4.52,19.128
		c-0.058,0.274-0.117,0.529-0.176,0.769c-0.06,0.241-0.121,0.445-0.182,0.617c-0.186,0.515-0.404,0.828-0.654,0.938
		c-0.25,0.111-0.613,0.174-1.087,0.191c-0.17,0.006-0.355,0.012-0.558,0.02c-0.204,0.008-0.44,0.032-0.71,0.075
		c-0.034,0.001-0.076,0.002-0.127,0.004c-0.05,0.002-0.094,0.003-0.127,0.005c-0.067,0.036-0.125,0.056-0.176,0.058
		c-0.051,0.001-0.11,0.003-0.177,0.006c-0.305,0.01-0.67,0.006-1.095-0.013c-0.424-0.02-0.858-0.071-1.302-0.158
		c-0.852-0.14-1.633-0.383-2.339-0.731c-0.707-0.349-1.09-0.859-1.147-1.537c-0.009-0.235-0.008-0.458,0.002-0.661
		c0.01-0.203,0.029-0.39,0.057-0.562c-0.005-0.134,0.007-0.27,0.037-0.408c0.028-0.136,0.057-0.272,0.087-0.41l1.614-6.21
		l6.609-26.268c-0.001-0.034-0.002-0.06-0.002-0.076c-0.001-0.017,0.014-0.043,0.047-0.079c0.113-0.646,0.355-1.24,0.727-1.779
		c0.37-0.538,0.912-0.819,1.623-0.845c0.067-0.003,0.127-0.005,0.178-0.006c0.05-0.002,0.109-0.004,0.177-0.007
		c0.034-0.001,0.085,0.006,0.154,0.02c0.068,0.017,0.119,0.022,0.153,0.021c0.103,0.03,0.205,0.051,0.307,0.064
		c0.103,0.015,0.204,0.019,0.306,0.016c0.238,0.024,0.46,0.06,0.665,0.104c0.204,0.044,0.426,0.079,0.664,0.104
		c1.091,0.165,2.159,0.425,3.206,0.777c1.046,0.354,1.923,0.942,2.63,1.764c0.495,0.594,0.92,1.35,1.274,2.271
		c0.354,0.92,0.686,1.935,0.996,3.041c0.081,0.371,0.179,0.74,0.294,1.109c0.114,0.37,0.229,0.738,0.343,1.106
		c0.076,0.235,0.143,0.453,0.201,0.654s0.124,0.403,0.199,0.604c0.116,0.402,0.231,0.779,0.345,1.133
		c0.114,0.352,0.228,0.695,0.341,1.03c0.001,0.033,0.019,0.067,0.054,0.1c0.114,0.335,0.228,0.687,0.342,1.056
		c0.115,0.37,0.231,0.772,0.348,1.208l0.634-3.683c0.083-0.545,0.232-1.356,0.449-2.431c0.217-1.077,0.439-2.212,0.669-3.406
		c0.029-0.137,0.059-0.256,0.09-0.359c0.029-0.103,0.042-0.221,0.038-0.356c0.203-0.956,0.409-1.88,0.615-2.769
		s0.368-1.589,0.486-2.102c0.031-0.069,0.063-0.146,0.094-0.233c0.03-0.085,0.078-0.18,0.142-0.284
		c0.126-0.274,0.32-0.537,0.583-0.783c0.263-0.246,0.563-0.376,0.902-0.388c0.032-0.034,0.057-0.044,0.076-0.027
		c0.017,0.018,0.042,0.023,0.077,0.022c0.033-0.001,0.067-0.002,0.101-0.003c0.135-0.005,0.577,0.03,1.326,0.106
		c0.748,0.074,1.567,0.217,2.456,0.422c0.924,0.239,1.791,0.573,2.603,1.004c0.811,0.429,1.23,0.999,1.255,1.71
		c0.008,0.236-0.001,0.475-0.026,0.713c-0.026,0.238-0.069,0.46-0.129,0.666c-0.031,0.102-0.053,0.197-0.067,0.281
		c-0.014,0.086-0.036,0.179-0.066,0.281c-0.03,0.138-0.059,0.275-0.087,0.41c-0.03,0.138-0.059,0.291-0.086,0.461
		c-0.198,1.126-0.471,2.526-0.82,4.199c-0.348,1.673-0.729,3.399-1.141,5.176c-0.089,0.376-0.186,0.762-0.291,1.154
		c-0.105,0.394-0.201,0.796-0.288,1.206c-0.12,0.445-0.232,0.89-0.335,1.334s-0.216,0.872-0.336,1.283
		c-0.149,0.615-0.426,1.65-0.833,3.104c-0.407,1.456-0.836,2.988-1.289,4.598c-0.539,2.02-1.043,3.867-1.51,5.545
		c-0.467,1.678-0.698,2.585-0.693,2.72c0.001,0.034,0.002,0.059,0.003,0.076c0,0.017,0.001,0.042,0.002,0.076
		c0.006,0.17,0.02,0.33,0.043,0.481c0.021,0.152,0.051,0.278,0.089,0.378c0.002,0.068,0.013,0.135,0.033,0.202
		c0.018,0.068,0.03,0.135,0.032,0.202c0.036,0.068,0.055,0.126,0.057,0.177c0.002,0.051,0.004,0.11,0.006,0.177
		c0.001,0.034,0.003,0.076,0.005,0.127c0.001,0.052,0.003,0.111,0.006,0.179L112.867,57.611z"/>
	<path fill="#E72A84" d="M128.806,55.325c-0.031,0.103-0.052,0.214-0.065,0.333c-0.013,0.12-0.035,0.23-0.065,0.332
		c-0.088,0.377-0.203,0.737-0.343,1.081c-0.141,0.344-0.379,0.59-0.712,0.737c-0.033,0.035-0.1,0.054-0.202,0.058
		c-0.101,0.003-0.203,0.007-0.304,0.01c-0.237,0.01-0.534,0.002-0.891-0.02c-0.356-0.021-0.706-0.06-1.046-0.116
		c-0.137-0.028-0.256-0.049-0.359-0.062c-0.102-0.014-0.222-0.035-0.358-0.064c-0.307-0.057-0.597-0.107-0.87-0.148
		c-0.273-0.042-0.494-0.075-0.664-0.104c-0.204-0.026-0.418-0.062-0.64-0.104c-0.222-0.044-0.435-0.095-0.641-0.155
		c-0.717-0.145-1.377-0.359-1.98-0.644c-0.604-0.284-0.913-0.646-0.928-1.087c-0.002-0.066-0.004-0.108-0.004-0.126
		c-0.001-0.017-0.002-0.043-0.003-0.077c0.025-0.236,0.06-0.451,0.105-0.639c0.044-0.188,0.08-0.367,0.108-0.538
		c0.032-0.034,0.048-0.069,0.047-0.103c0.03-0.104,0.052-0.205,0.066-0.309c0.013-0.102,0.035-0.204,0.066-0.307l1.375-5.744
		l6.153-26.253c0.151-0.513,0.303-1.02,0.455-1.516c0.152-0.497,0.341-0.92,0.566-1.267c0.097-0.138,0.305-0.256,0.624-0.352
		c0.318-0.096,0.647-0.15,0.986-0.162c0.134-0.004,0.253-0.008,0.355-0.012c0.102-0.005,0.204,0.01,0.307,0.039
		c0.033-0.001,0.067-0.002,0.101-0.003c0.238,0.026,0.671,0.045,1.299,0.057c0.627,0.013,1.3,0.074,2.015,0.184
		c0.886,0.139,1.7,0.373,2.441,0.703c0.74,0.33,1.122,0.834,1.146,1.511c0.008,0.238-0.001,0.476-0.026,0.713
		c-0.026,0.239-0.069,0.478-0.128,0.717c-0.029,0.138-0.059,0.257-0.089,0.359c-0.03,0.103-0.06,0.223-0.089,0.359l-2.892,10.373
		l0.861-0.081c0.236-0.041,0.511-0.152,0.827-0.334c0.316-0.18,0.639-0.395,0.97-0.644c0.132-0.072,0.256-0.161,0.372-0.268
		c0.115-0.106,0.238-0.211,0.37-0.318c0.264-0.213,0.502-0.416,0.717-0.609c0.213-0.193,0.402-0.361,0.567-0.503
		c1.774-1.621,3.088-3.303,3.943-5.045c0.854-1.742,1.586-3.59,2.196-5.545c0.153-0.479,0.443-0.904,0.871-1.275
		c0.427-0.371,0.896-0.565,1.404-0.583c0.067-0.002,0.118-0.004,0.152-0.005c0.034-0.001,0.085,0.014,0.154,0.045
		c0.033-0.001,0.077,0.006,0.128,0.021c0.051,0.017,0.094,0.022,0.128,0.021c0.342,0.09,0.71,0.178,1.103,0.267
		c0.392,0.088,0.811,0.193,1.257,0.312c0.924,0.273,1.783,0.607,2.578,1.005c0.793,0.396,1.218,0.932,1.276,1.606
		c0.004,0.103-0.001,0.214-0.014,0.332c-0.013,0.119-0.051,0.247-0.114,0.386c-0.155,0.412-0.302,0.808-0.441,1.185
		c-0.14,0.378-0.288,0.756-0.444,1.134c-0.091,0.31-0.191,0.601-0.3,0.875c-0.11,0.276-0.209,0.55-0.301,0.824
		c-0.253,0.552-0.513,1.121-0.78,1.706c-0.268,0.586-0.578,1.19-0.929,1.812c-0.894,1.592-1.875,3.093-2.944,4.503
		c-1.07,1.409-2.164,2.61-3.282,3.598c-0.559,0.528-1.119,0.988-1.681,1.381c-0.563,0.393-1.111,0.718-1.644,0.973l-2.951,1.426
		c1.242,1.585,2.147,2.757,2.717,3.516c0.568,0.761,1.032,1.438,1.393,2.036c0.035,0.066,0.071,0.125,0.107,0.175
		c0.036,0.05,0.072,0.108,0.108,0.175c0.216,0.365,0.441,0.747,0.676,1.146c0.234,0.398,0.531,0.896,0.891,1.494
		c0.145,0.267,0.299,0.532,0.46,0.798c0.162,0.267,0.332,0.53,0.511,0.796c0.003,0.067,0.022,0.127,0.057,0.176
		c0.035,0.05,0.072,0.108,0.108,0.174c0.612,1.03,1.164,2.002,1.653,2.918c0.49,0.915,0.757,1.541,0.803,1.879l0.002,0.052
		l0.002,0.05c0.014,0.406-0.194,0.77-0.623,1.09c-0.43,0.32-0.894,0.624-1.393,0.913c-0.033,0.035-0.057,0.053-0.074,0.054
		c-0.017,0-0.042,0.019-0.074,0.053c-0.168,0.074-0.325,0.155-0.475,0.245c-0.149,0.09-0.291,0.189-0.422,0.296
		c-0.232,0.143-0.473,0.287-0.722,0.432c-0.249,0.143-0.491,0.288-0.722,0.432c-0.501,0.221-0.978,0.416-1.429,0.584
		c-0.452,0.168-0.814,0.257-1.085,0.268c-0.034,0.001-0.075,0.002-0.126,0.004c-0.051,0.002-0.094,0.003-0.128,0.005
		c-0.34-0.023-0.623-0.141-0.851-0.353c-0.228-0.213-0.414-0.452-0.559-0.718l-8.119-14.058L128.806,55.325z"/>
	<path fill="#E72A84" d="M178.748,28.145c0.688,0.113,1.311,0.355,1.869,0.729s0.867,0.883,0.924,1.529
		c0.016,0.41-0.064,0.856-0.234,1.34c-0.17,0.486-0.348,1.055-0.529,1.709c-0.063,0.173-0.116,0.337-0.162,0.492
		c-0.047,0.155-0.083,0.319-0.111,0.491c0.001,0.034-0.006,0.086-0.02,0.154c-0.016,0.069-0.021,0.12-0.021,0.153
		c0.001,0.035-0.015,0.086-0.046,0.155c0.004,0.103-0.002,0.198-0.016,0.283c-0.016,0.086-0.021,0.164-0.018,0.23
		c0.374-0.013,0.741-0.052,1.098-0.115c0.355-0.063,0.701-0.186,1.037-0.368c0.838-0.439,1.543-1.019,2.115-1.738
		s0.965-1.477,1.176-2.271c0.062-0.172,0.106-0.353,0.135-0.542c0.027-0.188,0.039-0.368,0.033-0.539
		c-0.002-0.033-0.002-0.059-0.004-0.076c0-0.018-0.002-0.042-0.002-0.076c-0.041-1.194-0.584-2.046-1.625-2.557
		c-1.043-0.509-2.332-0.754-3.867-0.734c-0.614,0.021-1.194,0.05-1.739,0.086c-0.546,0.037-1.07,0.148-1.576,0.337
		c-0.17,0.04-0.347,0.097-0.531,0.172c-0.186,0.076-0.362,0.166-0.528,0.274c0.103-0.003,0.188,0.012,0.258,0.043
		c0.068,0.03,0.138,0.063,0.207,0.095c0.175,0.096,0.393,0.217,0.654,0.362c0.26,0.144,0.752,0.289,1.475,0.435L178.748,28.145z
		 M171.934,29.509c-0.14-0.062-0.244-0.118-0.313-0.169c-0.071-0.049-0.14-0.088-0.209-0.119c-0.071-0.065-0.158-0.104-0.261-0.119
		c-0.103-0.014-0.307,0.02-0.611,0.099c-0.171,0.006-0.355,0.055-0.559,0.146c-0.201,0.093-0.42,0.194-0.654,0.306
		c-0.1,0.072-0.193,0.126-0.276,0.163c-0.084,0.037-0.177,0.075-0.278,0.112c-0.168,0.074-0.328,0.132-0.48,0.17
		c-0.15,0.04-0.312,0.062-0.482,0.067c-0.377,0.014-0.681-0.137-0.914-0.455c-0.232-0.314-0.408-0.676-0.523-1.082
		c-0.004-0.103-0.016-0.195-0.036-0.28c-0.021-0.084-0.03-0.178-0.035-0.28c-0.001-0.033-0.002-0.06-0.002-0.077
		c-0.001-0.017-0.002-0.042-0.003-0.077c-0.001-0.033-0.003-0.067-0.004-0.102c0.055-0.411,0.125-0.832,0.212-1.263
		c0.087-0.429,0.175-0.867,0.261-1.314c0.319-1.615,0.84-3.127,1.559-4.536c0.719-1.408,1.906-2.328,3.564-2.762
		c0.744-0.196,1.43-0.374,2.057-0.533c0.625-0.158,1.244-0.282,1.855-0.372c0.713-0.16,1.432-0.288,2.164-0.382
		c0.73-0.094,1.537-0.19,2.422-0.29c0.237-0.042,0.467-0.068,0.689-0.076c0.222-0.007,0.451-0.015,0.689-0.024
		c3.547-0.123,6.729,0.773,9.545,2.689c2.814,1.917,4.4,4.575,4.76,7.977c0.002,0.069,0.004,0.138,0.007,0.205
		c0.002,0.069,0.022,0.136,0.058,0.202c0.004,0.104,0.008,0.188,0.01,0.257s0.004,0.137,0.006,0.204
		c0.029,0.818-0.019,1.657-0.143,2.516c-0.123,0.856-0.322,1.734-0.599,2.632c-0.584,1.865-1.493,3.688-2.728,5.473
		c-1.236,1.784-2.771,3.307-4.604,4.566c-0.167,0.107-0.359,0.225-0.577,0.353c-0.217,0.128-0.443,0.264-0.676,0.407
		c-0.369,0.218-0.78,0.421-1.234,0.607c-0.455,0.187-0.9,0.373-1.338,0.558c-0.54,0.191-1.062,0.345-1.57,0.465
		c-0.509,0.12-0.968,0.188-1.377,0.202c-0.341,0.012-0.633-0.02-0.873-0.098c-0.242-0.076-0.435-0.181-0.574-0.313
		c-0.213-0.197-0.35-0.438-0.41-0.728c-0.062-0.287-0.115-0.585-0.159-0.891c-0.001-0.034-0.002-0.059-0.003-0.077
		c-0.001-0.017-0.001-0.043-0.004-0.076c-0.006-0.17-0.02-0.332-0.041-0.485c-0.023-0.153-0.055-0.297-0.092-0.432
		c-0.006-0.172-0.062-0.322-0.17-0.456c-0.106-0.132-0.213-0.247-0.319-0.347c-0.071-0.065-0.134-0.132-0.187-0.198
		s-0.099-0.134-0.135-0.2c-0.426,1.517-0.773,2.759-1.048,3.724c-0.032,0.07-0.056,0.148-0.069,0.233
		c-0.015,0.086-0.037,0.164-0.068,0.232c-0.09,0.379-0.178,0.759-0.268,1.137c-0.089,0.38-0.179,0.74-0.269,1.085
		c-0.089,0.413-0.185,0.843-0.288,1.29c-0.105,0.447-0.2,0.895-0.286,1.342c-0.263,1.272-0.485,2.483-0.667,3.634
		c-0.184,1.15-0.301,1.897-0.357,2.24c-0.023,0.308-0.17,0.527-0.438,0.654c-0.27,0.131-0.592,0.201-0.967,0.215
		c-0.17,0.006-0.35,0.004-0.537-0.008c-0.189-0.011-0.385-0.028-0.592-0.056c-0.172-0.028-0.342-0.048-0.515-0.059
		c-0.171-0.012-0.342-0.015-0.512-0.008c-0.172-0.027-0.36-0.047-0.565-0.058c-0.205-0.009-0.41-0.028-0.615-0.055
		c-1.098-0.099-2.094-0.286-2.991-0.562c-0.897-0.276-1.378-0.822-1.44-1.641c-0.002-0.068,0.004-0.154,0.018-0.256
		c0.013-0.104,0.035-0.206,0.065-0.311c0.147-0.652,0.41-1.942,0.787-3.867c0.376-1.927,0.817-3.974,1.322-6.142
		c0.146-0.688,0.293-1.35,0.442-1.988c0.148-0.636,0.297-1.264,0.446-1.885c0.151-0.551,0.302-1.137,0.451-1.757
		c0.147-0.62,0.315-1.239,0.498-1.861c0.03-0.103,0.062-0.197,0.092-0.284c0.031-0.085,0.046-0.181,0.042-0.283
		c0.454-1.654,1.062-3.793,1.824-6.414L171.934,29.509z"/>
	<path fill="#E72A84" d="M203.963,16.919c0.057-0.343,0.447-0.639,1.174-0.886c0.725-0.247,1.531-0.387,2.418-0.417
		c0.033-0.002,0.059-0.002,0.076-0.003c0.017-0.001,0.043-0.002,0.076-0.003c0.307-0.012,0.614-0.014,0.922-0.007
		c0.308,0.008,0.582,0.039,0.823,0.1c0.103,0.029,0.214,0.052,0.335,0.064c0.12,0.015,0.232,0.035,0.335,0.064
		c0.929,0.174,1.782,0.426,2.562,0.757c0.781,0.331,1.236,0.938,1.369,1.821c0.002,0.034,0.004,0.067,0.004,0.103
		c0.002,0.034,0.002,0.068,0.004,0.103c0.01,0.272-0.025,0.521-0.102,0.746c-0.078,0.226-0.147,0.439-0.207,0.646l-0.051,0.054
		c-0.029,0.138-0.068,0.259-0.115,0.362c-0.047,0.104-0.086,0.225-0.115,0.362c-0.446,1.894-0.965,4.148-1.557,6.764
		c-0.592,2.616-1.197,5.317-1.816,8.104c-0.032,0.069-0.055,0.147-0.068,0.232c-0.016,0.086-0.038,0.164-0.068,0.233
		c-1.035,4.611-2.007,8.828-2.914,12.649c-0.908,3.821-1.457,5.94-1.646,6.356c-0.256,0.521-0.635,0.885-1.141,1.09
		c-0.504,0.205-1.064,0.319-1.678,0.34c-0.273,0.01-0.547,0.002-0.82-0.021c-0.274-0.025-0.565-0.051-0.873-0.072
		c-0.172-0.029-0.361-0.064-0.567-0.108s-0.396-0.08-0.567-0.107c-0.035,0.001-0.068-0.007-0.103-0.022
		c-0.035-0.017-0.07-0.023-0.104-0.022c-0.893-0.14-1.736-0.365-2.533-0.68c-0.797-0.312-1.33-0.943-1.602-1.891
		c-0.041-0.168-0.072-0.338-0.095-0.508s-0.037-0.339-0.043-0.511c-0.019-0.512,0.022-1.067,0.121-1.67
		c0.098-0.6,0.239-1.212,0.422-1.832c0.028-0.171,0.071-0.361,0.134-0.568c0.061-0.207,0.122-0.414,0.184-0.621
		c0.049-0.547,0.472-2.355,1.27-5.422s1.68-6.409,2.646-10.028c0.03-0.068,0.047-0.121,0.045-0.155
		c0.031-0.104,0.053-0.197,0.067-0.283s0.037-0.163,0.069-0.233c0.934-3.549,1.793-6.813,2.576-9.796
		c0.783-2.98,1.201-4.71,1.254-5.19L203.963,16.919z"/>
	<path fill="#E72A84" d="M241.707,53.552c-0.057,0.343-0.346,0.601-0.869,0.772s-1.178,0.271-1.961,0.298
		c-0.409,0.016-0.828,0.013-1.256-0.007c-0.428-0.018-0.863-0.054-1.31-0.107c-0.995-0.136-1.95-0.35-2.864-0.643
		c-0.916-0.293-1.619-0.652-2.111-1.078c-0.211-0.164-0.418-0.685-0.618-1.566c-0.203-0.881-0.407-1.847-0.614-2.897
		c-0.08-0.339-0.152-0.687-0.215-1.043c-0.064-0.355-0.119-0.687-0.163-0.993l-2.547-12.817l-4.552,19.263
		c-0.06,0.276-0.118,0.534-0.178,0.775c-0.061,0.24-0.121,0.446-0.184,0.619c-0.188,0.52-0.406,0.834-0.658,0.945
		c-0.253,0.111-0.617,0.175-1.095,0.192c-0.171,0.006-0.358,0.012-0.562,0.019c-0.205,0.008-0.443,0.034-0.715,0.077
		c-0.035,0.001-0.078,0.002-0.129,0.004s-0.094,0.004-0.127,0.005c-0.068,0.037-0.127,0.057-0.178,0.058
		c-0.051,0.002-0.111,0.004-0.18,0.007c-0.307,0.01-0.674,0.006-1.101-0.014c-0.428-0.019-0.866-0.072-1.312-0.159
		c-0.859-0.14-1.645-0.386-2.356-0.736s-1.098-0.867-1.155-1.548c-0.009-0.238-0.008-0.46,0.002-0.666
		c0.01-0.204,0.029-0.394,0.058-0.565c-0.005-0.136,0.008-0.272,0.036-0.411c0.029-0.137,0.059-0.274,0.089-0.413l1.626-6.254
		l6.656-26.455c-0.002-0.032-0.002-0.059-0.004-0.076c0-0.017,0.016-0.042,0.049-0.078c0.113-0.652,0.357-1.25,0.731-1.792
		c0.373-0.542,0.919-0.826,1.634-0.852c0.068-0.003,0.129-0.005,0.18-0.007c0.051-0.001,0.111-0.004,0.18-0.006
		c0.033-0.001,0.084,0.006,0.154,0.021c0.068,0.015,0.119,0.021,0.154,0.02c0.104,0.03,0.207,0.052,0.31,0.065
		s0.205,0.019,0.308,0.016c0.239,0.026,0.463,0.061,0.67,0.104c0.205,0.044,0.43,0.08,0.67,0.105
		c1.098,0.166,2.174,0.428,3.228,0.783c1.054,0.356,1.937,0.949,2.647,1.776c0.5,0.598,0.926,1.359,1.285,2.286
		c0.355,0.926,0.689,1.948,1.002,3.064c0.082,0.372,0.18,0.745,0.295,1.115c0.115,0.372,0.231,0.743,0.346,1.114
		c0.076,0.237,0.145,0.456,0.203,0.659s0.125,0.406,0.201,0.607c0.116,0.406,0.231,0.787,0.346,1.141
		c0.115,0.354,0.23,0.702,0.345,1.038c0.001,0.034,0.019,0.068,0.054,0.1c0.115,0.338,0.229,0.692,0.346,1.064
		c0.115,0.372,0.231,0.778,0.349,1.217l0.64-3.71c0.084-0.549,0.233-1.365,0.451-2.448c0.219-1.084,0.443-2.226,0.674-3.43
		c0.029-0.137,0.059-0.258,0.09-0.361c0.03-0.104,0.045-0.223,0.039-0.359c0.205-0.963,0.412-1.893,0.619-2.788
		c0.208-0.895,0.371-1.601,0.49-2.116c0.031-0.07,0.062-0.148,0.094-0.234c0.031-0.087,0.079-0.182,0.145-0.286
		c0.125-0.277,0.322-0.541,0.587-0.789s0.567-0.378,0.907-0.391c0.033-0.035,0.059-0.045,0.076-0.027
		c0.018,0.017,0.043,0.023,0.078,0.021c0.033-0.001,0.068-0.002,0.102-0.003c0.137-0.005,0.582,0.031,1.336,0.107
		c0.754,0.075,1.578,0.219,2.474,0.425c0.931,0.242,1.804,0.578,2.621,1.011c0.817,0.432,1.239,1.006,1.265,1.722
		c0.008,0.24-0.002,0.479-0.026,0.719c-0.026,0.239-0.069,0.464-0.13,0.671c-0.031,0.103-0.055,0.197-0.067,0.282
		c-0.015,0.088-0.037,0.182-0.067,0.285c-0.029,0.139-0.059,0.276-0.088,0.413c-0.029,0.138-0.059,0.292-0.087,0.463
		c-0.198,1.136-0.474,2.544-0.825,4.229c-0.351,1.685-0.733,3.424-1.149,5.213c-0.089,0.379-0.187,0.767-0.292,1.163
		c-0.105,0.396-0.202,0.801-0.29,1.213c-0.121,0.448-0.234,0.896-0.337,1.344c-0.105,0.447-0.219,0.878-0.34,1.291
		c-0.149,0.62-0.428,1.664-0.838,3.129s-0.842,3.009-1.299,4.628c-0.543,2.035-1.05,3.896-1.52,5.584
		c-0.471,1.691-0.703,2.604-0.699,2.739c0.002,0.035,0.002,0.062,0.003,0.077c0.001,0.018,0.002,0.044,0.003,0.077
		c0.006,0.171,0.02,0.332,0.042,0.484c0.023,0.153,0.054,0.28,0.091,0.383c0.002,0.067,0.012,0.135,0.032,0.203
		c0.019,0.067,0.031,0.136,0.033,0.203c0.036,0.067,0.056,0.126,0.058,0.178c0.002,0.051,0.004,0.11,0.006,0.179
		c0,0.034,0.002,0.077,0.004,0.128s0.004,0.111,0.007,0.179L241.707,53.552z"/>
	<path fill="#E72A84" d="M257.76,51.249c-0.031,0.104-0.053,0.216-0.064,0.335c-0.015,0.121-0.035,0.231-0.066,0.336
		c-0.09,0.379-0.204,0.741-0.346,1.088c-0.142,0.346-0.381,0.594-0.717,0.742c-0.033,0.035-0.101,0.054-0.203,0.058
		c-0.102,0.003-0.205,0.007-0.307,0.012c-0.239,0.008-0.538,0.002-0.896-0.021c-0.359-0.021-0.711-0.061-1.055-0.117
		c-0.138-0.028-0.258-0.051-0.361-0.063c-0.103-0.015-0.223-0.035-0.359-0.065c-0.311-0.057-0.602-0.106-0.876-0.148
		c-0.275-0.041-0.498-0.076-0.671-0.104c-0.204-0.026-0.42-0.062-0.643-0.105c-0.225-0.044-0.438-0.096-0.646-0.157
		c-0.722-0.146-1.388-0.361-1.994-0.647c-0.608-0.285-0.92-0.649-0.935-1.093c-0.004-0.069-0.004-0.111-0.006-0.129
		c0-0.018,0-0.042-0.002-0.076c0.025-0.24,0.062-0.455,0.105-0.644c0.045-0.189,0.081-0.369,0.109-0.542
		c0.033-0.035,0.049-0.07,0.047-0.104c0.031-0.103,0.053-0.207,0.066-0.309c0.014-0.104,0.035-0.206,0.066-0.312l1.386-5.784
		l6.194-26.438c0.154-0.518,0.306-1.025,0.46-1.526c0.153-0.5,0.343-0.926,0.569-1.274c0.099-0.14,0.307-0.259,0.629-0.355
		c0.32-0.096,0.651-0.149,0.992-0.162c0.137-0.005,0.256-0.009,0.358-0.013c0.103-0.003,0.205,0.01,0.31,0.04
		c0.033-0.001,0.067-0.002,0.102-0.003c0.24,0.025,0.675,0.045,1.308,0.057c0.632,0.012,1.31,0.074,2.03,0.186
		c0.893,0.139,1.711,0.376,2.457,0.708c0.745,0.332,1.131,0.84,1.154,1.521c0.009,0.239,0,0.479-0.026,0.718
		s-0.069,0.48-0.128,0.722c-0.03,0.138-0.061,0.258-0.09,0.36c-0.031,0.104-0.062,0.227-0.09,0.363l-2.914,10.446l0.869-0.081
		c0.236-0.041,0.515-0.154,0.832-0.336c0.318-0.183,0.644-0.398,0.977-0.649c0.134-0.073,0.259-0.163,0.375-0.269
		c0.115-0.107,0.24-0.213,0.373-0.32c0.266-0.214,0.506-0.419,0.721-0.614s0.405-0.364,0.572-0.507
		c1.785-1.632,3.109-3.326,3.971-5.081c0.86-1.754,1.598-3.615,2.212-5.583c0.153-0.482,0.446-0.912,0.876-1.285
		c0.432-0.374,0.903-0.568,1.414-0.587c0.068-0.002,0.119-0.004,0.154-0.005c0.033-0.002,0.085,0.014,0.154,0.045
		c0.033-0.002,0.078,0.007,0.129,0.021c0.052,0.016,0.095,0.021,0.129,0.021c0.345,0.091,0.715,0.181,1.111,0.27
		c0.395,0.089,0.816,0.193,1.266,0.313c0.931,0.275,1.796,0.612,2.596,1.012c0.799,0.398,1.227,0.938,1.286,1.618
		c0.003,0.104-0.002,0.214-0.015,0.334c-0.014,0.12-0.051,0.249-0.114,0.389c-0.157,0.415-0.306,0.812-0.445,1.192
		c-0.14,0.381-0.288,0.763-0.446,1.143c-0.092,0.311-0.192,0.604-0.303,0.882c-0.109,0.278-0.211,0.554-0.303,0.83
		c-0.255,0.555-0.516,1.128-0.785,1.717c-0.27,0.59-0.582,1.198-0.936,1.825c-0.9,1.602-1.889,3.113-2.965,4.534
		c-1.078,1.42-2.181,2.629-3.306,3.624c-0.563,0.531-1.127,0.994-1.692,1.391c-0.567,0.395-1.119,0.722-1.656,0.979l-2.971,1.436
		c1.25,1.596,2.162,2.777,2.734,3.542c0.573,0.766,1.041,1.448,1.403,2.05c0.036,0.067,0.073,0.125,0.108,0.176
		c0.037,0.051,0.072,0.108,0.108,0.176c0.218,0.367,0.444,0.753,0.681,1.153c0.236,0.401,0.535,0.903,0.897,1.505
		c0.146,0.27,0.301,0.537,0.464,0.805s0.334,0.533,0.514,0.801c0.004,0.069,0.021,0.127,0.059,0.178
		c0.035,0.05,0.072,0.108,0.109,0.174c0.615,1.038,1.17,2.018,1.664,2.939c0.492,0.922,0.762,1.553,0.809,1.892l0.002,0.053
		l0.002,0.051c0.014,0.409-0.196,0.773-0.628,1.097c-0.433,0.322-0.9,0.629-1.402,0.92c-0.032,0.034-0.058,0.053-0.075,0.053
		c-0.017,0.001-0.043,0.019-0.074,0.055c-0.17,0.074-0.328,0.157-0.479,0.247s-0.292,0.189-0.425,0.297
		c-0.234,0.144-0.476,0.289-0.728,0.435c-0.25,0.146-0.494,0.29-0.728,0.436c-0.504,0.223-0.983,0.419-1.438,0.588
		c-0.455,0.17-0.819,0.259-1.093,0.269c-0.034,0.001-0.075,0.002-0.127,0.004c-0.051,0.002-0.095,0.003-0.128,0.004
		c-0.343-0.021-0.628-0.14-0.857-0.354c-0.23-0.214-0.418-0.455-0.563-0.722l-8.177-14.158L257.76,51.249z"/>
	<path fill="#E72A84" d="M286.797,26.384c0.025-0.206,0.131-0.847,0.314-1.926s0.389-2.253,0.618-3.521
		c0.032-0.035,0.048-0.079,0.046-0.13c-0.001-0.051,0.014-0.093,0.047-0.129c0.166-1.095,0.334-2.131,0.504-3.108
		c0.171-0.976,0.281-1.703,0.333-2.182c0.132-1.094,0.693-1.82,1.687-2.178c0.99-0.358,2.082-0.575,3.271-0.651
		c0.067-0.002,0.144-0.005,0.229-0.008c0.084-0.003,0.162-0.005,0.229-0.008c0.17-0.006,0.349-0.013,0.536-0.019
		c0.188-0.007,0.365-0.013,0.535-0.019c0.033-0.001,0.068-0.002,0.104-0.004c0.032-0.001,0.067-0.002,0.102-0.003
		c0.271-0.011,0.553-0.012,0.842-0.005c0.289,0.008,0.605,0.005,0.945-0.008c0.852,0.039,1.64,0.156,2.361,0.353
		c0.721,0.197,1.11,0.599,1.166,1.21c0.002,0.035,0.004,0.095,0.006,0.179c0.004,0.086-0.012,0.163-0.043,0.232
		c-0.031,0.068-0.063,0.146-0.094,0.232c-0.031,0.086-0.079,0.182-0.143,0.286c-0.067,0.071-0.123,0.157-0.17,0.261
		c-0.049,0.104-0.07,0.206-0.066,0.309l-4.072,12.094l-2.752,7.502c-0.091,0.31-0.183,0.585-0.277,0.827
		c-0.094,0.242-0.17,0.465-0.231,0.671c-0.03,0.104-0.062,0.19-0.093,0.259c-0.032,0.07-0.062,0.156-0.094,0.26
		c-0.064,0.104-0.121,0.217-0.166,0.338c-0.047,0.121-0.103,0.251-0.166,0.388c-0.283,0.657-0.618,1.053-1.006,1.185
		c-0.387,0.134-0.818,0.207-1.295,0.225c-0.033,0.001-0.084,0.003-0.152,0.005s-0.119,0.004-0.153,0.005
		c-0.067,0.003-0.127,0.005-0.178,0.007c-0.052,0.001-0.111,0.003-0.179,0.006c-0.137,0.005-0.265,0.01-0.383,0.014
		c-0.119,0.004-0.248,0.009-0.383,0.014c-0.102,0.003-0.213,0.007-0.331,0.011c-0.12,0.004-0.248,0.009-0.383,0.014
		c-0.683-0.01-1.315-0.099-1.899-0.266s-0.904-0.538-0.957-1.115c-0.002-0.033-0.004-0.06-0.004-0.076
		c0-0.018,0.016-0.043,0.049-0.079c-0.002-0.033-0.002-0.06-0.002-0.076c-0.002-0.018-0.002-0.043-0.004-0.076
		c0.107-0.822,0.19-1.378,0.248-1.669c0.059-0.291,0.101-0.539,0.127-0.745c0.03-0.104,0.053-0.214,0.065-0.335
		c0.013-0.118,0.033-0.281,0.06-0.487L286.797,26.384z M290.278,45.67c0.578,0.968,0.89,2.081,0.935,3.339
		c0,0.033,0.002,0.068,0.002,0.102c0.002,0.034,0.004,0.085,0.006,0.153c0.011,1.26-0.41,2.397-1.26,3.415
		c-0.85,1.016-1.887,1.547-3.111,1.589c-0.033,0.002-0.076,0.003-0.127,0.005s-0.11,0.004-0.178,0.006
		c-1.229-0.06-2.199-0.553-2.912-1.48c-0.715-0.929-1.095-2.073-1.142-3.435c-0.036-1.02,0.279-1.992,0.945-2.919
		c0.665-0.925,1.399-1.571,2.204-1.94c0.203-0.075,0.396-0.132,0.582-0.173c0.185-0.04,0.363-0.064,0.533-0.07
		C288.525,44.233,289.699,44.703,290.278,45.67"/>
</g>
</svg>
