<?xml version="1.0" encoding="utf-8"?>
<!-- Generator: Adobe Illustrator 16.0.0, SVG Export Plug-In . SVG Version: 6.00 Build 0)  -->
<!DOCTYPE svg PUBLIC "-//W3C//DTD SVG 1.1//EN" "http://www.w3.org/Graphics/SVG/1.1/DTD/svg11.dtd">
<svg version="1.1" id="Layer_1" xmlns="http://www.w3.org/2000/svg" xmlns:xlink="http://www.w3.org/1999/xlink" x="0px" y="0px"
	 width="488px" height="239px" viewBox="0 0 488 239" enable-background="new 0 0 488 239" xml:space="preserve">
<g>
	<g>
		<path fill="#FFFFFF" d="M329.183,209.005h-2.655v2.654h2.655V209.005z M328.606,208.088l0.68-7.029v-3.25h-2.871v3.25l0.688,7.029
			H328.606z M323.344,197.809h-2.655v13.851h2.655V197.809z M317.968,197.809h-2.655v13.851h2.655V197.809z M312.507,201.625h-2.655
			v10.034h2.655V201.625z M312.507,197.809h-2.655v2.457h2.655V197.809z M302.396,203.714h1.474v7.945h2.655v-7.945h1.984v-2.089
			h-1.984v-0.709c0-0.51,0.083-0.854,0.25-1.034s0.443-0.27,0.827-0.27c0.391,0,0.797,0.051,1.219,0.151l0.359-1.852
			c-0.725-0.227-1.464-0.341-2.221-0.341c-0.736,0-1.346,0.131-1.828,0.393c-0.481,0.262-0.812,0.6-0.992,1.016
			s-0.27,1.046-0.27,1.89v0.756h-1.474V203.714z M294.428,204.181c0.425-0.5,0.952-0.751,1.582-0.751
			c0.649,0,1.181,0.254,1.597,0.761s0.624,1.337,0.624,2.489c0,1.034-0.215,1.81-0.644,2.329c-0.428,0.52-0.947,0.779-1.559,0.779
			c-0.768,0-1.367-0.346-1.795-1.039c-0.296-0.479-0.443-1.254-0.443-2.324C293.79,205.43,294.001,204.682,294.428,204.181
			 M300.876,197.809h-2.655v4.988c-0.819-0.933-1.789-1.398-2.91-1.398c-1.222,0-2.233,0.442-3.033,1.327s-1.2,2.178-1.2,3.879
			c0,1.663,0.412,2.959,1.233,3.888c0.822,0.93,1.81,1.394,2.962,1.394c0.567,0,1.129-0.141,1.688-0.42
			c0.557-0.28,1.041-0.707,1.449-1.28v1.474h2.467V197.809z M288.98,205.424c0-0.775-0.049-1.37-0.147-1.786
			c-0.096-0.416-0.271-0.787-0.519-1.115c-0.249-0.327-0.616-0.596-1.101-0.808c-0.485-0.211-1.021-0.316-1.606-0.316
			c-1.329,0-2.432,0.567-3.307,1.701v-1.475h-2.466v10.034h2.654v-4.545c0-1.121,0.067-1.89,0.203-2.305
			c0.135-0.416,0.387-0.75,0.751-1.002c0.365-0.252,0.778-0.378,1.238-0.378c0.358,0,0.666,0.089,0.921,0.265
			s0.439,0.424,0.553,0.742s0.17,1.018,0.17,2.102v5.121h2.655V205.424z M274.628,207.369c0,0.637-0.034,1.068-0.104,1.295
			c-0.101,0.347-0.312,0.64-0.633,0.878c-0.436,0.315-0.893,0.474-1.37,0.474c-0.429,0-0.78-0.136-1.058-0.407
			c-0.278-0.27-0.416-0.592-0.416-0.963c0-0.378,0.173-0.69,0.52-0.937c0.227-0.15,0.708-0.305,1.445-0.463
			c0.736-0.156,1.275-0.293,1.615-0.405V207.369z M271.719,203.708c0.264-0.186,0.633-0.278,1.104-0.278
			c0.699,0,1.176,0.108,1.428,0.326s0.377,0.581,0.377,1.092v0.264c-0.479,0.202-1.338,0.419-2.579,0.652
			c-0.919,0.176-1.623,0.383-2.111,0.619c-0.487,0.235-0.868,0.575-1.139,1.02s-0.406,0.95-0.406,1.518
			c0,0.855,0.298,1.564,0.894,2.126c0.594,0.56,1.408,0.84,2.441,0.84c0.586,0,1.137-0.11,1.654-0.33
			c0.516-0.222,1.001-0.551,1.455-0.992c0.019,0.05,0.05,0.154,0.094,0.311c0.102,0.348,0.186,0.608,0.255,0.785h2.627
			c-0.233-0.479-0.392-0.928-0.478-1.347c-0.084-0.418-0.127-1.069-0.127-1.951l0.029-3.099c0-1.152-0.119-1.944-0.355-2.376
			s-0.645-0.787-1.223-1.068c-0.58-0.28-1.463-0.42-2.646-0.42c-1.305,0-2.286,0.233-2.948,0.699
			c-0.661,0.466-1.127,1.184-1.397,2.153l2.408,0.436C271.239,204.221,271.454,203.895,271.719,203.708 M266.37,197.809h-2.654
			v13.851h2.654V197.809z M240.936,211.659h2.655v-4.876c0-0.963,0.071-1.652,0.213-2.068c0.142-0.415,0.376-0.733,0.704-0.954
			c0.327-0.221,0.696-0.331,1.105-0.331c0.34,0,0.61,0.069,0.808,0.208c0.199,0.139,0.345,0.35,0.439,0.633
			c0.095,0.284,0.142,0.914,0.142,1.89v5.499h2.656v-4.818c0-0.945,0.071-1.637,0.217-2.074c0.145-0.438,0.381-0.771,0.709-0.997
			c0.326-0.227,0.677-0.34,1.049-0.34c0.51,0,0.888,0.188,1.134,0.566c0.183,0.29,0.274,0.933,0.274,1.929v5.734h2.654v-6.416
			c0-0.957-0.092-1.649-0.273-2.078c-0.252-0.58-0.633-1.019-1.145-1.317c-0.51-0.299-1.133-0.449-1.869-0.449
			c-0.58,0-1.125,0.132-1.636,0.397c-0.51,0.264-0.985,0.663-1.427,1.199c-0.303-0.536-0.689-0.936-1.162-1.199
			c-0.473-0.266-1.03-0.397-1.672-0.397c-1.21,0-2.252,0.532-3.127,1.597v-1.37h-2.448V211.659z M232.13,204.355
			c0.472-0.529,1.055-0.793,1.748-0.793c0.692,0,1.273,0.264,1.743,0.793c0.469,0.529,0.704,1.285,0.704,2.268
			c0,1.009-0.235,1.776-0.704,2.306c-0.47,0.528-1.051,0.794-1.743,0.794c-0.693,0-1.276-0.266-1.748-0.794
			c-0.473-0.529-0.709-1.291-0.709-2.286S231.658,204.885,232.13,204.355 M229.353,209.435c0.434,0.803,1.069,1.412,1.904,1.828
			c0.834,0.416,1.711,0.623,2.631,0.623c1.486,0,2.719-0.499,3.699-1.497c0.979-0.998,1.469-2.257,1.469-3.775
			c0-1.505-0.485-2.751-1.455-3.735c-0.97-0.986-2.214-1.479-3.732-1.479c-0.982,0-1.872,0.217-2.669,0.652
			c-0.797,0.434-1.413,1.063-1.847,1.889c-0.435,0.826-0.652,1.679-0.652,2.561C228.701,207.653,228.917,208.632,229.353,209.435
			 M224.326,208.561c0-1.707,0.074-2.828,0.222-3.364c0.148-0.535,0.351-0.905,0.61-1.109c0.258-0.205,0.573-0.308,0.945-0.308
			c0.384,0,0.8,0.146,1.247,0.435l0.822-2.314c-0.561-0.334-1.143-0.501-1.748-0.501c-0.428,0-0.811,0.107-1.148,0.321
			c-0.337,0.214-0.717,0.658-1.139,1.332v-1.427h-2.466v10.034h2.655V208.561z M214.179,203.714h1.474v7.945h2.655v-7.945h1.984
			v-2.089h-1.984v-0.709c0-0.51,0.083-0.854,0.25-1.034s0.443-0.27,0.827-0.27c0.39,0,0.797,0.051,1.219,0.151l0.359-1.852
			c-0.725-0.227-1.465-0.341-2.221-0.341c-0.736,0-1.346,0.131-1.828,0.393s-0.812,0.6-0.992,1.016
			c-0.179,0.416-0.269,1.046-0.269,1.89v0.756h-1.474V203.714z M201.764,211.688c-0.158,0.561-0.384,1.021-0.68,1.384
			s-0.753,0.543-1.37,0.543c-0.334,0-0.709-0.041-1.125-0.122l0.237,2.078c0.491,0.107,0.992,0.161,1.502,0.161
			c0.504,0,0.956-0.054,1.356-0.161c0.4-0.106,0.737-0.256,1.011-0.449c0.274-0.191,0.516-0.441,0.727-0.751
			c0.211-0.308,0.433-0.756,0.666-1.341l0.633-1.748l3.543-9.656h-2.749l-2.343,7.124l-2.4-7.124h-2.825L201.764,211.688z
			 M193.979,207.369c0,0.637-0.035,1.068-0.104,1.295c-0.101,0.347-0.312,0.64-0.633,0.878c-0.435,0.315-0.892,0.474-1.37,0.474
			c-0.429,0-0.781-0.136-1.059-0.407c-0.277-0.27-0.415-0.592-0.415-0.963c0-0.378,0.173-0.69,0.519-0.937
			c0.227-0.15,0.709-0.305,1.446-0.463c0.737-0.156,1.276-0.293,1.616-0.405V207.369z M191.068,203.708
			c0.264-0.186,0.633-0.278,1.105-0.278c0.699,0,1.175,0.108,1.427,0.326s0.378,0.581,0.378,1.092v0.264
			c-0.479,0.202-1.339,0.419-2.58,0.652c-0.919,0.176-1.623,0.383-2.111,0.619c-0.489,0.235-0.868,0.575-1.139,1.02
			s-0.406,0.95-0.406,1.518c0,0.855,0.297,1.564,0.893,2.126c0.595,0.56,1.409,0.84,2.442,0.84c0.586,0,1.137-0.11,1.653-0.33
			c0.517-0.222,1.002-0.551,1.456-0.992c0.018,0.05,0.05,0.154,0.094,0.311c0.101,0.348,0.186,0.608,0.255,0.785h2.627
			c-0.233-0.479-0.392-0.928-0.477-1.347c-0.085-0.418-0.128-1.069-0.128-1.951l0.028-3.099c0-1.152-0.118-1.944-0.354-2.376
			c-0.236-0.432-0.644-0.787-1.223-1.068c-0.58-0.28-1.462-0.42-2.646-0.42c-1.304,0-2.286,0.233-2.948,0.699
			c-0.661,0.466-1.127,1.184-1.398,2.153l2.409,0.436C190.59,204.221,190.804,203.895,191.068,203.708 M177.841,211.659l1.701-6.453
			l1.729,6.453h2.551l3.222-10.034h-2.617l-1.918,6.576l-1.673-6.576h-2.56l-1.729,6.576l-1.881-6.576h-2.579l3.175,10.034H177.841z
			 M168.166,207.369c0,0.637-0.035,1.068-0.104,1.295c-0.101,0.347-0.312,0.64-0.633,0.878c-0.435,0.315-0.891,0.474-1.37,0.474
			c-0.428,0-0.781-0.136-1.058-0.407c-0.277-0.27-0.416-0.592-0.416-0.963c0-0.378,0.173-0.69,0.52-0.937
			c0.227-0.15,0.708-0.305,1.445-0.463c0.737-0.156,1.276-0.293,1.616-0.405V207.369z M165.255,203.708
			c0.265-0.186,0.633-0.278,1.105-0.278c0.7,0,1.175,0.108,1.427,0.326s0.378,0.581,0.378,1.092v0.264
			c-0.479,0.202-1.338,0.419-2.579,0.652c-0.92,0.176-1.624,0.383-2.112,0.619c-0.488,0.235-0.868,0.575-1.138,1.02
			c-0.271,0.444-0.407,0.95-0.407,1.518c0,0.855,0.298,1.564,0.893,2.126c0.595,0.56,1.409,0.84,2.442,0.84
			c0.586,0,1.137-0.11,1.654-0.33c0.516-0.222,1.001-0.551,1.455-0.992c0.019,0.05,0.05,0.154,0.094,0.311
			c0.101,0.348,0.186,0.608,0.256,0.785h2.626c-0.233-0.479-0.392-0.928-0.477-1.347c-0.085-0.418-0.128-1.069-0.128-1.951
			l0.029-3.099c0-1.152-0.118-1.944-0.355-2.376c-0.236-0.432-0.644-0.787-1.223-1.068c-0.58-0.28-1.461-0.42-2.646-0.42
			c-1.303,0-2.286,0.233-2.947,0.699c-0.662,0.466-1.128,1.184-1.399,2.153l2.41,0.436
			C164.776,204.221,164.991,203.895,165.255,203.708"/>
		<path fill="#FFFFFF" d="M371.95,182.562c-0.007-0.725,0.18-1.297,0.557-1.72c0.379-0.422,0.857-0.633,1.437-0.633
			c0.542,0,1.002,0.2,1.38,0.601c0.378,0.399,0.576,0.983,0.596,1.752H371.95z M375.124,186.341
			c-0.283,0.228-0.633,0.342-1.049,0.342c-0.611,0-1.121-0.22-1.529-0.657c-0.41-0.438-0.625-1.05-0.644-1.838h6.651
			c0.039-2.034-0.375-3.544-1.237-4.53c-0.863-0.986-2.041-1.479-3.533-1.479c-1.33,0-2.429,0.472-3.298,1.413
			s-1.305,2.244-1.305,3.907c0,1.393,0.332,2.544,0.992,3.458c0.838,1.14,2.129,1.71,3.875,1.71c1.102,0,2.02-0.254,2.754-0.761
			c0.733-0.507,1.271-1.245,1.61-2.215l-2.646-0.445C375.622,185.75,375.408,186.115,375.124,186.341 M366.3,178.405v-3.543
			l-2.664,1.549v1.994h-1.219v2.116h1.219v4.375c0,0.938,0.027,1.562,0.084,1.871c0.069,0.434,0.194,0.778,0.373,1.033
			c0.181,0.255,0.463,0.463,0.847,0.624c0.384,0.16,0.815,0.241,1.294,0.241c0.781,0,1.48-0.133,2.098-0.396l-0.227-2.061
			c-0.467,0.17-0.822,0.255-1.067,0.255c-0.177,0-0.325-0.044-0.448-0.132s-0.203-0.2-0.236-0.335
			c-0.035-0.136-0.053-0.613-0.053-1.432v-4.044h1.814v-2.116H366.3z M353.38,187.834c0.797,0.555,1.879,0.832,3.246,0.832
			c1.504,0,2.641-0.331,3.409-0.992c0.769-0.662,1.153-1.452,1.153-2.372c0-0.844-0.277-1.502-0.831-1.974
			c-0.562-0.467-1.548-0.86-2.962-1.182c-1.415-0.321-2.241-0.57-2.481-0.746c-0.176-0.132-0.264-0.293-0.264-0.482
			c0-0.22,0.101-0.399,0.302-0.538c0.303-0.195,0.803-0.293,1.502-0.293c0.555,0,0.98,0.104,1.281,0.312
			c0.299,0.207,0.502,0.507,0.609,0.896l2.504-0.463c-0.252-0.875-0.713-1.537-1.381-1.983c-0.666-0.447-1.688-0.672-3.061-0.672
			c-1.441,0-2.507,0.297-3.193,0.889s-1.029,1.322-1.029,2.191c0,0.964,0.396,1.718,1.189,2.259
			c0.573,0.391,1.932,0.821,4.073,1.295c0.459,0.106,0.755,0.224,0.888,0.349c0.127,0.133,0.189,0.3,0.189,0.501
			c0,0.296-0.117,0.533-0.35,0.709c-0.347,0.252-0.863,0.378-1.549,0.378c-0.625,0-1.109-0.134-1.455-0.402
			c-0.348-0.267-0.578-0.659-0.69-1.176l-2.665,0.406C352.062,186.527,352.582,187.28,353.38,187.834 M347.526,184.149
			c0,0.637-0.035,1.067-0.104,1.295c-0.102,0.346-0.312,0.639-0.634,0.879c-0.435,0.314-0.891,0.472-1.37,0.472
			c-0.429,0-0.781-0.135-1.058-0.406c-0.278-0.271-0.416-0.592-0.416-0.964c0-0.378,0.173-0.689,0.521-0.935
			c0.226-0.152,0.707-0.306,1.444-0.463c0.737-0.158,1.276-0.293,1.616-0.407V184.149z M344.616,180.488
			c0.264-0.186,0.633-0.278,1.105-0.278c0.699,0,1.175,0.108,1.427,0.326c0.252,0.217,0.378,0.581,0.378,1.091v0.265
			c-0.479,0.201-1.339,0.419-2.579,0.651c-0.92,0.177-1.624,0.383-2.112,0.619s-0.867,0.576-1.139,1.021
			c-0.271,0.443-0.406,0.948-0.406,1.516c0,0.856,0.299,1.564,0.893,2.126c0.596,0.561,1.41,0.841,2.443,0.841
			c0.586,0,1.137-0.111,1.653-0.331s1.001-0.551,1.455-0.992c0.019,0.051,0.05,0.154,0.094,0.312
			c0.101,0.346,0.187,0.607,0.255,0.784h2.627c-0.232-0.479-0.392-0.928-0.477-1.347s-0.128-1.068-0.128-1.95l0.028-3.1
			c0-1.152-0.119-1.944-0.354-2.377c-0.235-0.431-0.644-0.787-1.224-1.066c-0.58-0.281-1.461-0.422-2.646-0.422
			c-1.304,0-2.286,0.233-2.948,0.699c-0.66,0.467-1.127,1.186-1.397,2.155l2.409,0.434C344.138,181,344.351,180.674,344.616,180.488
			 M331.388,188.439l1.701-6.453l1.729,6.453h2.551l3.222-10.034h-2.617l-1.918,6.576l-1.672-6.576h-2.561l-1.729,6.576
			l-1.881-6.576h-2.58l3.176,10.034H331.388z M313.956,180.493h1.475v7.946h2.654v-7.946h1.984v-2.088h-1.984v-0.709
			c0-0.51,0.084-0.855,0.252-1.034c0.166-0.18,0.441-0.27,0.825-0.27c0.392,0,0.798,0.051,1.22,0.151l0.358-1.852
			c-0.724-0.228-1.464-0.34-2.22-0.34c-0.737,0-1.348,0.13-1.828,0.392c-0.482,0.261-0.812,0.6-0.992,1.015
			c-0.18,0.416-0.27,1.046-0.27,1.891v0.756h-1.475V180.493z M306.114,181.136c0.473-0.529,1.055-0.794,1.748-0.794
			s1.273,0.265,1.743,0.794s0.704,1.284,0.704,2.268c0,1.008-0.234,1.775-0.704,2.305c-0.47,0.53-1.05,0.794-1.743,0.794
			s-1.275-0.264-1.748-0.794c-0.473-0.529-0.708-1.291-0.708-2.286S305.642,181.665,306.114,181.136 M303.337,186.214
			c0.435,0.804,1.069,1.412,1.903,1.828c0.835,0.416,1.712,0.624,2.632,0.624c1.486,0,2.719-0.499,3.699-1.498
			c0.979-0.998,1.469-2.256,1.469-3.773c0-1.507-0.484-2.751-1.455-3.737c-0.97-0.986-2.214-1.479-3.731-1.479
			c-0.983,0-1.873,0.219-2.669,0.652c-0.797,0.436-1.413,1.065-1.848,1.89c-0.435,0.825-0.652,1.679-0.652,2.561
			C302.685,184.434,302.902,185.411,303.337,186.214 M291.896,183.507c0.15-0.227,0.367-0.34,0.652-0.34
			c0.282,0,0.502,0.113,0.66,0.34c0.201,0.31,0.303,0.913,0.303,1.814c0,0.9-0.104,1.506-0.312,1.813
			c-0.151,0.228-0.369,0.341-0.651,0.341c-0.278,0-0.496-0.116-0.652-0.35c-0.208-0.303-0.312-0.904-0.312-1.805
			C291.583,184.42,291.688,183.816,291.896,183.507 M290.331,188.1c0.545,0.598,1.299,0.896,2.264,0.896
			c0.932,0,1.67-0.299,2.215-0.896c0.545-0.599,0.818-1.521,0.818-2.769c0-1.241-0.273-2.161-0.818-2.759
			c-0.545-0.599-1.293-0.898-2.243-0.898c-0.945,0-1.69,0.3-2.235,0.898c-0.545,0.598-0.816,1.518-0.816,2.759
			C289.515,186.578,289.786,187.501,290.331,188.1 M292.548,174.353h-1.91l-7.379,14.615h1.965L292.548,174.353z M282.55,176.175
			c0.158-0.227,0.375-0.34,0.652-0.34c0.284,0,0.504,0.117,0.662,0.351c0.201,0.302,0.303,0.903,0.303,1.804
			c0,0.901-0.102,1.506-0.303,1.813c-0.158,0.228-0.378,0.341-0.662,0.341c-0.277,0-0.494-0.113-0.652-0.341
			c-0.207-0.308-0.311-0.912-0.311-1.813C282.239,177.089,282.343,176.484,282.55,176.175 M280.987,180.772
			c0.544,0.595,1.299,0.893,2.264,0.893c0.932,0,1.67-0.299,2.215-0.897s0.816-1.519,0.816-2.76c0-1.247-0.271-2.168-0.816-2.763
			c-0.545-0.596-1.299-0.893-2.264-0.893c-0.932,0-1.671,0.299-2.215,0.896c-0.545,0.6-0.818,1.519-0.818,2.759
			C280.169,179.255,280.442,180.177,280.987,180.772 M275.427,177.243c-1.248,1.568-2.244,3.348-2.99,5.338
			c-0.746,1.991-1.143,3.943-1.186,5.858h2.561c-0.008-1.223,0.193-2.609,0.6-4.162s0.996-3.02,1.771-4.398
			c0.775-1.38,1.537-2.438,2.287-3.175v-1.927h-9.08v2.466H275.427z M264.169,181.211c-0.35,0.403-0.779,0.605-1.289,0.605
			c-0.529,0-0.971-0.21-1.324-0.629c-0.352-0.418-0.528-1.075-0.528-1.97c0-0.882,0.162-1.517,0.487-1.903
			c0.324-0.389,0.731-0.581,1.223-0.581c0.518,0,0.973,0.235,1.366,0.708c0.393,0.473,0.59,1.137,0.59,1.994
			C264.693,180.216,264.519,180.809,264.169,181.211 M259.97,187.82c0.668,0.576,1.543,0.865,2.627,0.865
			c1.504,0,2.727-0.562,3.666-1.683c0.938-1.121,1.406-2.948,1.406-5.479c0-2.488-0.449-4.275-1.351-5.362s-2.054-1.63-3.458-1.63
			c-1.291,0-2.354,0.43-3.189,1.29c-0.834,0.859-1.25,1.992-1.25,3.396c0,1.349,0.395,2.442,1.185,3.283
			c0.791,0.841,1.731,1.261,2.821,1.261c1,0,1.836-0.387,2.502-1.161c-0.106,1.587-0.352,2.633-0.736,3.137s-0.85,0.756-1.398,0.756
			c-0.435,0-0.783-0.126-1.049-0.378c-0.264-0.252-0.428-0.64-0.49-1.162l-2.57,0.283
			C258.873,186.383,259.302,187.244,259.97,187.82 M244.814,181.136c0.473-0.529,1.055-0.794,1.748-0.794
			c0.693,0,1.274,0.265,1.743,0.794s0.703,1.284,0.703,2.268c0,1.008-0.234,1.775-0.703,2.305c-0.469,0.53-1.05,0.794-1.743,0.794
			c-0.693,0-1.275-0.264-1.748-0.794c-0.472-0.529-0.709-1.291-0.709-2.286S244.342,181.665,244.814,181.136 M242.036,186.214
			c0.435,0.804,1.069,1.412,1.904,1.828s1.712,0.624,2.631,0.624c1.486,0,2.721-0.499,3.699-1.498c0.98-0.998,1.47-2.256,1.47-3.773
			c0-1.507-0.485-2.751-1.455-3.737s-2.215-1.479-3.732-1.479c-0.983,0-1.873,0.219-2.67,0.652c-0.796,0.436-1.412,1.065-1.847,1.89
			c-0.434,0.825-0.652,1.679-0.652,2.561C241.384,184.434,241.603,185.411,242.036,186.214 M238.342,178.405v-3.543l-2.664,1.549
			v1.994h-1.219v2.116h1.219v4.375c0,0.938,0.028,1.562,0.085,1.871c0.069,0.434,0.193,0.778,0.373,1.033
			c0.179,0.255,0.461,0.463,0.846,0.624c0.384,0.16,0.815,0.241,1.294,0.241c0.781,0,1.48-0.133,2.097-0.396l-0.226-2.061
			c-0.467,0.17-0.822,0.255-1.068,0.255c-0.176,0-0.326-0.044-0.449-0.132s-0.201-0.2-0.236-0.335
			c-0.035-0.136-0.052-0.613-0.052-1.432v-4.044h1.814v-2.116H238.342z M221.553,181.027c0.428-0.501,0.966-0.751,1.615-0.751
			c0.624,0,1.147,0.255,1.569,0.765s0.633,1.291,0.633,2.343c0,1.128-0.205,1.939-0.614,2.434c-0.41,0.495-0.923,0.742-1.541,0.742
			c-0.642,0-1.187-0.27-1.634-0.809c-0.447-0.539-0.671-1.371-0.671-2.499C220.91,182.27,221.125,181.528,221.553,181.027
			 M218.283,192.256h2.655v-5.055c0.498,0.536,0.972,0.914,1.422,1.134c0.451,0.22,0.953,0.331,1.507,0.331
			c1.166,0,2.158-0.465,2.977-1.394c0.818-0.93,1.228-2.231,1.228-3.907c0-1.631-0.406-2.903-1.219-3.817
			c-0.813-0.913-1.802-1.37-2.967-1.37c-0.667,0-1.275,0.158-1.823,0.474c-0.548,0.314-0.983,0.724-1.304,1.228v-1.474h-2.476
			V192.256z M215.61,188.439v-10.034h-2.655v4.232c0,1.437-0.066,2.339-0.199,2.707c-0.132,0.368-0.378,0.678-0.737,0.927
			c-0.359,0.249-0.765,0.373-1.219,0.373c-0.396,0-0.724-0.094-0.982-0.279c-0.259-0.187-0.436-0.438-0.534-0.756
			c-0.098-0.318-0.146-1.183-0.146-2.593v-4.611h-2.655v6.349c0,0.945,0.119,1.686,0.359,2.222c0.239,0.534,0.626,0.95,1.162,1.246
			c0.535,0.297,1.14,0.444,1.814,0.444c0.661,0,1.29-0.155,1.885-0.463c0.595-0.309,1.075-0.731,1.441-1.266v1.502H215.61z
			 M197.507,178.405v-3.543l-2.665,1.549v1.994h-1.218v2.116h1.218v4.375c0,0.938,0.029,1.562,0.085,1.871
			c0.07,0.434,0.194,0.778,0.374,1.033c0.179,0.255,0.461,0.463,0.845,0.624c0.384,0.16,0.816,0.241,1.295,0.241
			c0.781,0,1.48-0.133,2.097-0.396l-0.227-2.061c-0.466,0.17-0.822,0.255-1.067,0.255c-0.177,0-0.326-0.044-0.449-0.132
			s-0.202-0.2-0.236-0.335c-0.035-0.136-0.052-0.613-0.052-1.432v-4.044h1.814v-2.116H197.507z M189.731,185.34
			c0-1.707,0.074-2.828,0.222-3.363s0.351-0.905,0.609-1.11c0.259-0.204,0.573-0.307,0.945-0.307c0.384,0,0.8,0.145,1.247,0.435
			l0.822-2.315c-0.56-0.334-1.143-0.501-1.748-0.501c-0.428,0-0.811,0.107-1.148,0.321c-0.337,0.215-0.716,0.659-1.138,1.333v-1.427
			h-2.466v10.034h2.655V185.34z M178.421,182.562c-0.006-0.725,0.18-1.297,0.558-1.72c0.378-0.422,0.856-0.633,1.436-0.633
			c0.542,0,1.001,0.2,1.379,0.601c0.378,0.399,0.577,0.983,0.596,1.752H178.421z M181.596,186.341
			c-0.283,0.228-0.633,0.342-1.049,0.342c-0.611,0-1.121-0.22-1.53-0.657c-0.41-0.438-0.624-1.05-0.643-1.838h6.652
			c0.037-2.034-0.375-3.544-1.238-4.53c-0.863-0.986-2.041-1.479-3.534-1.479c-1.329,0-2.428,0.472-3.297,1.413
			c-0.869,0.941-1.304,2.244-1.304,3.907c0,1.393,0.331,2.544,0.992,3.458c0.838,1.14,2.129,1.71,3.874,1.71
			c1.102,0,2.02-0.254,2.754-0.761c0.734-0.507,1.271-1.245,1.611-2.215l-2.646-0.445
			C182.093,185.75,181.879,186.115,181.596,186.341 M170.816,188.439l3.987-10.034h-2.731l-1.908,5.121
			c-0.101,0.283-0.196,0.566-0.284,0.85c-0.038,0.14-0.129,0.425-0.274,0.86l-0.548-1.71l-1.89-5.121h-2.787l4.044,10.034H170.816z
			 M162.945,178.405h-2.655v10.034h2.655V178.405z M162.945,174.588h-2.655v2.457h2.655V174.588z M151.225,180.961
			c0.425-0.501,0.952-0.751,1.582-0.751c0.649,0,1.181,0.253,1.597,0.76c0.416,0.508,0.624,1.338,0.624,2.49
			c0,1.033-0.215,1.81-0.643,2.329c-0.428,0.52-0.948,0.779-1.559,0.779c-0.768,0-1.367-0.347-1.795-1.039
			c-0.296-0.479-0.444-1.253-0.444-2.324C150.587,182.21,150.799,181.461,151.225,180.961 M157.673,174.588h-2.655v4.989
			c-0.819-0.933-1.789-1.399-2.91-1.399c-1.222,0-2.233,0.443-3.033,1.328c-0.8,0.886-1.2,2.179-1.2,3.878
			c0,1.663,0.411,2.959,1.233,3.889c0.822,0.929,1.81,1.394,2.962,1.394c0.567,0,1.129-0.14,1.687-0.421
			c0.557-0.28,1.04-0.707,1.45-1.28v1.475h2.466V174.588z M134.326,182.562c-0.006-0.725,0.18-1.297,0.558-1.72
			c0.378-0.422,0.856-0.633,1.436-0.633c0.542,0,1.002,0.2,1.379,0.601c0.378,0.399,0.577,0.983,0.596,1.752H134.326z
			 M137.501,186.341c-0.283,0.228-0.633,0.342-1.049,0.342c-0.611,0-1.121-0.22-1.53-0.657c-0.41-0.438-0.624-1.05-0.643-1.838
			h6.652c0.038-2.034-0.375-3.544-1.238-4.53c-0.863-0.986-2.041-1.479-3.534-1.479c-1.329,0-2.428,0.472-3.297,1.413
			s-1.304,2.244-1.304,3.907c0,1.393,0.331,2.544,0.992,3.458c0.838,1.14,2.129,1.71,3.874,1.71c1.102,0,2.02-0.254,2.754-0.761
			s1.271-1.245,1.611-2.215l-2.645-0.445C138,185.75,137.784,186.115,137.501,186.341 M119.437,188.439l2.749-10.355l2.759,10.355
			h2.967l3.364-13.852h-2.816l-2.126,9.675l-2.428-9.675h-3.326l-2.532,9.515l-2.088-9.515h-2.863l3.307,13.852H119.437z"/>
		<path fill="#E72984" d="M42.563,110.55c0.134-0.364,0.234-0.652,0.3-0.859s0.118-0.415,0.159-0.622
			c-0.005-0.102,0.002-0.203,0.022-0.308c0.02-0.104,0.053-0.207,0.099-0.312l-9.942,0.521c-1.938,0.101-3.301-0.07-4.091-0.515
			s-1.251-0.943-1.382-1.501c-0.002-0.05-0.004-0.088-0.006-0.114c-0.001-0.025-0.003-0.063-0.006-0.115
			c-0.002-0.049-0.004-0.087-0.006-0.113c-0.001-0.024-0.003-0.062-0.006-0.115c0.086-1.281,0.24-2.491,0.461-3.629
			c0.221-1.135,0.458-2.247,0.707-3.334c0.086-0.311,0.161-0.607,0.223-0.893c0.061-0.284,0.134-0.583,0.221-0.895
			c0.201-1.032,0.695-1.838,1.484-2.417c0.786-0.577,1.69-0.893,2.71-0.945l28.61-1.348c2.395-0.126,4.267-0.005,5.616,0.357
			c1.348,0.365,2.082,1.208,2.203,2.53c0.005,0.103,0.012,0.229,0.02,0.383c0.008,0.154-0.01,0.307-0.052,0.462
			c0.008,0.154-0.01,0.308-0.052,0.463c-0.044,0.156-0.06,0.337-0.049,0.54c-0.111,0.824-0.271,1.663-0.482,2.518
			c-0.211,0.855-0.425,1.646-0.642,2.371c-0.216,0.78-0.434,1.47-0.659,2.067c-0.225,0.601-0.403,1.083-0.537,1.448
			c-0.17,0.673-0.568,1.115-1.196,1.327c-0.629,0.213-1.299,0.337-2.013,0.374c-0.204,0.011-0.408,0.021-0.611,0.031
			c-0.204,0.012-0.384-0.005-0.539-0.048c-0.205,0.011-0.409,0.021-0.612,0.032c-0.205,0.011-0.409,0.021-0.612,0.032l-12.634,0.355
			c1.043,0.405,1.854,0.772,2.435,1.099c0.259,0.09,0.509,0.203,0.746,0.345c0.238,0.142,0.435,0.259,0.594,0.353
			c0.053,0.048,0.106,0.084,0.159,0.106c0.051,0.023,0.104,0.06,0.158,0.106c0.105,0.047,0.197,0.093,0.276,0.14
			c0.08,0.047,0.145,0.095,0.2,0.142c0.106,0.099,0.225,0.168,0.356,0.212c0.129,0.045,0.248,0.116,0.356,0.211
			c0.472,0.231,0.894,0.49,1.268,0.778c0.372,0.286,0.624,0.708,0.756,1.264c0.003,0.051,0.017,0.102,0.046,0.15
			c0.028,0.05,0.044,0.101,0.046,0.151c0.003,0.052,0.006,0.103,0.008,0.153c0.003,0.051,0.006,0.104,0.008,0.153
			c0.016,0.305-0.019,0.614-0.104,0.925c-0.087,0.312-0.175,0.597-0.262,0.857l0.004,0.077c-0.043,0.155-0.087,0.31-0.129,0.466
			c-0.044,0.155-0.087,0.312-0.129,0.467l-7.997,34.698c-0.043,0.154-0.074,0.298-0.093,0.426c-0.019,0.129-0.025,0.243-0.02,0.345
			c-0.116,0.724-0.351,1.35-0.707,1.878c-0.356,0.53-1.247,0.857-2.67,0.983c-0.052,0.003-0.128,0.007-0.23,0.012
			c-0.052,0.003-0.103,0.005-0.153,0.008c-0.051,0.003-0.103,0.006-0.153,0.009c-1.938,0.102-3.793,0.047-5.568-0.167
			c-1.775-0.216-3.263-0.546-4.462-0.994c-0.575-0.226-0.973-0.511-1.195-0.858c-0.223-0.344-0.343-0.697-0.361-1.054
			c-0.016-0.307,0.005-0.625,0.063-0.962c0.06-0.334,0.132-0.659,0.219-0.971c0.041-0.155,0.072-0.297,0.092-0.426
			c0.018-0.128,0.051-0.245,0.097-0.35c-0.068-0.305,0.37-2.436,1.313-6.396c0.943-3.96,2.008-8.271,3.195-12.935
			c0.039-0.206,0.08-0.414,0.121-0.619c0.04-0.207,0.081-0.389,0.124-0.544c1.101-4.353,2.133-8.329,3.094-11.935
			c0.962-3.602,1.556-5.664,1.785-6.188L42.563,110.55z"/>
		<path fill="#E72984" d="M74.558,97.753c0.039-0.204,0.092-0.426,0.157-0.66c0.065-0.232,0.14-0.479,0.229-0.739
			c0.046-0.104,0.092-0.208,0.138-0.314c0.045-0.104,0.089-0.235,0.132-0.391c0.135-0.363,0.269-0.716,0.405-1.057
			c0.136-0.339,0.251-0.562,0.349-0.67c0.37-0.734,0.841-1.244,1.415-1.53c0.571-0.285,1.215-0.447,1.93-0.484
			c0.101-0.006,0.203-0.011,0.305-0.017s0.204-0.011,0.306-0.017c0.105,0.047,0.208,0.066,0.311,0.062
			c0.101-0.006,0.202-0.012,0.305-0.017c0.41,0.03,0.989,0.102,1.737,0.216c0.746,0.113,1.562,0.302,2.445,0.562
			c1.142,0.351,2.204,0.87,3.187,1.558c0.982,0.69,1.502,1.599,1.561,2.717c0.005,0.104,0.01,0.192,0.014,0.27
			c0.004,0.077-0.019,0.142-0.066,0.195c-0.03,0.41-0.134,0.876-0.31,1.396c-0.178,0.521-0.39,1.349-0.637,2.487l-3.537,14.448
			l9.559-0.501l4.15-18.853c0.124-0.568,0.239-1.048,0.347-1.436c0.107-0.391,0.203-0.739,0.289-1.052
			c0.089-0.26,0.165-0.518,0.228-0.777c0.063-0.259,0.137-0.545,0.223-0.855c0.081-0.414,0.435-0.726,1.063-0.938
			c0.628-0.211,1.35-0.338,2.166-0.381c0.306-0.017,0.613-0.02,0.92-0.011c0.307,0.011,0.613,0.006,0.92-0.01
			c0.461,0.028,0.924,0.08,1.388,0.157c0.464,0.079,0.902,0.158,1.316,0.238c0.104,0.046,0.221,0.077,0.35,0.097
			c0.128,0.019,0.243,0.024,0.347,0.02c1.242,0.294,2.411,0.667,3.508,1.12c1.098,0.453,1.782,1.313,2.052,2.576
			c0.003,0.052,0.007,0.128,0.012,0.23c0.006,0.103,0.011,0.202,0.016,0.305c0.019,0.357,0.012,0.728-0.017,1.114
			c-0.032,0.385-0.087,0.782-0.168,1.196l-0.882,3.65l-8.884,39.728c-0.084,0.362-0.153,0.726-0.211,1.084
			c-0.058,0.362-0.105,0.695-0.139,1.006c-0.03,0.41-0.085,0.821-0.165,1.234c-0.082,0.413-0.187,0.829-0.319,1.243
			c-0.09,0.262-0.202,0.536-0.34,0.824c-0.139,0.288-0.304,0.564-0.494,0.831c-0.094,0.158-0.188,0.315-0.281,0.474
			c-0.095,0.159-0.189,0.317-0.282,0.476c-0.522,0.795-1.086,1.488-1.693,2.083c-0.609,0.594-1.422,0.918-2.441,0.972
			c-0.817,0.042-1.557,0.067-2.22,0.078c-0.665,0.008-1.305-0.022-1.922-0.092c-0.562,0.028-1.151-0.017-1.771-0.138
			s-1.317-0.263-2.093-0.427c-0.569-0.123-0.982-0.447-1.239-0.97c-0.258-0.524-0.404-1.116-0.438-1.779
			c-0.019-0.357-0.012-0.701,0.022-1.037c0.033-0.333,0.067-0.655,0.103-0.963l4.041-16.546l0.757-4.564l-2.367,3.114
			c-0.049,0.055-0.108,0.149-0.178,0.278c-0.07,0.132-0.128,0.25-0.172,0.354l-0.073,0.08c-0.046,0.106-0.104,0.21-0.175,0.315
			c-0.071,0.107-0.132,0.187-0.179,0.24c0.003,0.052-0.009,0.091-0.033,0.116c-0.025,0.028-0.061,0.068-0.108,0.121
			c-0.287,0.373-0.742,0.741-1.361,1.106c-0.62,0.366-1.644,0.584-3.071,0.659c-0.51,0.026-1.085,0.031-1.725,0.014
			c-0.64-0.017-1.344-0.056-2.115-0.118l-3.203,16.424c-0.028,0.461-0.119,0.915-0.274,1.356c-0.156,0.442-0.352,0.851-0.588,1.219
			c-0.094,0.159-0.189,0.306-0.284,0.438c-0.096,0.133-0.166,0.251-0.211,0.354c-0.138,0.315-0.381,0.557-0.729,0.729
			c-0.349,0.171-1.16,0.316-2.431,0.434c-0.051,0.003-0.103,0.005-0.153,0.008c-0.051,0.003-0.103,0.006-0.153,0.008
			c-0.408,0.022-0.83,0.031-1.264,0.028c-0.435-0.003-0.857-0.019-1.268-0.049c-1.642-0.117-3.189-0.356-4.638-0.716
			c-1.45-0.357-2.318-0.81-2.602-1.358c-0.116-0.249-0.205-0.488-0.267-0.714c-0.064-0.227-0.1-0.443-0.111-0.647
			c-0.01-0.202-0.008-0.395,0.008-0.575c0.016-0.18,0.045-0.372,0.085-0.579l3.107-15.348l-1.022-0.481
			c-0.052,0.002-0.13-0.02-0.234-0.065c-0.105-0.045-0.183-0.066-0.233-0.064c-0.21-0.09-0.421-0.207-0.632-0.35
			c-0.213-0.143-0.35-0.313-0.411-0.516c-0.113-0.197-0.203-0.449-0.269-0.752c-0.068-0.304-0.11-0.633-0.129-0.991
			c-0.081-0.557-0.088-1.171-0.02-1.839c0.067-0.667,0.16-1.338,0.279-2.008c0.039-0.206,0.08-0.413,0.12-0.62
			c0.04-0.205,0.081-0.413,0.122-0.62c0.082-0.361,0.165-0.724,0.249-1.087c0.083-0.361,0.142-0.697,0.178-1.006
			c0.335-1.398,0.746-2.582,1.232-3.553c0.486-0.972,1.388-1.542,2.709-1.715l2.053-0.338L74.558,97.753z"/>
		<path fill="#E72984" d="M125.449,91.405c0.075-0.514,0.652-0.967,1.731-1.355c1.079-0.389,2.28-0.617,3.607-0.688
			c0.05-0.003,0.088-0.005,0.114-0.006c0.025-0.001,0.064-0.003,0.115-0.006c0.459-0.023,0.918-0.036,1.378-0.035
			c0.461,0.002,0.871,0.045,1.234,0.128c0.156,0.043,0.323,0.073,0.504,0.09c0.179,0.016,0.347,0.046,0.502,0.088
			c1.393,0.232,2.677,0.589,3.852,1.062c1.175,0.477,1.874,1.373,2.096,2.69c0.003,0.051,0.006,0.101,0.008,0.151
			c0.003,0.052,0.006,0.104,0.009,0.153c0.021,0.41-0.025,0.781-0.134,1.12c-0.11,0.339-0.208,0.662-0.294,0.973l-0.072,0.081
			c-0.041,0.206-0.095,0.388-0.164,0.545c-0.068,0.157-0.123,0.34-0.162,0.544c-0.618,2.847-1.336,6.232-2.152,10.159
			c-0.817,3.929-1.652,7.986-2.506,12.171c-0.046,0.106-0.078,0.223-0.097,0.351c-0.019,0.129-0.052,0.246-0.097,0.351
			c-1.426,6.925-2.769,13.257-4.027,18.997c-1.259,5.742-2.024,8.926-2.298,9.553c-0.369,0.786-0.927,1.339-1.677,1.661
			c-0.75,0.319-1.584,0.504-2.501,0.552c-0.409,0.021-0.818,0.018-1.228-0.013c-0.411-0.03-0.847-0.058-1.308-0.085
			c-0.259-0.038-0.541-0.085-0.851-0.145c-0.31-0.062-0.594-0.111-0.851-0.148c-0.052,0.003-0.104-0.008-0.155-0.03
			c-0.053-0.023-0.105-0.032-0.155-0.03c-1.34-0.186-2.609-0.501-3.808-0.95c-1.199-0.447-2.015-1.377-2.446-2.786
			c-0.065-0.251-0.116-0.504-0.155-0.759c-0.04-0.253-0.065-0.507-0.078-0.763c-0.041-0.765,0.005-1.597,0.138-2.501
			c0.13-0.899,0.326-1.817,0.583-2.752c0.037-0.256,0.099-0.542,0.186-0.853c0.085-0.312,0.171-0.622,0.258-0.935
			c0.058-0.819,0.645-3.534,1.758-8.144c1.113-4.608,2.345-9.631,3.697-15.07c0.044-0.104,0.066-0.182,0.064-0.233
			c0.042-0.156,0.073-0.296,0.093-0.427c0.018-0.128,0.05-0.244,0.096-0.35c1.305-5.333,2.504-10.24,3.599-14.721
			c1.095-4.479,1.674-7.077,1.739-7.797L125.449,91.405z"/>
		<path fill="#E72984" d="M182.868,145.22c-0.077,0.515-0.502,0.906-1.281,1.179c-0.778,0.27-1.754,0.437-2.925,0.498
			c-0.612,0.032-1.238,0.04-1.878,0.021c-0.641-0.016-1.295-0.059-1.962-0.127c-1.493-0.178-2.927-0.473-4.303-0.886
			c-1.376-0.415-2.439-0.934-3.187-1.559c-0.319-0.238-0.641-1.015-0.966-2.327c-0.325-1.312-0.655-2.751-0.993-4.319
			c-0.129-0.504-0.245-1.021-0.349-1.554c-0.105-0.53-0.196-1.025-0.27-1.481l-4.145-19.106l-6.306,28.934
			c-0.081,0.414-0.163,0.801-0.245,1.163c-0.084,0.363-0.17,0.673-0.258,0.934c-0.266,0.78-0.586,1.258-0.96,1.431
			c-0.375,0.173-0.919,0.279-1.633,0.315c-0.255,0.014-0.535,0.028-0.841,0.044c-0.306,0.017-0.662,0.061-1.066,0.133
			c-0.052,0.003-0.115,0.006-0.192,0.01c-0.076,0.004-0.141,0.007-0.191,0.01c-0.099,0.057-0.187,0.087-0.264,0.091
			c-0.076,0.004-0.165,0.008-0.267,0.015c-0.459,0.023-1.009,0.026-1.648,0.009c-0.641-0.018-1.296-0.085-1.966-0.203
			c-1.288-0.188-2.47-0.535-3.544-1.041c-1.075-0.506-1.665-1.267-1.769-2.285c-0.018-0.354-0.024-0.688-0.013-0.996
			c0.009-0.307,0.032-0.588,0.07-0.847c-0.01-0.203,0.004-0.408,0.045-0.616c0.039-0.206,0.08-0.413,0.12-0.62l2.269-9.396
			l9.266-39.747c-0.002-0.051-0.005-0.089-0.006-0.115s0.021-0.065,0.07-0.119c0.153-0.979,0.502-1.879,1.047-2.701
			c0.545-0.819,1.353-1.259,2.423-1.314c0.102-0.006,0.192-0.01,0.268-0.015c0.077-0.004,0.165-0.009,0.268-0.014
			c0.05-0.003,0.127,0.006,0.232,0.026c0.102,0.021,0.179,0.028,0.231,0.025c0.156,0.044,0.31,0.073,0.465,0.091
			c0.154,0.019,0.307,0.022,0.46,0.015c0.359,0.032,0.695,0.079,1.005,0.139c0.309,0.062,0.644,0.108,1.004,0.141
			c1.646,0.219,3.263,0.583,4.85,1.087c1.585,0.506,2.921,1.368,4.008,2.588c0.761,0.881,1.421,2.009,1.979,3.386
			s1.084,2.896,1.581,4.557c0.131,0.556,0.288,1.109,0.471,1.662c0.182,0.555,0.364,1.106,0.547,1.658
			c0.12,0.354,0.227,0.679,0.319,0.981c0.093,0.301,0.197,0.603,0.316,0.902c0.185,0.604,0.368,1.169,0.549,1.698
			c0.181,0.526,0.362,1.042,0.541,1.542c0.003,0.052,0.03,0.103,0.084,0.15c0.18,0.501,0.361,1.028,0.543,1.582
			c0.183,0.554,0.368,1.156,0.556,1.811l0.858-5.567c0.111-0.822,0.315-2.048,0.613-3.674c0.298-1.627,0.603-3.341,0.919-5.147
			c0.039-0.206,0.081-0.389,0.125-0.543c0.041-0.156,0.058-0.335,0.048-0.539c0.281-1.446,0.566-2.841,0.854-4.188
			c0.287-1.343,0.513-2.402,0.677-3.178c0.045-0.104,0.09-0.222,0.135-0.353c0.044-0.13,0.112-0.274,0.207-0.433
			c0.182-0.418,0.468-0.817,0.858-1.194c0.389-0.38,0.838-0.581,1.348-0.608c0.048-0.052,0.085-0.068,0.113-0.044
			c0.026,0.025,0.065,0.035,0.117,0.032c0.05-0.003,0.101-0.005,0.153-0.009c0.203-0.011,0.87,0.031,2,0.125
			c1.129,0.095,2.366,0.286,3.711,0.572c1.398,0.337,2.713,0.817,3.948,1.443c1.233,0.625,1.879,1.473,1.935,2.544
			c0.019,0.356,0.011,0.716-0.02,1.074c-0.033,0.359-0.092,0.694-0.177,1.007c-0.044,0.154-0.075,0.298-0.093,0.426
			c-0.02,0.129-0.051,0.271-0.093,0.426c-0.04,0.208-0.081,0.415-0.121,0.62c-0.04,0.207-0.08,0.44-0.117,0.696
			c-0.269,1.702-0.643,3.818-1.124,6.348c-0.481,2.53-1.009,5.141-1.583,7.828c-0.124,0.569-0.26,1.151-0.408,1.746
			c-0.148,0.596-0.282,1.204-0.402,1.824c-0.17,0.673-0.326,1.347-0.469,2.018c-0.145,0.672-0.303,1.32-0.474,1.942
			c-0.208,0.93-0.597,2.499-1.172,4.701c-0.575,2.202-1.182,4.522-1.821,6.958c-0.76,3.057-1.47,5.854-2.129,8.393
			c-0.66,2.541-0.983,3.913-0.973,4.116c0.003,0.051,0.005,0.089,0.006,0.114c0.002,0.025,0.004,0.064,0.006,0.114
			c0.014,0.256,0.038,0.497,0.077,0.725c0.036,0.229,0.085,0.419,0.144,0.567c0.006,0.104,0.023,0.203,0.055,0.305
			c0.03,0.102,0.049,0.201,0.054,0.304c0.055,0.1,0.086,0.187,0.09,0.264s0.009,0.166,0.014,0.268
			c0.003,0.051,0.006,0.113,0.01,0.19c0.004,0.077,0.009,0.166,0.014,0.269L182.868,145.22z"/>
		<path fill="#E72984" d="M206.82,141.356c-0.043,0.155-0.073,0.323-0.089,0.503c-0.017,0.181-0.046,0.348-0.089,0.503
			c-0.123,0.57-0.286,1.115-0.489,1.637s-0.554,0.898-1.052,1.128c-0.049,0.055-0.15,0.085-0.303,0.094
			c-0.152,0.008-0.306,0.016-0.458,0.023c-0.358,0.02-0.805,0.018-1.343-0.006s-1.065-0.072-1.579-0.148
			c-0.207-0.039-0.387-0.067-0.542-0.086c-0.154-0.018-0.335-0.046-0.541-0.087c-0.464-0.078-0.903-0.145-1.314-0.2
			c-0.413-0.056-0.747-0.101-1.005-0.139c-0.308-0.033-0.63-0.081-0.965-0.141c-0.336-0.06-0.659-0.131-0.97-0.218
			c-1.084-0.198-2.085-0.505-3-0.916c-0.917-0.411-1.392-0.95-1.427-1.612c-0.005-0.102-0.009-0.165-0.01-0.191
			c-0.001-0.024-0.003-0.063-0.006-0.114c0.032-0.359,0.079-0.682,0.141-0.967c0.062-0.282,0.111-0.555,0.15-0.812
			c0.046-0.053,0.07-0.105,0.067-0.157c0.043-0.156,0.073-0.31,0.091-0.465c0.017-0.154,0.048-0.31,0.091-0.465l1.922-8.689
			l8.578-39.711c0.214-0.778,0.429-1.543,0.646-2.296c0.216-0.753,0.489-1.393,0.819-1.922c0.143-0.211,0.452-0.395,0.93-0.547
			s0.971-0.243,1.482-0.271c0.203-0.01,0.382-0.02,0.535-0.027c0.153-0.009,0.307,0.01,0.463,0.053
			c0.05-0.003,0.101-0.005,0.153-0.008c0.359,0.032,1.011,0.05,1.958,0.051c0.945,0.002,1.959,0.076,3.04,0.224
			c1.339,0.187,2.57,0.518,3.695,0.994c1.124,0.479,1.713,1.228,1.766,2.247c0.019,0.357,0.012,0.716-0.02,1.075
			c-0.033,0.359-0.09,0.721-0.173,1.082c-0.041,0.207-0.083,0.388-0.125,0.544c-0.043,0.155-0.085,0.337-0.125,0.543l-4.084,15.703
			l1.295-0.146c0.354-0.066,0.766-0.242,1.238-0.523c0.47-0.279,0.952-0.611,1.443-0.995c0.198-0.113,0.382-0.251,0.554-0.413
			c0.17-0.163,0.353-0.324,0.549-0.489c0.392-0.327,0.745-0.639,1.064-0.937c0.316-0.297,0.596-0.557,0.841-0.774
			c2.629-2.488,4.566-5.055,5.807-7.704c1.242-2.646,2.295-5.448,3.163-8.408c0.218-0.727,0.644-1.376,1.279-1.945
			c0.634-0.57,1.334-0.875,2.099-0.915c0.101-0.005,0.178-0.009,0.229-0.013c0.051-0.003,0.128,0.02,0.234,0.064
			c0.05-0.003,0.116,0.008,0.193,0.028c0.078,0.022,0.142,0.03,0.193,0.027c0.517,0.127,1.074,0.251,1.669,0.373
			c0.593,0.123,1.227,0.27,1.901,0.438c1.401,0.387,2.703,0.868,3.91,1.444c1.205,0.576,1.861,1.372,1.966,2.389
			c0.008,0.152,0.003,0.319-0.013,0.499c-0.016,0.181-0.07,0.375-0.161,0.583c-0.223,0.626-0.434,1.226-0.634,1.798
			c-0.2,0.574-0.413,1.146-0.639,1.72c-0.128,0.468-0.272,0.909-0.428,1.326c-0.159,0.419-0.302,0.834-0.433,1.25
			c-0.366,0.838-0.742,1.701-1.13,2.59c-0.388,0.891-0.838,1.808-1.351,2.754c-1.305,2.421-2.744,4.707-4.318,6.859
			c-1.574,2.153-3.191,3.991-4.849,5.508c-0.828,0.811-1.659,1.519-2.496,2.124c-0.838,0.608-1.656,1.111-2.452,1.509l-4.408,2.225
			c1.913,2.354,3.308,4.097,4.186,5.227c0.876,1.13,1.593,2.14,2.152,3.03c0.055,0.1,0.111,0.186,0.167,0.26
			c0.054,0.074,0.11,0.161,0.167,0.26c0.335,0.545,0.684,1.115,1.048,1.709c0.363,0.595,0.824,1.336,1.382,2.228
			c0.225,0.398,0.463,0.795,0.714,1.188c0.251,0.398,0.514,0.792,0.791,1.188c0.005,0.102,0.035,0.188,0.09,0.263
			c0.054,0.074,0.111,0.161,0.167,0.26c0.949,1.535,1.806,2.985,2.567,4.353c0.762,1.366,1.182,2.302,1.26,2.81l0.004,0.075
			l0.004,0.077c0.032,0.611-0.273,1.164-0.91,1.658c-0.64,0.493-1.33,0.964-2.074,1.412c-0.049,0.053-0.086,0.081-0.11,0.082
			c-0.027,0.002-0.064,0.028-0.111,0.083c-0.25,0.114-0.486,0.241-0.709,0.382c-0.222,0.139-0.433,0.292-0.627,0.456
			c-0.347,0.221-0.706,0.444-1.078,0.669c-0.371,0.222-0.731,0.446-1.076,0.67c-0.749,0.346-1.462,0.651-2.138,0.917
			c-0.676,0.265-1.218,0.409-1.626,0.43c-0.051,0.003-0.114,0.006-0.191,0.01c-0.076,0.004-0.141,0.009-0.191,0.011
			c-0.513-0.024-0.944-0.194-1.292-0.508c-0.35-0.314-0.636-0.67-0.861-1.065l-12.601-20.966L206.82,141.356z"/>
		<path fill="#E72984" d="M281.343,99.096c1.038,0.153,1.982,0.501,2.835,1.049c0.853,0.547,1.33,1.307,1.433,2.279
			c0.033,0.618-0.074,1.292-0.318,2.024c-0.245,0.735-0.496,1.599-0.753,2.589c-0.091,0.263-0.166,0.511-0.231,0.745
			c-0.064,0.234-0.117,0.482-0.154,0.742c0.002,0.051-0.006,0.129-0.025,0.233c-0.021,0.104-0.029,0.183-0.027,0.232
			c0.004,0.053-0.02,0.131-0.064,0.234c0.009,0.155,0.003,0.298-0.016,0.427c-0.021,0.13-0.025,0.247-0.021,0.349
			c0.563-0.029,1.114-0.098,1.649-0.202c0.535-0.105,1.053-0.299,1.553-0.583c1.251-0.684,2.298-1.575,3.142-2.675
			c0.843-1.1,1.413-2.249,1.711-3.449c0.089-0.262,0.152-0.535,0.189-0.821c0.036-0.284,0.048-0.555,0.034-0.812
			c-0.002-0.051-0.004-0.09-0.006-0.115c-0.002-0.026-0.004-0.064-0.006-0.115c-0.095-1.797-0.934-3.067-2.516-3.807
			c-1.584-0.741-3.532-1.075-5.846-1.006c-0.924,0.049-1.797,0.106-2.616,0.175c-0.82,0.069-1.609,0.252-2.365,0.548
			c-0.255,0.064-0.521,0.157-0.797,0.274c-0.276,0.118-0.54,0.26-0.788,0.427c0.154-0.008,0.282,0.013,0.389,0.057
			c0.105,0.046,0.211,0.093,0.316,0.138c0.264,0.142,0.596,0.317,0.993,0.528c0.397,0.21,1.142,0.416,2.233,0.617L281.343,99.096z
			 M271.112,101.331c-0.211-0.093-0.371-0.175-0.477-0.246c-0.107-0.072-0.213-0.129-0.318-0.176
			c-0.108-0.097-0.239-0.153-0.396-0.173c-0.155-0.017-0.461,0.038-0.918,0.165c-0.257,0.014-0.535,0.092-0.837,0.235
			c-0.301,0.146-0.628,0.304-0.979,0.477c-0.148,0.112-0.287,0.196-0.412,0.253c-0.125,0.06-0.265,0.118-0.416,0.178
			c-0.25,0.117-0.49,0.207-0.719,0.269c-0.228,0.063-0.472,0.102-0.728,0.115c-0.566,0.03-1.027-0.189-1.386-0.661
			c-0.36-0.47-0.633-1.009-0.819-1.617c-0.009-0.154-0.028-0.295-0.06-0.422c-0.033-0.126-0.054-0.267-0.062-0.421
			c-0.002-0.051-0.004-0.09-0.006-0.116c-0.001-0.024-0.003-0.063-0.007-0.116c-0.002-0.05-0.004-0.102-0.008-0.153
			c0.07-0.621,0.166-1.256,0.287-1.906c0.119-0.65,0.24-1.313,0.358-1.989c0.438-2.44,1.181-4.732,2.228-6.873
			c1.047-2.14,2.812-3.557,5.299-4.256c1.115-0.313,2.143-0.6,3.082-0.855c0.938-0.255,1.867-0.458,2.787-0.61
			c1.067-0.26,2.149-0.471,3.248-0.633c1.099-0.16,2.312-0.326,3.643-0.5c0.355-0.07,0.701-0.114,1.035-0.132
			c0.335-0.018,0.681-0.035,1.039-0.055c5.341-0.279,10.156,0.987,14.449,3.801c4.291,2.813,6.75,6.775,7.381,11.892
			c0.004,0.103,0.011,0.205,0.016,0.308c0.005,0.104,0.036,0.203,0.093,0.305c0.009,0.153,0.015,0.282,0.021,0.385
			c0.006,0.104,0.011,0.206,0.017,0.308c0.063,1.232,0.015,2.497-0.149,3.792c-0.164,1.296-0.441,2.623-0.834,3.982
			c-0.83,2.824-2.152,5.596-3.965,8.315c-1.816,2.721-4.088,5.055-6.816,6.999c-0.25,0.167-0.535,0.351-0.859,0.549
			c-0.324,0.197-0.662,0.406-1.009,0.631c-0.55,0.339-1.163,0.653-1.843,0.945c-0.68,0.294-1.348,0.587-2,0.877
			c-0.81,0.302-1.594,0.548-2.356,0.742c-0.762,0.194-1.45,0.309-2.067,0.34c-0.514,0.027-0.953-0.014-1.318-0.124
			c-0.367-0.108-0.658-0.261-0.873-0.457c-0.325-0.291-0.537-0.652-0.637-1.086c-0.101-0.431-0.188-0.878-0.264-1.337
			c-0.003-0.051-0.005-0.089-0.006-0.115c-0.002-0.025-0.004-0.064-0.006-0.116c-0.014-0.256-0.04-0.499-0.077-0.729
			c-0.039-0.229-0.089-0.445-0.149-0.648c-0.015-0.256-0.103-0.483-0.268-0.682c-0.165-0.195-0.328-0.368-0.49-0.515
			c-0.108-0.097-0.203-0.194-0.285-0.294c-0.082-0.098-0.153-0.197-0.209-0.298c-0.602,2.298-1.095,4.177-1.48,5.638
			c-0.047,0.106-0.079,0.225-0.098,0.354c-0.021,0.129-0.053,0.247-0.098,0.352c-0.125,0.574-0.248,1.147-0.373,1.719
			c-0.125,0.574-0.25,1.121-0.377,1.642c-0.123,0.625-0.256,1.275-0.4,1.95c-0.146,0.68-0.276,1.355-0.396,2.03
			c-0.362,1.925-0.666,3.755-0.909,5.492c-0.244,1.738-0.404,2.867-0.479,3.384c-0.028,0.465-0.242,0.8-0.643,0.999
			c-0.402,0.202-0.886,0.317-1.449,0.348c-0.258,0.013-0.528,0.015-0.812,0.004c-0.284-0.013-0.581-0.034-0.892-0.07
			c-0.26-0.037-0.518-0.062-0.776-0.075c-0.258-0.012-0.516-0.012-0.772,0.002c-0.26-0.037-0.543-0.06-0.854-0.072
			c-0.309-0.007-0.619-0.029-0.929-0.065c-1.655-0.119-3.161-0.375-4.521-0.768s-2.097-1.202-2.213-2.433
			c-0.005-0.103,0-0.232,0.02-0.386c0.017-0.156,0.047-0.312,0.091-0.469c0.205-0.989,0.565-2.938,1.084-5.849
			c0.517-2.911,1.126-6.007,1.83-9.286c0.202-1.041,0.407-2.042,0.614-3.006c0.207-0.963,0.414-1.913,0.623-2.852
			c0.213-0.834,0.424-1.722,0.633-2.659c0.207-0.938,0.443-1.876,0.701-2.817c0.043-0.155,0.088-0.299,0.133-0.431
			c0.044-0.13,0.062-0.273,0.055-0.427c0.641-2.505,1.5-5.742,2.58-9.711L271.112,101.331z"/>
		<path fill="#E72984" d="M319.034,81.521c0.076-0.519,0.656-0.975,1.743-1.366c1.086-0.392,2.296-0.622,3.632-0.692
			c0.051-0.003,0.089-0.005,0.115-0.006c0.025-0.001,0.064-0.003,0.115-0.006c0.463-0.024,0.926-0.036,1.389-0.034
			c0.464,0.002,0.877,0.044,1.242,0.127c0.156,0.044,0.326,0.074,0.508,0.09c0.18,0.018,0.35,0.047,0.506,0.088
			c1.402,0.236,2.695,0.595,3.879,1.072c1.184,0.479,1.887,1.382,2.111,2.707c0.003,0.053,0.006,0.104,0.008,0.155
			c0.003,0.052,0.006,0.104,0.008,0.153c0.021,0.412-0.023,0.787-0.134,1.128c-0.11,0.342-0.21,0.667-0.296,0.98l-0.073,0.081
			c-0.041,0.208-0.095,0.391-0.164,0.549s-0.125,0.342-0.164,0.549c-0.623,2.865-1.345,6.275-2.167,10.23
			c-0.822,3.956-1.664,8.042-2.523,12.257c-0.047,0.106-0.079,0.224-0.098,0.354c-0.02,0.129-0.053,0.247-0.098,0.353
			c-1.438,6.975-2.789,13.351-4.055,19.133c-1.269,5.78-2.039,8.987-2.315,9.619c-0.371,0.792-0.933,1.35-1.688,1.672
			s-1.596,0.508-2.52,0.558c-0.412,0.021-0.822,0.017-1.236-0.014c-0.414-0.029-0.853-0.059-1.316-0.085
			c-0.262-0.039-0.547-0.087-0.858-0.147c-0.312-0.062-0.598-0.11-0.856-0.148c-0.053,0.003-0.104-0.008-0.156-0.03
			c-0.053-0.023-0.105-0.033-0.156-0.03c-1.349-0.188-2.627-0.507-3.834-0.958c-1.209-0.45-2.029-1.387-2.464-2.807
			c-0.065-0.252-0.117-0.507-0.156-0.763c-0.04-0.255-0.065-0.51-0.079-0.768c-0.039-0.771,0.006-1.609,0.139-2.519
			c0.132-0.907,0.328-1.832,0.589-2.771c0.036-0.259,0.099-0.547,0.187-0.859c0.086-0.314,0.172-0.627,0.26-0.94
			c0.059-0.825,0.649-3.56,1.771-8.201c1.121-4.641,2.36-9.7,3.724-15.178c0.045-0.104,0.066-0.184,0.063-0.234
			c0.042-0.157,0.073-0.3,0.094-0.43c0.019-0.13,0.052-0.248,0.097-0.353c1.314-5.371,2.522-10.313,3.625-14.825
			c1.103-4.51,1.686-7.128,1.752-7.853L319.034,81.521z"/>
		<path fill="#E72984" d="M376.858,135.715c-0.076,0.52-0.506,0.914-1.289,1.188c-0.785,0.271-1.767,0.438-2.946,0.501
			c-0.616,0.032-1.247,0.04-1.892,0.021c-0.646-0.017-1.304-0.06-1.976-0.128c-1.504-0.178-2.948-0.476-4.333-0.893
			c-1.387-0.417-2.457-0.939-3.21-1.569c-0.322-0.24-0.646-1.021-0.972-2.343c-0.328-1.322-0.661-2.772-1.002-4.35
			c-0.129-0.508-0.246-1.029-0.352-1.565c-0.105-0.534-0.195-1.032-0.271-1.491l-4.174-19.243l-6.351,29.14
			c-0.082,0.417-0.164,0.807-0.247,1.171c-0.085,0.366-0.171,0.678-0.26,0.94c-0.268,0.786-0.59,1.267-0.967,1.44
			s-0.926,0.28-1.643,0.318c-0.259,0.013-0.541,0.027-0.849,0.044c-0.308,0.016-0.666,0.062-1.074,0.134
			c-0.052,0.003-0.116,0.006-0.192,0.01c-0.078,0.004-0.143,0.007-0.192,0.01c-0.101,0.059-0.188,0.088-0.267,0.092
			c-0.076,0.005-0.166,0.009-0.269,0.015c-0.462,0.023-1.017,0.027-1.66,0.009c-0.645-0.017-1.305-0.086-1.979-0.205
			c-1.297-0.188-2.487-0.538-3.568-1.048c-1.083-0.51-1.677-1.277-1.781-2.301c-0.019-0.359-0.025-0.694-0.015-1.003
			c0.01-0.31,0.033-0.594,0.071-0.854c-0.01-0.204,0.004-0.411,0.045-0.62c0.039-0.207,0.08-0.416,0.121-0.624l2.285-9.464
			l9.332-40.029c-0.004-0.051-0.006-0.089-0.006-0.115c-0.002-0.025,0.021-0.065,0.07-0.119c0.152-0.985,0.505-1.894,1.055-2.72
			c0.547-0.826,1.361-1.269,2.44-1.325c0.103-0.005,0.192-0.01,0.269-0.015c0.077-0.004,0.166-0.009,0.271-0.014
			c0.05-0.003,0.128,0.007,0.233,0.027c0.103,0.02,0.181,0.028,0.232,0.025c0.157,0.043,0.312,0.074,0.468,0.092
			s0.31,0.022,0.464,0.015c0.361,0.032,0.699,0.079,1.012,0.14c0.312,0.061,0.649,0.108,1.012,0.141
			c1.658,0.221,3.286,0.587,4.884,1.095c1.597,0.509,2.942,1.378,4.036,2.606c0.768,0.888,1.432,2.023,1.994,3.41
			c0.561,1.387,1.091,2.916,1.592,4.589c0.132,0.56,0.29,1.117,0.475,1.674c0.183,0.559,0.367,1.113,0.549,1.671
			c0.121,0.354,0.229,0.683,0.322,0.985c0.094,0.305,0.199,0.609,0.318,0.91c0.188,0.609,0.371,1.179,0.553,1.71
			c0.184,0.53,0.365,1.05,0.545,1.556c0.004,0.051,0.031,0.102,0.086,0.148c0.181,0.506,0.363,1.037,0.547,1.593
			c0.184,0.559,0.369,1.166,0.559,1.825l0.865-5.606c0.111-0.828,0.316-2.063,0.615-3.699c0.301-1.64,0.609-3.366,0.926-5.186
			c0.039-0.207,0.082-0.391,0.127-0.546c0.042-0.157,0.059-0.338,0.049-0.544c0.283-1.455,0.57-2.86,0.859-4.216
			c0.289-1.353,0.517-2.42,0.682-3.201c0.046-0.104,0.091-0.224,0.136-0.354c0.044-0.131,0.114-0.276,0.209-0.437
			c0.183-0.421,0.472-0.823,0.864-1.203c0.393-0.381,0.844-0.586,1.357-0.612c0.049-0.053,0.086-0.068,0.114-0.044
			c0.026,0.024,0.065,0.034,0.117,0.031c0.052-0.002,0.103-0.005,0.154-0.008c0.204-0.011,0.876,0.032,2.014,0.127
			s2.384,0.288,3.737,0.575c1.408,0.339,2.732,0.823,3.976,1.454c1.242,0.63,1.894,1.483,1.95,2.561
			c0.018,0.361,0.012,0.723-0.021,1.082c-0.033,0.363-0.092,0.7-0.178,1.015c-0.044,0.155-0.074,0.301-0.094,0.429
			c-0.02,0.131-0.051,0.273-0.094,0.431c-0.041,0.208-0.081,0.417-0.121,0.623c-0.041,0.209-0.08,0.443-0.118,0.701
			c-0.271,1.714-0.647,3.846-1.132,6.394c-0.485,2.547-1.016,5.176-1.596,7.883c-0.123,0.572-0.26,1.16-0.41,1.759
			c-0.148,0.6-0.283,1.212-0.404,1.836c-0.171,0.678-0.329,1.356-0.473,2.033c-0.146,0.676-0.305,1.329-0.478,1.955
			c-0.209,0.937-0.603,2.517-1.18,4.734c-0.579,2.22-1.19,4.555-1.834,7.008c-0.765,3.078-1.479,5.896-2.144,8.451
			c-0.666,2.56-0.992,3.941-0.98,4.146c0.003,0.052,0.005,0.091,0.006,0.116c0.002,0.025,0.004,0.064,0.006,0.114
			c0.014,0.259,0.039,0.5,0.077,0.73c0.038,0.229,0.087,0.421,0.146,0.572c0.006,0.104,0.023,0.204,0.056,0.306
			c0.03,0.102,0.049,0.203,0.055,0.306c0.056,0.102,0.086,0.188,0.091,0.267c0.004,0.076,0.008,0.167,0.014,0.268
			c0.002,0.052,0.006,0.116,0.01,0.193s0.009,0.168,0.014,0.27L376.858,135.715z"/>
		<path fill="#E72984" d="M400.98,131.824c-0.044,0.158-0.073,0.327-0.09,0.507c-0.017,0.183-0.046,0.352-0.089,0.507
			c-0.125,0.574-0.288,1.122-0.493,1.648c-0.204,0.525-0.558,0.905-1.06,1.137c-0.049,0.054-0.15,0.084-0.305,0.093
			c-0.152,0.009-0.308,0.017-0.462,0.024c-0.36,0.019-0.81,0.017-1.353-0.006c-0.541-0.023-1.071-0.073-1.59-0.149
			c-0.209-0.04-0.391-0.068-0.545-0.087c-0.156-0.017-0.338-0.046-0.545-0.087c-0.468-0.079-0.91-0.146-1.324-0.202
			c-0.416-0.056-0.752-0.101-1.012-0.139c-0.31-0.035-0.635-0.083-0.973-0.144c-0.338-0.059-0.662-0.132-0.977-0.219
			c-1.092-0.2-2.1-0.508-3.021-0.922c-0.924-0.415-1.403-0.957-1.438-1.624c-0.004-0.103-0.008-0.166-0.01-0.192
			c0-0.025-0.003-0.064-0.006-0.115c0.032-0.362,0.08-0.687,0.143-0.974c0.062-0.285,0.113-0.558,0.15-0.818
			c0.049-0.055,0.071-0.106,0.069-0.159c0.042-0.156,0.073-0.312,0.091-0.467c0.018-0.156,0.048-0.312,0.091-0.47l1.937-8.75
			l8.638-39.992c0.216-0.783,0.433-1.554,0.651-2.312c0.217-0.758,0.492-1.404,0.826-1.937c0.143-0.212,0.453-0.396,0.936-0.551
			c0.48-0.153,0.979-0.243,1.492-0.271c0.203-0.011,0.385-0.02,0.539-0.028s0.309,0.01,0.466,0.053
			c0.051-0.004,0.103-0.006,0.153-0.009c0.362,0.033,1.019,0.051,1.973,0.052c0.951,0.002,1.974,0.077,3.062,0.226
			c1.348,0.188,2.588,0.521,3.721,1.002c1.132,0.481,1.725,1.236,1.779,2.262c0.019,0.36,0.01,0.722-0.021,1.082
			c-0.033,0.362-0.092,0.727-0.174,1.092c-0.041,0.209-0.084,0.39-0.127,0.546c-0.043,0.157-0.086,0.341-0.125,0.549l-4.113,15.813
			l1.305-0.146c0.356-0.068,0.771-0.245,1.247-0.528c0.474-0.282,0.958-0.616,1.453-1.002c0.199-0.114,0.385-0.253,0.558-0.416
			c0.172-0.164,0.355-0.327,0.553-0.492c0.395-0.33,0.75-0.645,1.07-0.944c0.319-0.3,0.601-0.56,0.848-0.778
			c2.648-2.506,4.599-5.093,5.849-7.759c1.251-2.665,2.312-5.488,3.187-8.468c0.219-0.732,0.647-1.387,1.287-1.961
			c0.639-0.573,1.344-0.881,2.113-0.921c0.102-0.006,0.18-0.01,0.23-0.012c0.052-0.003,0.13,0.02,0.236,0.064
			c0.051-0.003,0.116,0.008,0.194,0.027c0.078,0.023,0.144,0.031,0.194,0.028c0.521,0.128,1.082,0.253,1.681,0.376
			c0.597,0.124,1.235,0.272,1.915,0.44c1.41,0.39,2.723,0.875,3.938,1.454c1.213,0.58,1.873,1.383,1.979,2.406
			c0.008,0.154,0.003,0.322-0.013,0.503c-0.016,0.183-0.07,0.377-0.162,0.587c-0.225,0.629-0.438,1.233-0.639,1.811
			s-0.416,1.153-0.644,1.73c-0.129,0.473-0.274,0.917-0.433,1.337c-0.158,0.423-0.303,0.841-0.436,1.26
			c-0.367,0.843-0.747,1.712-1.137,2.606c-0.391,0.896-0.846,1.821-1.361,2.774c-1.314,2.438-2.763,4.74-4.348,6.908
			c-1.586,2.168-3.214,4.019-4.885,5.546c-0.834,0.815-1.67,1.528-2.512,2.14c-0.845,0.611-1.668,1.118-2.47,1.519l-4.438,2.241
			c1.925,2.371,3.33,4.125,4.213,5.264c0.884,1.139,1.606,2.153,2.168,3.052c0.057,0.1,0.113,0.187,0.169,0.261
			c0.055,0.075,0.11,0.162,0.168,0.262c0.338,0.549,0.688,1.122,1.056,1.721c0.365,0.599,0.829,1.347,1.391,2.244
			c0.228,0.4,0.467,0.8,0.721,1.197c0.252,0.4,0.517,0.797,0.796,1.194c0.005,0.104,0.035,0.192,0.091,0.266
			c0.055,0.075,0.111,0.162,0.168,0.262c0.956,1.547,1.819,3.007,2.585,4.383c0.769,1.375,1.19,2.318,1.269,2.829l0.004,0.078
			l0.005,0.076c0.032,0.615-0.274,1.173-0.917,1.669c-0.645,0.497-1.34,0.972-2.088,1.423c-0.049,0.053-0.086,0.082-0.111,0.083
			c-0.027,0.001-0.064,0.028-0.111,0.083c-0.252,0.115-0.49,0.243-0.714,0.385c-0.225,0.14-0.436,0.294-0.632,0.458
			c-0.35,0.224-0.711,0.449-1.085,0.674s-0.737,0.45-1.085,0.675c-0.753,0.35-1.471,0.657-2.152,0.924
			c-0.681,0.269-1.228,0.412-1.638,0.434c-0.052,0.003-0.115,0.006-0.192,0.01c-0.076,0.004-0.142,0.008-0.192,0.01
			c-0.517-0.023-0.95-0.193-1.3-0.511c-0.354-0.316-0.643-0.674-0.868-1.074l-12.691-21.113L400.98,131.824z"/>
		<path fill="#E72984" d="M444.069,93.602c0.033-0.311,0.176-1.279,0.426-2.91c0.247-1.63,0.527-3.403,0.837-5.319
			c0.048-0.053,0.071-0.12,0.067-0.197c-0.004-0.075,0.018-0.141,0.066-0.194c0.221-1.655,0.447-3.22,0.678-4.695
			c0.231-1.475,0.379-2.573,0.443-3.296c0.17-1.652,0.997-2.76,2.483-3.326c1.483-0.564,3.121-0.921,4.912-1.066
			c0.102-0.005,0.216-0.011,0.345-0.018c0.127-0.007,0.242-0.013,0.346-0.018c0.255-0.015,0.524-0.028,0.806-0.043
			s0.551-0.028,0.807-0.042c0.051-0.002,0.102-0.006,0.154-0.009c0.05-0.003,0.102-0.005,0.153-0.008
			c0.409-0.021,0.832-0.031,1.27-0.029c0.436,0.005,0.91-0.008,1.423-0.034c1.285,0.036,2.474,0.191,3.566,0.467
			c1.093,0.278,1.688,0.874,1.788,1.793c0.003,0.052,0.008,0.142,0.015,0.27s-0.015,0.245-0.06,0.35
			c-0.046,0.105-0.092,0.224-0.135,0.354c-0.044,0.13-0.114,0.275-0.208,0.435c-0.098,0.108-0.18,0.24-0.249,0.397
			c-0.068,0.158-0.099,0.313-0.091,0.467l-5.817,18.326l-3.947,11.374c-0.13,0.468-0.262,0.886-0.396,1.253
			c-0.134,0.367-0.246,0.705-0.332,1.019c-0.043,0.155-0.088,0.287-0.133,0.392c-0.046,0.106-0.091,0.236-0.133,0.393
			c-0.097,0.158-0.177,0.329-0.243,0.514c-0.067,0.184-0.147,0.38-0.238,0.589c-0.411,0.997-0.905,1.602-1.483,1.811
			c-0.58,0.212-1.229,0.334-1.945,0.371c-0.052,0.003-0.128,0.008-0.23,0.013c-0.103,0.006-0.18,0.01-0.23,0.012
			c-0.104,0.006-0.192,0.011-0.27,0.015c-0.076,0.004-0.166,0.009-0.268,0.015c-0.205,0.01-0.396,0.02-0.576,0.029
			s-0.372,0.02-0.576,0.03c-0.154,0.008-0.32,0.018-0.499,0.026c-0.181,0.01-0.372,0.02-0.575,0.029
			c-1.028,0.005-1.984-0.112-2.869-0.35c-0.885-0.235-1.377-0.787-1.473-1.655c-0.003-0.051-0.005-0.089-0.006-0.115
			c-0.002-0.025,0.021-0.065,0.071-0.119c-0.003-0.051-0.005-0.089-0.007-0.115c-0.002-0.025-0.004-0.064-0.006-0.115
			c0.14-1.24,0.25-2.08,0.33-2.52c0.078-0.44,0.137-0.815,0.172-1.126c0.043-0.157,0.071-0.324,0.088-0.506
			c0.017-0.18,0.043-0.426,0.078-0.736L444.069,93.602z M449.823,122.564c0.896,1.442,1.395,3.11,1.495,5.005
			c0.002,0.051,0.005,0.103,0.008,0.154c0.002,0.051,0.006,0.128,0.012,0.23c0.048,1.897-0.556,3.622-1.808,5.177
			c-1.254,1.555-2.803,2.38-4.646,2.477c-0.052,0.003-0.116,0.007-0.192,0.011s-0.166,0.008-0.269,0.014
			c-1.851-0.058-3.327-0.775-4.426-2.155c-1.099-1.381-1.702-3.095-1.81-5.143c-0.08-1.536,0.369-3.01,1.348-4.423
			c0.977-1.41,2.068-2.405,3.27-2.981c0.303-0.117,0.592-0.21,0.871-0.276c0.279-0.064,0.547-0.105,0.803-0.119
			C447.144,120.446,448.926,121.123,449.823,122.564"/>
		<path fill="#FFFFFF" d="M364.634,51.59c-0.151,0.003-0.311,0.021-0.475,0.055c-0.166,0.032-0.338,0.081-0.518,0.145
			c-0.719,0.314-1.381,0.877-1.984,1.687c-0.605,0.81-0.899,1.668-0.884,2.572c0.021,1.206,0.341,2.228,0.959,3.061
			c0.618,0.835,1.47,1.287,2.558,1.358c0.061-0.001,0.113-0.002,0.158-0.003c0.047-0.001,0.084-0.001,0.113-0.002
			c1.057-0.018,1.977-0.471,2.76-1.36c0.784-0.889,1.182-1.892,1.192-3.007c-0.001-0.062-0.002-0.106-0.002-0.137
			c-0.001-0.029-0.001-0.06-0.002-0.091c-0.019-1.115-0.279-2.114-0.776-2.996c-0.499-0.881-1.547-1.323-3.146-1.325L364.634,51.59z
			 M351.648,51.817c-0.151,0.003-0.309,0.021-0.474,0.053c-0.166,0.034-0.338,0.082-0.518,0.146
			c-0.72,0.314-1.382,0.877-1.984,1.687c-0.605,0.811-0.899,1.667-0.883,2.572c0.021,1.207,0.34,2.228,0.957,3.061
			c0.619,0.834,1.472,1.287,2.559,1.358c0.061-0.001,0.113-0.002,0.159-0.002c0.045-0.001,0.081-0.002,0.112-0.002
			c1.056-0.02,1.976-0.473,2.76-1.361c0.783-0.888,1.182-1.891,1.193-3.008c-0.002-0.06-0.003-0.105-0.004-0.136
			c0-0.029-0.001-0.061-0.001-0.09c-0.021-1.116-0.278-2.114-0.776-2.996s-1.547-1.323-3.146-1.326L351.648,51.817z M338.665,52.044
			c-0.152,0.002-0.311,0.021-0.476,0.054c-0.165,0.032-0.338,0.082-0.517,0.145c-0.719,0.314-1.381,0.877-1.985,1.687
			c-0.604,0.811-0.899,1.668-0.883,2.572c0.021,1.207,0.34,2.228,0.959,3.062c0.616,0.834,1.47,1.287,2.558,1.357
			c0.061-0.001,0.113-0.002,0.158-0.003c0.045,0,0.083-0.001,0.113-0.002c1.056-0.018,1.976-0.471,2.76-1.359
			c0.784-0.89,1.182-1.892,1.191-3.009c0-0.06-0.002-0.104-0.002-0.136c0-0.03,0-0.06-0.002-0.09
			c-0.019-1.116-0.278-2.115-0.775-2.996c-0.499-0.881-1.547-1.323-3.146-1.326L338.665,52.044z M329.296,59.856
			c0-0.061-0.002-0.113-0.002-0.159c0-0.045-0.002-0.082-0.002-0.113c0-0.06-0.002-0.112-0.002-0.158
			c-0.002-0.045-0.018-0.097-0.049-0.157c0-0.061-0.01-0.12-0.025-0.181c-0.018-0.06-0.025-0.12-0.026-0.181
			c-0.032-0.09-0.056-0.203-0.073-0.338c-0.018-0.136-0.027-0.278-0.031-0.429c0-0.03,0-0.054,0-0.068s0-0.038-0.002-0.068
			c-0.002-0.12,0.218-0.924,0.66-2.409c0.441-1.486,0.918-3.124,1.431-4.913c0.428-1.427,0.834-2.783,1.219-4.072
			c0.384-1.289,0.647-2.206,0.789-2.752c0.114-0.364,0.22-0.743,0.319-1.137c0.099-0.394,0.205-0.788,0.318-1.183
			c0.084-0.364,0.176-0.72,0.276-1.068c0.099-0.349,0.19-0.689,0.276-1.023c0.395-1.575,0.761-3.105,1.097-4.59
			s0.601-2.727,0.795-3.726c0.026-0.15,0.055-0.286,0.083-0.408c0.027-0.12,0.056-0.242,0.084-0.363
			c0.027-0.091,0.049-0.174,0.064-0.25c0.013-0.076,0.033-0.159,0.062-0.25c0.057-0.183,0.1-0.379,0.126-0.591
			c0.026-0.211,0.037-0.423,0.034-0.635c-0.012-0.634-0.375-1.147-1.092-1.543c-0.715-0.394-1.482-0.704-2.301-0.932
			c-0.789-0.197-1.515-0.336-2.18-0.415s-1.059-0.117-1.179-0.115c-0.03,0-0.062,0.001-0.091,0.001
			c-0.03,0.001-0.053-0.006-0.068-0.021s-0.038-0.006-0.066,0.023c-0.303,0.006-0.572,0.116-0.81,0.331
			c-0.238,0.216-0.415,0.445-0.531,0.688c-0.059,0.091-0.103,0.176-0.131,0.251c-0.028,0.076-0.06,0.145-0.087,0.205
			c-0.113,0.455-0.27,1.076-0.466,1.864c-0.197,0.788-0.394,1.605-0.591,2.453c0.002,0.121-0.012,0.228-0.039,0.318
			c-0.029,0.091-0.059,0.197-0.086,0.318c-0.223,1.06-0.438,2.066-0.648,3.021s-0.355,1.674-0.438,2.157l-0.621,3.271
			c-0.098-0.391-0.194-0.752-0.291-1.081c-0.096-0.33-0.192-0.646-0.288-0.946c-0.031-0.029-0.046-0.06-0.048-0.089
			c-0.094-0.3-0.19-0.608-0.287-0.923c-0.096-0.315-0.192-0.653-0.288-1.014c-0.064-0.18-0.12-0.359-0.168-0.541
			c-0.05-0.18-0.105-0.375-0.169-0.585c-0.096-0.33-0.192-0.66-0.289-0.991c-0.096-0.329-0.178-0.659-0.243-0.99
			c-0.259-0.991-0.539-1.899-0.84-2.725c-0.302-0.824-0.667-1.504-1.099-2.04c-0.617-0.743-1.389-1.279-2.314-1.61
			c-0.926-0.33-1.873-0.578-2.842-0.743c-0.211-0.026-0.408-0.061-0.59-0.103s-0.379-0.075-0.59-0.103
			c-0.091,0.001-0.182-0.004-0.271-0.019c-0.092-0.013-0.182-0.033-0.273-0.062c-0.029,0-0.076-0.006-0.136-0.021
			c-0.062-0.014-0.106-0.021-0.136-0.021c-0.061,0.001-0.113,0.002-0.159,0.003c-0.045,0.001-0.099,0.002-0.158,0.003
			c-0.633,0.011-1.12,0.253-1.458,0.728c-0.339,0.474-0.564,0.998-0.674,1.572c-0.03,0.031-0.045,0.055-0.044,0.069
			c0,0.015,0,0.038,0.001,0.067l-6.292,23.281l-1.533,5.503c-0.028,0.122-0.057,0.243-0.084,0.364
			c-0.028,0.121-0.041,0.242-0.039,0.363c-0.028,0.151-0.048,0.316-0.059,0.499c-0.013,0.181-0.017,0.377-0.013,0.588
			c0.039,0.603,0.373,1.065,0.996,1.386c0.625,0.321,1.315,0.55,2.072,0.688c0.393,0.083,0.779,0.137,1.157,0.161
			c0.377,0.022,0.702,0.032,0.973,0.027c0.06-0.001,0.113-0.002,0.158-0.003c0.046-0.001,0.099-0.017,0.158-0.048
			c0.03-0.001,0.067-0.001,0.112-0.002s0.084-0.001,0.113-0.002c0.241-0.034,0.452-0.053,0.633-0.056
			c0.182-0.003,0.347-0.007,0.498-0.01c0.422-0.007,0.746-0.058,0.971-0.152s0.423-0.369,0.597-0.825
			c0.058-0.151,0.114-0.333,0.171-0.546c0.057-0.212,0.113-0.439,0.169-0.683l4.32-16.956l2.055,11.369
			c0.034,0.271,0.077,0.564,0.128,0.88c0.051,0.316,0.109,0.625,0.176,0.926c0.166,0.933,0.332,1.79,0.496,2.57
			c0.164,0.782,0.34,1.246,0.522,1.395c0.429,0.385,1.046,0.713,1.851,0.985c0.803,0.273,1.645,0.478,2.522,0.612
			c0.394,0.054,0.778,0.093,1.155,0.116s0.748,0.032,1.109,0.026c0.694-0.014,1.273-0.092,1.739-0.234
			c0.465-0.144,0.724-0.367,0.78-0.67L329.296,59.856z M302.206,34.984c0.906,0.015,1.576-0.419,2.014-1.302
			c0.438-0.884,0.768-1.84,0.99-2.869c0.113-0.424,0.205-0.841,0.273-1.249c0.068-0.409,0.145-0.795,0.229-1.158
			c-0.002-0.06,0.005-0.128,0.019-0.204c0.015-0.076,0.035-0.144,0.065-0.205c-0.002-0.03,0.006-0.06,0.021-0.091
			c0.015-0.03,0.021-0.06,0.021-0.091c0.029-0.091,0.05-0.189,0.063-0.295c0.013-0.106,0.019-0.204,0.017-0.295
			c0-0.061-0.01-0.127-0.025-0.203c-0.018-0.075-0.041-0.158-0.072-0.247c-0.097-0.361-0.419-0.679-0.967-0.957
			c-0.548-0.276-1.518-0.403-2.904-0.379l-14.884,0.305c-1.538,0.027-2.538,0.248-2.998,0.663c-0.461,0.416-0.819,1.033-1.077,1.852
			c-0.029,0.062-0.051,0.131-0.063,0.205c-0.015,0.076-0.035,0.159-0.063,0.25c-0.029,0.121-0.057,0.235-0.084,0.342
			c-0.029,0.105-0.072,0.22-0.131,0.342c-0.197,0.788-0.402,1.538-0.617,2.251c-0.214,0.713-0.377,1.312-0.488,1.796
			c0,0.03,0,0.061,0.002,0.09c0,0.031,0,0.062,0,0.091c0.007,0.362,0.125,0.692,0.357,0.989c0.231,0.298,0.543,0.443,0.936,0.437
			l1.808-0.122l-1.711,5.642c-0.122-0.027-0.243-0.048-0.364-0.062c-0.121-0.013-0.242-0.019-0.361-0.016
			c-0.062,0.001-0.113,0.001-0.158,0.002s-0.098,0.002-0.159,0.003c-0.149,0.033-0.3,0.073-0.45,0.121s-0.314,0.104-0.494,0.167
			c-0.121,0.033-0.246,0.148-0.38,0.346c-0.132,0.199-0.271,0.45-0.416,0.755c-0.116,0.273-0.239,0.562-0.37,0.866
			c-0.13,0.305-0.238,0.622-0.322,0.956c-0.058,0.183-0.114,0.357-0.172,0.523c-0.059,0.167-0.101,0.341-0.127,0.522
			c-0.029,0.062-0.051,0.137-0.063,0.228c-0.015,0.091-0.035,0.197-0.063,0.317c-0.084,0.273-0.147,0.584-0.187,0.932
			s-0.071,0.703-0.095,1.064c0.002,0.062,0.002,0.113,0.002,0.159c0.002,0.045,0.002,0.083,0.002,0.113
			c0.002,0.03,0.002,0.061,0.003,0.09c0,0.031,0.001,0.062,0.001,0.091c0.001,0.03,0.001,0.062,0.002,0.09
			c0.001,0.031,0.001,0.062,0.002,0.092c0.066,0.421,0.23,0.713,0.49,0.874c0.259,0.16,0.525,0.284,0.799,0.369
			c0.061-0.001,0.119,0.007,0.181,0.021c0.06,0.014,0.121,0.036,0.183,0.064l-1.354,5.409c0.002,0.09-0.005,0.174-0.019,0.249
			c-0.014,0.076-0.034,0.159-0.063,0.25c-0.026,0.152-0.047,0.304-0.06,0.454c-0.012,0.151-0.016,0.332-0.014,0.543
			c0.037,0.422,0.127,0.807,0.27,1.15c0.142,0.344,0.307,0.696,0.494,1.055c0.154,0.269,0.318,0.545,0.49,0.828
			c0.17,0.284,0.349,0.575,0.534,0.873c0.031,0.03,0.054,0.067,0.07,0.112s0.039,0.083,0.069,0.111
			c0.496,0.746,1.047,1.212,1.654,1.397c0.606,0.185,1.543,0.267,2.811,0.245c0.33-0.006,0.679-0.013,1.041-0.019
			c0.361-0.006,0.753-0.013,1.176-0.021c0.452-0.038,0.927-0.062,1.424-0.07c0.498-0.008,1.033-0.018,1.605-0.028
			c0.514-0.009,1.049-0.018,1.607-0.027c0.557-0.009,1.139-0.005,1.742,0.015c0.091-0.001,0.174-0.003,0.249-0.004
			c0.075-0.002,0.144-0.003,0.204-0.004s0.105-0.002,0.135-0.002c0.03-0.001,0.061,0.014,0.092,0.043
			c0.12-0.002,0.241-0.004,0.362-0.006c0.12-0.002,0.226-0.004,0.315-0.005c0.543-0.011,1.039-0.109,1.49-0.298
			c0.448-0.189,0.817-0.663,1.105-1.423c0.145-0.364,0.273-0.721,0.389-1.07c0.114-0.349,0.215-0.689,0.299-1.023
			c0.084-0.424,0.15-0.863,0.203-1.315c0.053-0.454,0.09-0.938,0.111-1.45c-0.001-0.03-0.001-0.061-0.002-0.091
			c0-0.029-0.001-0.061-0.001-0.091c-0.013-0.693-0.33-1.126-0.951-1.296c-0.622-0.17-1.31-0.232-2.062-0.189
			c-0.031,0-0.053,0-0.068,0.001c-0.016,0-0.038,0-0.068,0.001c-0.061,0.001-0.136,0.002-0.226,0.004
			c-0.091,0.001-0.166,0.003-0.228,0.004c-0.15,0.002-0.301,0.005-0.451,0.008c-0.151,0.002-0.303,0.005-0.452,0.008l-5.927,0.104
			l0.91-4.858c1.237,0.039,2.278,0.066,3.125,0.081c0.211,0.027,0.414,0.038,0.61,0.034c0.196-0.003,0.399,0.009,0.612,0.035
			c0.662,0.019,1.312,0.03,1.947,0.034c0.633,0.004,1.16,0.002,1.582-0.005c0.062-0.001,0.129-0.003,0.205-0.005
			c0.074-0.001,0.127-0.002,0.157-0.002c1.024-0.048,1.679-0.173,1.963-0.374c0.283-0.2,0.497-0.438,0.644-0.713
			c0.029-0.029,0.045-0.061,0.043-0.091c0.146-0.273,0.285-0.562,0.416-0.867c0.13-0.304,0.252-0.623,0.367-0.957
			c0.287-0.819,0.516-1.593,0.685-2.319c0.168-0.728,0.264-1.242,0.289-1.544c0-0.03-0.001-0.053-0.001-0.068
			c0-0.015,0-0.037-0.001-0.068c-0.007-0.422-0.144-0.796-0.404-1.124c-0.263-0.327-0.575-0.487-0.937-0.481
			c-0.241,0.005-0.754,0.006-1.539,0.005c-0.784-0.002-1.629-0.009-2.534-0.024c-0.091,0.001-0.166,0.003-0.226,0.004
			c-0.062,0.001-0.137,0.002-0.228,0.005c-0.966-0.014-2.218-0.022-3.756-0.025c-0.004-0.211-0.001-0.415,0.012-0.611
			c0.011-0.195,0.03-0.399,0.058-0.611c-0.002-0.061,0.004-0.128,0.019-0.204c0.013-0.076,0.021-0.159,0.019-0.25
			c0.027-0.12,0.047-0.256,0.061-0.408c0.012-0.151,0.017-0.301,0.015-0.453c-0.001-0.06-0.002-0.113-0.003-0.158
			s-0.002-0.083-0.002-0.113c-0.001-0.06-0.002-0.112-0.003-0.158c-0.001-0.045-0.002-0.098-0.003-0.158
			c0-0.03-0.01-0.075-0.025-0.135c-0.016-0.061-0.023-0.105-0.024-0.137c-0.033-0.149-0.118-0.275-0.255-0.38
			c-0.139-0.103-0.299-0.197-0.48-0.286c-0.031,0.001-0.068-0.013-0.113-0.043c-0.047-0.028-0.086-0.044-0.115-0.043
			c-0.273-0.146-0.51-0.308-0.709-0.485c-0.2-0.178-0.303-0.447-0.309-0.81c-0.001-0.029-0.001-0.052-0.002-0.067
			c0-0.016,0-0.037-0.001-0.068c0-0.029-0.001-0.06-0.001-0.09L302.206,34.984z M275.919,35.443
			c0.906,0.014,1.578-0.419,2.015-1.303c0.437-0.883,0.767-1.839,0.991-2.868c0.111-0.424,0.203-0.841,0.271-1.249
			c0.068-0.409,0.146-0.795,0.229-1.158c-0.001-0.061,0.005-0.129,0.019-0.204c0.014-0.076,0.035-0.144,0.064-0.205
			c0-0.03,0.006-0.06,0.021-0.091c0.014-0.03,0.021-0.061,0.021-0.091c0.028-0.091,0.049-0.189,0.063-0.295
			c0.012-0.106,0.019-0.204,0.016-0.295c0-0.061-0.01-0.128-0.025-0.203c-0.018-0.075-0.041-0.158-0.072-0.248
			c-0.097-0.36-0.418-0.678-0.967-0.956c-0.548-0.277-1.516-0.403-2.902-0.379l-14.885,0.305c-1.539,0.027-2.539,0.248-2.998,0.663
			c-0.462,0.416-0.82,1.033-1.076,1.852c-0.03,0.062-0.051,0.131-0.065,0.205c-0.015,0.076-0.035,0.159-0.063,0.25
			c-0.027,0.121-0.057,0.235-0.084,0.342c-0.029,0.105-0.072,0.22-0.131,0.341c-0.197,0.789-0.402,1.539-0.617,2.251
			c-0.213,0.714-0.377,1.312-0.488,1.797c0,0.03,0,0.061,0.002,0.09c0.001,0.031,0.001,0.062,0.002,0.091
			c0.006,0.362,0.125,0.692,0.355,0.989c0.232,0.298,0.543,0.443,0.937,0.436l1.808-0.121l-1.712,5.642
			c-0.121-0.027-0.243-0.048-0.362-0.062c-0.121-0.013-0.242-0.019-0.363-0.017c-0.061,0.001-0.113,0.002-0.158,0.003
			s-0.098,0.002-0.158,0.003c-0.15,0.033-0.301,0.073-0.451,0.121s-0.314,0.104-0.494,0.167c-0.121,0.032-0.246,0.148-0.379,0.346
			c-0.133,0.199-0.271,0.45-0.416,0.755c-0.117,0.273-0.24,0.562-0.371,0.865c-0.129,0.306-0.238,0.623-0.322,0.956
			c-0.057,0.183-0.114,0.357-0.172,0.524s-0.1,0.341-0.127,0.522c-0.028,0.062-0.051,0.137-0.063,0.228
			c-0.015,0.091-0.035,0.197-0.062,0.317c-0.086,0.273-0.148,0.584-0.188,0.932c-0.039,0.348-0.071,0.703-0.094,1.064
			c0.001,0.062,0.002,0.113,0.003,0.158c0,0.046,0.001,0.084,0.002,0.114c0,0.03,0.001,0.06,0.001,0.09
			c0.001,0.03,0.001,0.062,0.002,0.091c0,0.03,0.001,0.061,0.001,0.09c0.001,0.03,0.001,0.062,0.002,0.092
			c0.066,0.421,0.23,0.713,0.49,0.874c0.259,0.16,0.525,0.284,0.799,0.369c0.061-0.001,0.12,0.007,0.182,0.021
			c0.061,0.014,0.12,0.036,0.182,0.063l-1.354,5.41c0.001,0.09-0.005,0.174-0.02,0.249c-0.014,0.076-0.034,0.159-0.062,0.25
			c-0.027,0.152-0.048,0.304-0.06,0.454c-0.013,0.151-0.017,0.332-0.013,0.543c0.037,0.422,0.127,0.806,0.269,1.149
			c0.142,0.345,0.306,0.697,0.493,1.055c0.156,0.27,0.318,0.546,0.49,0.829c0.17,0.284,0.349,0.575,0.535,0.873
			c0.03,0.03,0.053,0.067,0.07,0.112c0.016,0.045,0.038,0.083,0.068,0.111c0.496,0.746,1.048,1.212,1.654,1.397
			c0.606,0.185,1.543,0.267,2.811,0.245c0.332-0.006,0.679-0.013,1.041-0.019c0.361-0.006,0.754-0.013,1.176-0.021
			c0.452-0.038,0.928-0.062,1.426-0.07c0.496-0.009,1.032-0.018,1.605-0.028c0.512-0.009,1.048-0.018,1.605-0.027
			c0.559-0.01,1.139-0.005,1.743,0.015c0.091-0.002,0.173-0.003,0.249-0.004c0.074-0.002,0.143-0.003,0.203-0.004
			s0.105-0.002,0.137-0.002c0.029-0.001,0.059,0.013,0.09,0.043c0.121-0.002,0.242-0.004,0.362-0.006s0.226-0.004,0.317-0.006
			c0.543-0.01,1.039-0.108,1.488-0.297c0.449-0.189,0.817-0.663,1.106-1.423c0.144-0.364,0.274-0.721,0.388-1.07
			c0.115-0.349,0.215-0.689,0.299-1.023c0.084-0.424,0.151-0.863,0.205-1.315c0.051-0.454,0.088-0.938,0.109-1.45
			c0-0.03-0.001-0.062-0.001-0.091c-0.001-0.03-0.001-0.061-0.002-0.091c-0.013-0.693-0.329-1.126-0.95-1.296
			c-0.621-0.171-1.31-0.232-2.062-0.19c-0.03,0.001-0.053,0.001-0.068,0.002c-0.016,0-0.038,0-0.068,0.001
			c-0.061,0.001-0.135,0.002-0.226,0.004c-0.09,0.001-0.166,0.003-0.226,0.004c-0.151,0.002-0.303,0.005-0.453,0.008
			c-0.151,0.002-0.301,0.005-0.452,0.007l-5.927,0.104l0.91-4.859c1.237,0.04,2.279,0.067,3.125,0.082
			c0.211,0.026,0.414,0.038,0.611,0.034c0.195-0.003,0.398,0.009,0.611,0.035c0.664,0.019,1.312,0.03,1.947,0.034
			c0.634,0.004,1.16,0.002,1.584-0.005c0.06-0.001,0.127-0.004,0.203-0.005c0.074-0.001,0.127-0.002,0.158-0.003
			c1.024-0.047,1.678-0.172,1.963-0.373c0.282-0.2,0.496-0.438,0.644-0.713c0.028-0.029,0.044-0.061,0.043-0.091
			c0.146-0.273,0.284-0.562,0.415-0.867c0.131-0.304,0.253-0.623,0.367-0.957c0.287-0.819,0.517-1.593,0.685-2.319
			c0.168-0.728,0.265-1.242,0.29-1.544c-0.001-0.03-0.001-0.054-0.001-0.068c-0.001-0.015-0.001-0.038-0.002-0.068
			c-0.007-0.422-0.142-0.797-0.404-1.124c-0.262-0.326-0.573-0.487-0.936-0.481c-0.242,0.004-0.755,0.006-1.539,0.004
			c-0.785-0.001-1.63-0.009-2.535-0.023c-0.09,0.001-0.166,0.003-0.226,0.004c-0.062,0.001-0.137,0.002-0.227,0.005
			c-0.966-0.014-2.218-0.022-3.757-0.025c-0.004-0.211,0-0.415,0.012-0.612c0.011-0.195,0.03-0.399,0.058-0.61
			c-0.002-0.062,0.004-0.13,0.019-0.204c0.015-0.076,0.021-0.159,0.019-0.25c0.027-0.12,0.047-0.257,0.061-0.408
			s0.018-0.302,0.016-0.453c-0.002-0.06-0.002-0.113-0.004-0.158c-0.001-0.046-0.001-0.083-0.002-0.112
			c-0.001-0.061-0.002-0.114-0.002-0.159c-0.001-0.045-0.002-0.098-0.003-0.158c-0.001-0.03-0.009-0.075-0.024-0.135
			c-0.018-0.061-0.025-0.105-0.025-0.137c-0.033-0.149-0.118-0.275-0.256-0.38c-0.137-0.103-0.297-0.197-0.48-0.286
			c-0.029,0.001-0.068-0.013-0.113-0.043c-0.047-0.028-0.084-0.044-0.114-0.043c-0.274-0.146-0.511-0.308-0.71-0.485
			s-0.303-0.447-0.309-0.81c0-0.029,0-0.052,0-0.067c-0.002-0.016-0.002-0.037-0.002-0.068c-0.001-0.029-0.001-0.06-0.002-0.09
			L275.919,35.443z M237.023,36.937c-0.182-0.087-0.403-0.182-0.661-0.282c-0.258-0.101-0.524-0.21-0.798-0.326
			c-0.03,0.001-0.068-0.006-0.113-0.02c-0.046-0.015-0.084-0.036-0.115-0.066c-0.425-0.174-0.835-0.325-1.229-0.454
			c-0.395-0.129-0.683-0.191-0.864-0.188l-0.045,0.001c0.06-0.031,0.135-0.07,0.224-0.117c0.09-0.047,0.195-0.086,0.315-0.118
			c0.359-0.157,0.839-0.302,1.441-0.433c0.601-0.132,1.218-0.218,1.851-0.26c0.09-0.001,0.188-0.003,0.294-0.005
			c0.105-0.002,0.204-0.003,0.294-0.005c0.151-0.002,0.309-0.005,0.475-0.008s0.309,0.01,0.431,0.038
			c1.783,0.21,3.013,0.626,3.687,1.248c0.675,0.622,1.006,1.461,0.995,2.517c0,0.03,0.001,0.068,0.002,0.113
			s0.001,0.083,0.002,0.113c0.001,0.061,0.002,0.105,0.002,0.136c0.001,0.03,0.001,0.075,0.003,0.136
			c0.002,0.12-0.012,0.242-0.039,0.362c-0.029,0.122-0.072,0.243-0.13,0.365c-0.229,0.728-0.699,1.423-1.412,2.083
			c-0.712,0.662-1.502,1.211-2.37,1.647c-0.299,0.157-0.651,0.291-1.056,0.404c-0.405,0.113-0.85,0.188-1.331,0.227
			c0.056-0.212,0.106-0.394,0.149-0.546c0.042-0.151,0.077-0.288,0.106-0.409c0.028-0.061,0.05-0.129,0.064-0.204
			c0.013-0.075,0.035-0.145,0.064-0.205c0.17-0.666,0.334-1.197,0.493-1.594c0.158-0.394,0.265-0.773,0.319-1.137
			c0.029-0.091,0.05-0.174,0.064-0.25c0.014-0.075,0.02-0.158,0.018-0.249c-0.001-0.06-0.002-0.113-0.002-0.158
			c-0.001-0.045,0.013-0.083,0.043-0.113c-0.001-0.061-0.002-0.113-0.003-0.158c-0.001-0.046-0.001-0.083-0.002-0.114
			c-0.008-0.452-0.105-0.842-0.292-1.171s-0.493-0.55-0.917-0.663L237.023,36.937z M242.813,49.734
			c2.436-0.465,4.488-1.737,6.157-3.819c1.668-2.08,2.708-4.315,3.119-6.707c0.026-0.15,0.046-0.31,0.059-0.476
			s0.032-0.34,0.06-0.522c0.024-0.24,0.043-0.476,0.055-0.702c0.011-0.227,0.016-0.444,0.012-0.656
			c-0.088-3.257-1.367-5.762-3.843-7.514c-2.474-1.752-5.673-2.608-9.594-2.57c-1.388,0.023-2.72,0.161-3.998,0.408
			c-1.279,0.249-2.488,0.52-3.629,0.811c-0.481,0.13-0.954,0.259-1.419,0.387c-0.466,0.129-0.909,0.242-1.329,0.34
			c-0.692,0.164-1.233,0.663-1.626,1.499c-0.393,0.837-0.716,1.74-0.971,2.71c-0.142,0.546-0.26,1.092-0.356,1.637
			c-0.097,0.544-0.202,1.014-0.315,1.407c0,0.031-0.014,0.076-0.043,0.138c0.001,0.029,0.001,0.061,0.002,0.09
			c0,0.031,0.001,0.061,0.001,0.091c0.005,0.302,0.146,0.571,0.422,0.807c0.275,0.237,0.654,0.352,1.137,0.343
			c0.241-0.004,0.482-0.038,0.722-0.104c0.24-0.063,0.51-0.159,0.81-0.286c0.119-0.062,0.247-0.102,0.383-0.119
			c0.135-0.018,0.263-0.043,0.383-0.074c0.06-0.001,0.113-0.01,0.158-0.025c0.045-0.016,0.097-0.025,0.158-0.026
			c0.09-0.03,0.18-0.055,0.27-0.071c0.09-0.018,0.181-0.041,0.27-0.073c-0.742,2.427-1.341,4.413-1.796,5.96
			c-0.029,0.091-0.058,0.182-0.086,0.273c-0.029,0.091-0.057,0.197-0.085,0.318c-0.171,0.576-0.335,1.159-0.49,1.75
			c-0.156,0.592-0.305,1.146-0.446,1.66c-0.029,0.091-0.058,0.19-0.086,0.296c-0.028,0.106-0.056,0.22-0.084,0.341
			c-0.143,0.485-0.277,1-0.403,1.546s-0.261,1.075-0.402,1.592c-0.477,2.09-0.918,4.059-1.323,5.905
			c-0.405,1.849-0.678,3.061-0.819,3.636c-0.029,0.091-0.05,0.182-0.063,0.272c-0.014,0.091-0.019,0.182-0.018,0.272
			c0.043,0.754,0.497,1.251,1.361,1.491c0.864,0.242,1.81,0.414,2.838,0.517c0.12-0.002,0.241,0.004,0.362,0.017
			c0.121,0.014,0.242,0.019,0.363,0.017c0.241,0.025,0.483,0.052,0.725,0.078c0.242,0.025,0.468,0.036,0.68,0.032
			c0.06-0.001,0.113,0.005,0.158,0.021c0.046,0.014,0.098,0.021,0.159,0.02c0.06-0.001,0.113-0.002,0.158-0.003
			c0.046-0.001,0.098-0.002,0.159-0.003c0.422-0.007,0.79-0.088,1.104-0.245c0.314-0.155,0.484-0.386,0.509-0.688
			c0.14-0.575,0.279-1.257,0.417-2.044c0.137-0.786,0.303-1.604,0.5-2.453c0.028-0.12,0.048-0.234,0.062-0.34
			c0.013-0.106,0.034-0.22,0.062-0.342c0.056-0.211,0.105-0.438,0.146-0.681c0.041-0.242,0.09-0.469,0.147-0.681
			c0.108-0.666,0.233-1.287,0.375-1.863c0.14-0.575,0.298-1.03,0.474-1.366c0.247,0.358,0.487,0.701,0.719,1.029
			s0.442,0.656,0.628,0.985c0.062,0.089,0.124,0.186,0.186,0.29s0.124,0.201,0.187,0.291c0.309,0.447,0.611,0.918,0.907,1.409
			c0.295,0.493,0.628,1.009,1,1.544l0.557,0.806c0.186,0.268,0.356,0.552,0.513,0.851c0.154,0.239,0.294,0.471,0.419,0.694
			c0.124,0.224,0.264,0.456,0.419,0.694c0.809,1.373,1.6,2.627,2.374,3.761c0.774,1.132,1.46,1.527,2.057,1.186
			c0.477-0.311,0.956-0.567,1.435-0.771c0.479-0.205,0.928-0.401,1.348-0.589c0.329-0.127,0.637-0.261,0.922-0.401
			c0.282-0.141,0.559-0.304,0.827-0.49c0.239-0.125,0.448-0.295,0.625-0.509s0.263-0.517,0.257-0.909
			c-0.008-0.362-0.129-0.835-0.365-1.419c-0.236-0.585-0.635-1.325-1.192-2.22l-5.443-8.459L242.813,49.734z M211.411,26.703
			c-3.404,0.361-6.094,1.321-8.074,2.879c-1.979,1.559-3.698,3.738-5.158,6.539c-0.204,0.396-0.43,0.891-0.676,1.483
			c-0.246,0.592-0.498,1.237-0.758,1.936c-0.346,0.912-0.676,1.906-0.989,2.982c-0.313,1.077-0.581,2.16-0.803,3.25
			c-0.138,0.727-0.262,1.453-0.369,2.179c-0.108,0.726-0.172,1.437-0.189,2.13c-0.025,0.333-0.042,0.665-0.051,0.997
			c-0.009,0.332-0.011,0.649-0.006,0.95c0.017,0.966,0.108,1.87,0.274,2.711c0.165,0.842,0.436,1.652,0.812,2.43
			c0.25,0.51,0.53,1.024,0.841,1.546c0.311,0.523,0.682,1.053,1.114,1.589c0.463,0.596,1,1.106,1.611,1.532
			c0.611,0.428,1.25,0.755,1.918,0.985c0.425,0.173,0.843,0.302,1.251,0.385c0.409,0.084,0.795,0.152,1.158,0.206
			c0.363,0.054,0.726,0.085,1.088,0.095c0.362,0.009,0.709,0.011,1.041,0.005c2.654-0.047,4.868-0.712,6.641-1.994
			c1.772-1.283,3.158-2.703,4.157-4.26c0.323-0.518,0.608-1.028,0.856-1.53c0.247-0.502,0.458-0.981,0.631-1.438
			c0.346-0.94,0.561-1.548,0.647-1.82c0.086-0.273,0.142-0.485,0.17-0.638l-0.001-0.045c-0.001-0.091,0.012-0.188,0.04-0.295
			c0.028-0.105,0.071-0.265,0.128-0.478l0.17-0.592l0.633-0.056c0.693-0.042,1.236-0.489,1.629-1.341
			c0.392-0.852,0.685-1.777,0.879-2.776c0.055-0.272,0.103-0.545,0.144-0.816c0.04-0.273,0.073-0.529,0.1-0.771
			c-0.001-0.061-0.002-0.114-0.003-0.159s-0.002-0.083-0.002-0.112c-0.011-0.634-0.374-1.064-1.086-1.293
			c-0.713-0.229-1.643-0.334-2.789-0.314c-0.905,0.016-1.922,0.087-3.051,0.212c-1.13,0.126-2.312,0.259-3.546,0.401
			c-0.151,0.003-0.317,0.013-0.497,0.03c-0.181,0.02-0.362,0.046-0.542,0.078c-1.747,0.183-2.849,0.556-3.307,1.121
			c-0.458,0.567-0.766,1.471-0.926,2.709c-0.055,0.333-0.108,0.703-0.161,1.112c-0.054,0.408-0.121,0.839-0.204,1.293
			c-0.028,0.152-0.048,0.303-0.06,0.454c-0.013,0.151-0.018,0.287-0.016,0.407c0.008,0.423,0.096,0.723,0.265,0.9
			c0.169,0.179,0.359,0.281,0.571,0.308c0.03-0.001,0.06-0.001,0.091-0.002c0.029,0,0.06-0.001,0.09-0.001
			c0.06-0.001,0.12-0.003,0.181-0.005c0.06-0.001,0.12-0.002,0.181-0.003c0.03,0,0.06-0.001,0.091-0.001
			c0.029-0.001,0.06-0.001,0.09-0.002c0.091,0.029,0.182,0.042,0.272,0.041c0.091-0.002,0.181-0.004,0.272-0.005
			c0.09-0.002,0.173-0.003,0.249-0.004c0.075-0.002,0.127-0.018,0.157-0.048c0.004,0.211-0.044,0.521-0.142,0.93
			c-0.099,0.409-0.385,0.874-0.858,1.396c-0.207,0.274-0.475,0.477-0.804,0.603c-0.33,0.126-0.661,0.192-0.992,0.198
			c-0.544-0.02-1.038-0.193-1.48-0.517c-0.444-0.324-0.701-0.804-0.772-1.436c-0.002-0.091-0.003-0.188-0.005-0.294
			c-0.002-0.105-0.004-0.219-0.006-0.34c-0.033-0.15-0.051-0.308-0.054-0.474c-0.003-0.165-0.006-0.34-0.009-0.521
			c-0.012-0.724,0.017-1.599,0.09-2.627c0.073-1.026,0.235-2.086,0.488-3.176c0.084-0.364,0.183-0.742,0.297-1.137
			c0.113-0.395,0.242-0.774,0.387-1.139c0.75-1.943,1.58-3.663,2.49-5.158c0.909-1.493,1.874-2.4,2.894-2.72
			c0.21-0.063,0.398-0.113,0.563-0.146c0.165-0.033,0.308-0.052,0.429-0.054c0.603-0.01,0.999,0.194,1.188,0.613
			c0.188,0.42,0.286,0.871,0.295,1.354c0,0.029,0.001,0.053,0.001,0.067c0,0.016,0.001,0.038,0.001,0.067
			c0.002,0.091,0.004,0.188,0.005,0.294c0.002,0.106,0.004,0.204,0.006,0.295c-0.029,0.121-0.042,0.227-0.04,0.317
			c0.001,0.091,0.003,0.181,0.005,0.271c-0.02,0.604,0.243,0.999,0.79,1.186c0.546,0.187,1.136,0.289,1.77,0.309
			c0.03-0.001,0.068-0.002,0.113-0.002c0.045-0.001,0.083-0.002,0.113-0.002c0.272-0.005,0.528-0.018,0.769-0.036
			s0.452-0.046,0.632-0.079c0.21-0.034,0.391-0.059,0.542-0.078c0.15-0.017,0.256-0.026,0.316-0.027
			c0.272-0.006,0.58-0.033,0.927-0.084c0.345-0.052,0.714-0.125,1.105-0.224c0.63-0.191,1.228-0.489,1.794-0.891
			c0.566-0.402,0.889-0.937,0.968-1.602c0.054-0.333,0.086-0.642,0.097-0.929c0.01-0.287,0.012-0.581,0.007-0.883
			c-0.042-2.443-0.792-4.309-2.247-5.595c-1.456-1.288-3.047-2.143-4.774-2.565c-0.516-0.141-1.031-0.238-1.544-0.29
			c-0.515-0.051-1.013-0.072-1.495-0.063c-0.151,0.003-0.302,0.005-0.452,0.008c-0.152,0.002-0.302,0.021-0.452,0.053
			L211.411,26.703z M170.174,49.6c-0.115,0.304-0.282,0.684-0.5,1.14c-0.219,0.456-0.475,0.929-0.768,1.416
			c-0.469,0.763-1.015,1.466-1.637,2.111c-0.623,0.644-1.266,0.972-1.929,0.983l-0.045,0.001c-0.665-0.018-1.176-0.326-1.533-0.924
			c-0.357-0.597-0.587-1.257-0.691-1.979c-0.034-0.21-0.06-0.422-0.078-0.633c-0.02-0.211-0.03-0.422-0.034-0.633
			c-0.001-0.029-0.001-0.061-0.002-0.091c0-0.03-0.001-0.06-0.001-0.09c0.028-1.841,0.307-3.551,0.838-5.129
			c0.53-1.578,1.118-2.946,1.761-4.104c0.352-0.609,0.696-1.158,1.035-1.647c0.338-0.488,0.641-0.9,0.906-1.237
			c0.295-0.396,0.546-0.696,0.754-0.896c0.207-0.2,0.416-0.362,0.625-0.486c0.029-0.03,0.052-0.053,0.067-0.069
			c0.014-0.015,0.037-0.038,0.067-0.068c0.149-0.094,0.305-0.194,0.469-0.304c0.164-0.107,0.35-0.255,0.559-0.438l1.382-1.156
			c0.099,0.481,0.189,0.896,0.271,1.24c0.081,0.346,0.154,0.669,0.22,0.969c0.034,0.241,0.069,0.505,0.105,0.79
			c0.035,0.287,0.056,0.626,0.063,1.018c0.006,0.362,0.006,0.791,0,1.289c-0.007,0.498-0.034,1.096-0.082,1.79
			c-0.048,0.725-0.12,1.391-0.214,1.995c-0.096,0.605-0.214,1.196-0.354,1.771c-0.142,0.516-0.314,1.046-0.515,1.593
			c-0.202,0.547-0.418,1.154-0.647,1.822L170.174,49.6z M172.261,29.151c-0.009-0.512-0.137-0.955-0.385-1.328
			s-0.734-0.553-1.458-0.541c-0.03,0.001-0.068,0.002-0.113,0.002c-0.045,0.001-0.083,0.002-0.113,0.002
			c-0.03,0.031-0.067,0.047-0.112,0.048c-0.045,0-0.084,0.001-0.113,0.002c-4.186,0.465-7.964,3.156-11.332,8.072
			c-3.37,4.917-5.003,10.286-4.901,16.107c0.052,2.985,0.571,5.526,1.558,7.621c0.987,2.096,2.908,3.69,5.764,4.787
			c0.698,0.26,1.388,0.451,2.069,0.575s1.353,0.181,2.017,0.168c4.011-0.069,7.468-2.136,10.369-6.2
			c2.901-4.062,4.807-8.517,5.718-13.36c0.193-1.028,0.334-2.049,0.422-3.062c0.088-1.012,0.124-2,0.107-2.966
			c-0.002-0.091-0.003-0.173-0.005-0.249c-0.001-0.075-0.002-0.158-0.004-0.249c-0.032-0.09-0.048-0.18-0.05-0.271
			c-0.002-0.09-0.003-0.182-0.005-0.271c-0.001-0.06-0.002-0.128-0.003-0.204c-0.002-0.075-0.003-0.142-0.004-0.203
			c-0.123-1.867-0.334-3.576-0.632-5.126c-0.299-1.548-1.078-2.96-2.337-4.235c-0.185-0.208-0.376-0.349-0.573-0.42
			c-0.198-0.072-0.402-0.106-0.613-0.103c-0.091,0.001-0.189,0.011-0.294,0.027c-0.106,0.018-0.218,0.042-0.338,0.074
			c-0.3,0.126-0.599,0.29-0.896,0.49c-0.299,0.202-0.581,0.426-0.849,0.672c-0.178,0.153-0.349,0.3-0.512,0.438
			c-0.164,0.139-0.32,0.271-0.469,0.393l-1.917,1.663l-0.041-2.353L172.261,29.151z M140.921,27.934
			c-3.404,0.36-6.095,1.32-8.074,2.879s-3.699,3.737-5.158,6.539c-0.205,0.396-0.43,0.89-0.676,1.482s-0.498,1.238-0.758,1.938
			c-0.346,0.911-0.676,1.904-0.989,2.98c-0.313,1.077-0.581,2.16-0.803,3.25c-0.139,0.728-0.262,1.453-0.369,2.18
			c-0.108,0.726-0.172,1.437-0.189,2.131c-0.025,0.332-0.042,0.664-0.051,0.996c-0.01,0.333-0.011,0.649-0.006,0.95
			c0.017,0.966,0.108,1.869,0.274,2.711c0.165,0.843,0.436,1.651,0.812,2.43c0.25,0.509,0.53,1.024,0.841,1.547
			c0.311,0.523,0.682,1.052,1.114,1.587c0.463,0.596,1,1.107,1.611,1.533c0.611,0.427,1.25,0.756,1.918,0.984
			c0.425,0.175,0.843,0.303,1.251,0.387c0.409,0.083,0.795,0.15,1.158,0.206c0.363,0.054,0.726,0.085,1.088,0.094
			c0.362,0.008,0.709,0.01,1.041,0.004c2.654-0.046,4.867-0.71,6.641-1.994c1.772-1.282,3.158-2.702,4.157-4.259
			c0.322-0.518,0.608-1.029,0.856-1.531c0.247-0.502,0.458-0.98,0.631-1.436c0.345-0.941,0.561-1.549,0.647-1.822
			s0.142-0.485,0.17-0.637l-0.001-0.045c-0.002-0.091,0.012-0.188,0.04-0.295s0.07-0.266,0.128-0.478l0.17-0.591l0.633-0.057
			c0.693-0.042,1.236-0.489,1.628-1.342c0.393-0.851,0.686-1.776,0.88-2.775c0.055-0.272,0.103-0.545,0.144-0.817
			c0.04-0.271,0.073-0.529,0.1-0.771c-0.001-0.061-0.002-0.113-0.003-0.158c-0.001-0.046-0.002-0.083-0.002-0.114
			c-0.011-0.633-0.374-1.063-1.086-1.293c-0.714-0.229-1.643-0.333-2.789-0.312c-0.905,0.015-1.922,0.086-3.051,0.211
			c-1.13,0.126-2.312,0.26-3.546,0.401c-0.151,0.002-0.317,0.014-0.497,0.031c-0.181,0.019-0.362,0.044-0.542,0.077
			c-1.747,0.182-2.849,0.556-3.307,1.121c-0.458,0.566-0.766,1.47-0.926,2.709c-0.055,0.334-0.108,0.704-0.161,1.111
			c-0.054,0.408-0.122,0.841-0.204,1.295c-0.028,0.15-0.048,0.302-0.06,0.452c-0.013,0.152-0.018,0.288-0.016,0.408
			c0.008,0.423,0.096,0.723,0.265,0.9s0.359,0.281,0.571,0.307c0.03,0,0.06-0.001,0.091-0.001c0.029-0.001,0.06-0.001,0.09-0.002
			c0.06-0.001,0.12-0.002,0.181-0.003c0.06-0.001,0.12-0.002,0.181-0.003c0.03-0.001,0.06-0.001,0.091-0.002
			c0.029,0,0.06-0.001,0.09-0.001c0.091,0.028,0.182,0.042,0.272,0.04c0.091-0.002,0.181-0.003,0.272-0.005
			c0.09-0.001,0.173-0.003,0.249-0.004c0.075-0.001,0.127-0.018,0.157-0.048c0.004,0.211-0.044,0.521-0.142,0.93
			c-0.099,0.409-0.385,0.875-0.858,1.396c-0.207,0.275-0.475,0.477-0.804,0.603c-0.33,0.127-0.661,0.192-0.993,0.198
			c-0.543-0.021-1.037-0.192-1.479-0.518c-0.444-0.324-0.701-0.802-0.772-1.435c-0.002-0.09-0.004-0.188-0.005-0.294
			c-0.002-0.105-0.004-0.219-0.006-0.34c-0.033-0.149-0.051-0.308-0.054-0.474c-0.003-0.166-0.006-0.34-0.009-0.521
			c-0.013-0.725,0.017-1.6,0.09-2.626c0.073-1.027,0.235-2.086,0.488-3.178c0.084-0.362,0.183-0.741,0.297-1.136
			c0.113-0.394,0.242-0.774,0.387-1.139c0.75-1.943,1.58-3.663,2.49-5.157c0.909-1.494,1.874-2.401,2.894-2.721
			c0.21-0.064,0.398-0.112,0.563-0.146c0.165-0.032,0.308-0.05,0.429-0.052c0.603-0.011,0.999,0.194,1.188,0.612
			c0.188,0.42,0.286,0.871,0.295,1.353c0,0.03,0.001,0.053,0.001,0.068c0,0.015,0.001,0.038,0.001,0.067
			c0.002,0.09,0.003,0.189,0.005,0.294c0.002,0.106,0.004,0.203,0.005,0.294c-0.028,0.121-0.041,0.228-0.039,0.317
			c0.001,0.091,0.003,0.181,0.004,0.272c-0.019,0.604,0.244,0.999,0.791,1.185c0.546,0.188,1.136,0.29,1.77,0.309
			c0.03-0.001,0.068-0.001,0.113-0.002s0.083-0.001,0.113-0.002c0.272-0.005,0.527-0.016,0.769-0.036
			c0.241-0.019,0.452-0.045,0.632-0.078c0.21-0.033,0.391-0.06,0.542-0.077c0.15-0.019,0.255-0.027,0.316-0.028
			c0.272-0.005,0.58-0.033,0.927-0.084c0.345-0.052,0.714-0.126,1.105-0.223c0.63-0.192,1.228-0.489,1.794-0.893
			c0.566-0.4,0.889-0.935,0.968-1.601c0.054-0.332,0.086-0.643,0.097-0.929c0.01-0.287,0.012-0.581,0.007-0.884
			c-0.042-2.442-0.792-4.308-2.247-5.595c-1.456-1.287-3.047-2.142-4.775-2.563c-0.515-0.143-1.03-0.238-1.543-0.29
			c-0.515-0.052-1.013-0.073-1.495-0.065c-0.151,0.003-0.302,0.006-0.452,0.008c-0.152,0.003-0.302,0.021-0.452,0.054
			L140.921,27.934z"/>
	</g>
</g>
</svg>
